<?xml version="1.0" encoding="UTF-8"?>
<svg id="Layer_1" xmlns="http://www.w3.org/2000/svg" version="1.1" viewBox="0 0 244.4 171.7">
  <!-- Generator: Adobe Illustrator 29.0.0, SVG Export Plug-In . SVG Version: 2.1.0 Build 186)  -->
  <defs>
    <style>
      .st0 {
        fill: #fff;
      }

      .st1 {
        fill: #2c3e50;
      }

      .st2 {
        fill: #e74c3c;
      }
    </style>
  </defs>
  <rect class="st1" x="-2749.3" y="-535.4" width="1182.3" height="665.9" transform="translate(.3 -3.7) rotate(0)"/>
  <rect class="st1" x="-2749.3" y="-1396.7" width="1182.3" height="665.9" transform="translate(1.8 -3.7) rotate(0)"/>
  <g>
    <path class="st2" d="M-2269.5-1061.3c0,5.7,2.7,8.5,8,8.5s5-1.2,6.5-3.5h12.7c-2.6,8.5-9,12.8-19.2,12.8s-6-.5-8.6-1.4c-2.6-.9-4.9-2.3-6.7-4-1.9-1.7-3.3-3.8-4.3-6.2-1-2.4-1.5-5.1-1.5-8.1s.5-5.9,1.5-8.4c1-2.5,2.3-4.6,4.1-6.4,1.8-1.7,4-3.1,6.5-4,2.5-.9,5.4-1.4,8.6-1.4s6,.5,8.5,1.4c2.5.9,4.6,2.3,6.4,4.1,1.7,1.8,3.1,4,4,6.6.9,2.6,1.4,5.5,1.4,8.8v1.4h-27.7ZM-2254.1-1068.9c-.4-1.8-1.3-3.3-2.7-4.4-1.4-1.1-3-1.7-4.9-1.7s-3.7.5-5,1.6c-1.3,1.1-2.1,2.6-2.4,4.5h15Z"/>
    <path class="st2" d="M-2288.4-1072.7c-2.4-1.3-4.8-1.9-7.1-1.9s-2.2.2-2.9.7c-.8.5-1.1,1.1-1.1,2s0,.8.2,1.1.4.5.8.8c.4.2,1,.5,1.8.7.8.2,1.9.4,3.2.7,3.6.7,6.3,2,8.1,3.9,1.8,1.9,2.7,4.2,2.7,7.2s-.4,4.1-1.3,5.9c-.9,1.7-2.1,3.2-3.6,4.4-1.5,1.2-3.4,2.1-5.6,2.8-2.2.7-4.6,1-7.2,1-5,0-10-1.4-14.9-4.3l4.8-9.3c3.7,2.5,7.2,3.8,10.5,3.8s2.2-.3,3-.8c.8-.5,1.2-1.2,1.2-2s0-.9-.2-1.2c-.1-.3-.4-.6-.8-.9-.4-.3-1-.5-1.7-.7-.8-.2-1.7-.4-2.9-.7-4.1-.8-6.9-2-8.5-3.7-1.6-1.6-2.4-3.9-2.4-6.7s.4-4,1.2-5.6c.8-1.7,1.9-3.1,3.3-4.2s3.2-2.1,5.3-2.7c2.1-.6,4.3-.9,6.9-.9,4.1,0,8.1.8,12,2.4l-4.4,8.6Z"/>
    <path class="st2" d="M-2228.6-1061.3c0,5.7,2.7,8.5,8,8.5s5-1.2,6.5-3.5h12.7c-2.6,8.5-9,12.8-19.2,12.8s-6-.5-8.6-1.4c-2.6-.9-4.9-2.3-6.7-4s-3.3-3.8-4.3-6.2c-1-2.4-1.5-5.1-1.5-8.1s.5-5.9,1.5-8.4c1-2.5,2.3-4.6,4.1-6.4,1.8-1.7,4-3.1,6.5-4,2.5-.9,5.4-1.4,8.6-1.4s6,.5,8.5,1.4,4.6,2.3,6.4,4.1c1.7,1.8,3.1,4,4,6.6.9,2.6,1.4,5.5,1.4,8.8v1.4h-27.7ZM-2213.2-1068.9c-.4-1.8-1.3-3.3-2.7-4.4-1.4-1.1-3-1.7-4.9-1.7s-3.7.5-5,1.6c-1.3,1.1-2.1,2.6-2.4,4.5h15Z"/>
    <path class="st0" d="M-2139.1-1025.6h-14.9v-57.1h23.7c6.4,0,11.3,1.7,14.7,5,3.4,3.3,5.1,8,5.1,14.1s-1.7,10.8-5.1,14.1c-3.4,3.3-8.3,5-14.7,5h-8.8v18.9ZM-2139.1-1056.5h4.9c5.5,0,8.2-2.4,8.2-7.1s-2.7-7.1-8.2-7.1h-4.9v14.2Z"/>
    <path class="st2" d="M-2172.3-1101.9h14.9s0,57.1,0,57.1h-23.6c-6.4,0-11.3-1.6-14.7-4.9-3.4-3.3-5.1-8-5.1-14.1,0-6.1,1.7-10.8,5.1-14.1,3.4-3.3,8.3-5,14.7-5h8.8s0-19,0-19ZM-2172.3-1070.9h-4.9c-5.5,0-8.2,2.4-8.2,7.1s2.7,7.1,8.2,7.1h4.9s0-14.3,0-14.3Z"/>
    <path class="st0" d="M-2079.9-1082.3h13.4v37.7h-13.4v-4.2c-2.8,3.6-6.7,5.4-11.5,5.4s-5.3-.5-7.6-1.5c-2.3-1-4.3-2.4-6-4.2-1.7-1.8-3-3.9-4-6.4-1-2.4-1.4-5.1-1.4-8s.5-5.2,1.4-7.7c.9-2.4,2.2-4.5,3.9-6.4,1.7-1.8,3.6-3.2,5.9-4.3,2.3-1.1,4.8-1.6,7.6-1.6,4.7,0,8.6,1.6,11.7,4.9v-3.7ZM-2096.6-1063.6c0,1.2.2,2.4.7,3.4.4,1.1,1,2,1.8,2.8.8.8,1.7,1.4,2.7,1.8,1.1.4,2.2.7,3.4.7s2.3-.2,3.3-.7c1.1-.4,2-1.1,2.7-1.8.8-.8,1.4-1.7,1.8-2.7s.7-2.1.7-3.3-.2-2.3-.7-3.3c-.5-1.1-1.1-2-1.8-2.8-.8-.8-1.7-1.4-2.7-1.8-1.1-.4-2.2-.7-3.3-.7s-2.4.2-3.4.7c-1.1.4-2,1.1-2.7,1.8-.8.8-1.4,1.7-1.8,2.7-.4,1-.7,2.1-.7,3.3Z"/>
    <path class="st0" d="M-2039.5-1072.5c-2.4-1.3-4.8-1.9-7.1-1.9s-2.2.2-2.9.7c-.8.5-1.1,1.1-1.1,2s0,.8.2,1.1.4.5.8.8c.4.2,1,.5,1.8.7.8.2,1.9.4,3.2.7,3.6.7,6.3,2,8.1,3.9,1.8,1.9,2.7,4.2,2.7,7.2s-.4,4.1-1.3,5.9c-.9,1.7-2.1,3.2-3.6,4.4-1.5,1.2-3.4,2.1-5.6,2.8-2.2.7-4.6,1-7.2,1-5,0-10-1.4-14.9-4.3l4.8-9.3c3.7,2.5,7.2,3.8,10.5,3.8s2.2-.3,3-.8c.8-.5,1.2-1.2,1.2-2s0-.9-.2-1.2c-.1-.3-.4-.6-.8-.9-.4-.3-1-.5-1.7-.7-.8-.2-1.7-.4-2.9-.7-4.1-.8-6.9-2-8.5-3.7-1.6-1.6-2.4-3.9-2.4-6.7s.4-4,1.2-5.6c.8-1.7,1.9-3.1,3.3-4.2,1.5-1.2,3.2-2.1,5.3-2.7,2.1-.6,4.3-.9,6.9-.9,4.1,0,8.1.8,12,2.4l-4.4,8.6Z"/>
    <path class="st0" d="M-2006.9-1072.5c-2.4-1.3-4.8-1.9-7.1-1.9s-2.2.2-2.9.7c-.8.5-1.1,1.1-1.1,2s0,.8.2,1.1.4.5.8.8c.4.2,1,.5,1.8.7.8.2,1.9.4,3.2.7,3.6.7,6.3,2,8.1,3.9,1.8,1.9,2.7,4.2,2.7,7.2s-.4,4.1-1.3,5.9c-.9,1.7-2.1,3.2-3.6,4.4-1.5,1.2-3.4,2.1-5.6,2.8-2.2.7-4.6,1-7.2,1-5,0-10-1.4-14.9-4.3l4.8-9.3c3.7,2.5,7.2,3.8,10.5,3.8s2.2-.3,3-.8c.8-.5,1.2-1.2,1.2-2s0-.9-.2-1.2c-.1-.3-.4-.6-.8-.9-.4-.3-1-.5-1.7-.7-.8-.2-1.7-.4-2.9-.7-4.1-.8-6.9-2-8.5-3.7-1.6-1.6-2.4-3.9-2.4-6.7s.4-4,1.2-5.6c.8-1.7,1.9-3.1,3.3-4.2s3.2-2.1,5.3-2.7c2.1-.6,4.3-.9,6.9-.9,4.1,0,8.1.8,12,2.4l-4.4,8.6Z"/>
    <path class="st0" d="M-2306.3-1040.8c-12.6,0-22.9-10.3-22.9-22.9s10.3-22.9,22.9-22.9h130.6v-12.5h-130.6c-19.5,0-35.4,15.9-35.4,35.4s15.9,35.4,35.4,35.4h148.8v-12.5h-148.8Z"/>
    <path class="st2" d="M-2010-1099.1h-144.1v12.5h144.1c12.6,0,22.9,10.3,22.9,22.9s-10.3,22.9-22.9,22.9h-125.6v12.5h125.6c19.5,0,35.4-15.9,35.4-35.4s-15.9-35.4-35.4-35.4Z"/>
  </g>
  <g>
    <path class="st2" d="M-639.6-1314.7c0,7.2,3.4,10.8,10.2,10.8s6.4-1.5,8.2-4.4h16.2c-3.3,10.9-11.5,16.3-24.6,16.3s-7.7-.6-11-1.8c-3.3-1.2-6.2-2.9-8.6-5.1-2.4-2.2-4.2-4.9-5.5-8-1.3-3.1-1.9-6.5-1.9-10.4s.6-7.5,1.9-10.7c1.2-3.2,3-5.9,5.3-8.1,2.3-2.2,5.1-3.9,8.3-5.1,3.2-1.2,6.9-1.8,11-1.8s7.6.6,10.8,1.8c3.2,1.2,5.9,3,8.2,5.2,2.2,2.3,3.9,5.1,5.1,8.4,1.2,3.3,1.8,7,1.8,11.2v1.8h-35.3ZM-620-1324.5c-.6-2.3-1.7-4.2-3.4-5.7-1.7-1.4-3.8-2.1-6.3-2.1s-4.7.7-6.3,2c-1.6,1.4-2.7,3.3-3.1,5.7h19.2Z"/>
    <path class="st2" d="M-663.7-1329.3c-3.1-1.6-6.1-2.4-9.1-2.4s-2.8.3-3.8.9c-1,.6-1.4,1.5-1.4,2.5s0,1,.2,1.3.5.7,1,1c.5.3,1.3.6,2.3.8,1,.2,2.4.6,4,.9,4.6.9,8.1,2.6,10.4,5,2.3,2.4,3.4,5.4,3.4,9.1s-.6,5.3-1.7,7.5c-1.1,2.2-2.7,4.1-4.6,5.6-2,1.5-4.4,2.7-7.1,3.5-2.8.8-5.8,1.3-9.2,1.3-6.4,0-12.8-1.8-19-5.5l6.1-11.9c4.7,3.2,9.1,4.8,13.3,4.8s2.8-.3,3.8-1c1-.7,1.5-1.5,1.5-2.6s0-1.1-.2-1.5c-.2-.4-.5-.8-1-1.1-.5-.3-1.2-.6-2.2-.9-1-.3-2.2-.6-3.8-.9-5.2-1.1-8.8-2.6-10.9-4.7-2.1-2.1-3.1-4.9-3.1-8.6s.5-5.1,1.5-7.2c1-2.1,2.4-3.9,4.3-5.4s4.1-2.6,6.7-3.4c2.6-.8,5.5-1.2,8.8-1.2,5.2,0,10.3,1,15.3,3.1l-5.7,10.9Z"/>
    <path class="st2" d="M-587.3-1314.7c0,7.2,3.4,10.8,10.2,10.8s6.4-1.5,8.2-4.4h16.2c-3.3,10.9-11.5,16.3-24.6,16.3s-7.7-.6-11-1.8c-3.3-1.2-6.2-2.9-8.6-5.1s-4.2-4.9-5.5-8c-1.3-3.1-1.9-6.5-1.9-10.4s.6-7.5,1.9-10.7c1.2-3.2,3-5.9,5.3-8.1,2.3-2.2,5.1-3.9,8.3-5.1,3.2-1.2,6.9-1.8,11-1.8s7.6.6,10.8,1.8c3.2,1.2,5.9,3,8.2,5.2,2.2,2.3,3.9,5.1,5.1,8.4,1.2,3.3,1.8,7,1.8,11.2v1.8h-35.3ZM-567.7-1324.5c-.6-2.3-1.7-4.2-3.4-5.7-1.7-1.4-3.8-2.1-6.3-2.1s-4.7.7-6.3,2c-1.6,1.4-2.7,3.3-3.1,5.7h19.2Z"/>
    <path class="st0" d="M-473.1-1269.2h-19v-72.9h30.2c8.2,0,14.5,2.1,18.8,6.4,4.4,4.3,6.5,10.2,6.5,18s-2.2,13.7-6.5,18c-4.4,4.3-10.6,6.4-18.8,6.4h-11.2v24.2ZM-473.1-1308.7h6.3c7,0,10.4-3,10.4-9.1s-3.5-9.1-10.4-9.1h-6.3v18.2Z"/>
    <path class="st2" d="M-515.5-1366.5h19s0,72.9,0,72.9h-30.1c-8.2,0-14.5-2.1-18.8-6.3-4.4-4.2-6.5-10.2-6.6-18,0-7.7,2.2-13.7,6.5-18,4.3-4.3,10.6-6.4,18.8-6.4h11.2s0-24.2,0-24.2ZM-515.5-1327h-6.3c-7,0-10.4,3.1-10.4,9.1,0,6.1,3.5,9.1,10.5,9.1h6.3s0-18.2,0-18.2Z"/>
    <path class="st0" d="M-397.6-1341.6h17.1v48.1h-17.1v-5.3c-3.6,4.6-8.5,6.8-14.7,6.8s-6.7-.6-9.7-1.9c-2.9-1.3-5.5-3.1-7.7-5.4-2.2-2.3-3.9-5-5.1-8.2-1.2-3.1-1.8-6.5-1.8-10.2s.6-6.7,1.8-9.8c1.2-3.1,2.8-5.8,5-8.1,2.1-2.3,4.7-4.1,7.6-5.5,2.9-1.3,6.2-2,9.7-2,6,0,11,2.1,14.9,6.3v-4.8ZM-418.9-1317.7c0,1.6.3,3,.8,4.4.6,1.3,1.3,2.5,2.3,3.5,1,1,2.1,1.8,3.5,2.3,1.3.6,2.8.8,4.4.8s2.9-.3,4.3-.8c1.3-.6,2.5-1.3,3.5-2.3,1-1,1.7-2.2,2.3-3.5s.9-2.7.9-4.2-.3-2.9-.9-4.3c-.6-1.3-1.4-2.5-2.3-3.5-1-1-2.1-1.8-3.5-2.3-1.3-.6-2.8-.8-4.3-.8s-3,.3-4.4.8c-1.3.6-2.5,1.3-3.5,2.3-1,1-1.7,2.1-2.3,3.4-.6,1.3-.8,2.7-.8,4.2Z"/>
    <path class="st0" d="M-346-1329.1c-3.1-1.6-6.1-2.4-9.1-2.4s-2.8.3-3.8.9c-1,.6-1.4,1.5-1.4,2.5s0,1,.2,1.3.5.7,1,1c.5.3,1.3.6,2.3.8,1,.2,2.4.6,4,.9,4.6.9,8.1,2.6,10.4,5,2.3,2.4,3.4,5.4,3.4,9.1s-.6,5.3-1.7,7.5c-1.1,2.2-2.7,4.1-4.6,5.6-2,1.5-4.4,2.7-7.1,3.5-2.8.8-5.8,1.3-9.2,1.3-6.4,0-12.8-1.8-19-5.5l6.1-11.9c4.7,3.2,9.1,4.8,13.3,4.8s2.8-.3,3.8-1c1-.7,1.5-1.5,1.5-2.6s0-1.1-.2-1.5c-.2-.4-.5-.8-1-1.1-.5-.3-1.2-.6-2.2-.9-1-.3-2.2-.6-3.8-.9-5.2-1.1-8.8-2.6-10.9-4.7-2.1-2.1-3.1-4.9-3.1-8.6s.5-5.1,1.5-7.2c1-2.1,2.4-3.9,4.3-5.4,1.9-1.5,4.1-2.6,6.7-3.4,2.6-.8,5.5-1.2,8.8-1.2,5.2,0,10.3,1,15.3,3.1l-5.7,10.9Z"/>
    <path class="st0" d="M-304.4-1329.1c-3.1-1.6-6.1-2.4-9.1-2.4s-2.8.3-3.8.9c-1,.6-1.4,1.5-1.4,2.5s0,1,.2,1.3.5.7,1,1c.5.3,1.3.6,2.3.8,1,.2,2.4.6,4,.9,4.6.9,8.1,2.6,10.4,5,2.3,2.4,3.4,5.4,3.4,9.1s-.6,5.3-1.7,7.5c-1.1,2.2-2.7,4.1-4.6,5.6-2,1.5-4.4,2.7-7.1,3.5-2.8.8-5.8,1.3-9.2,1.3-6.4,0-12.8-1.8-19-5.5l6.1-11.9c4.7,3.2,9.1,4.8,13.3,4.8s2.8-.3,3.8-1c1-.7,1.5-1.5,1.5-2.6s0-1.1-.2-1.5c-.2-.4-.5-.8-1-1.1-.5-.3-1.2-.6-2.2-.9-1-.3-2.2-.6-3.8-.9-5.2-1.1-8.8-2.6-10.9-4.7-2.1-2.1-3.1-4.9-3.1-8.6s.5-5.1,1.5-7.2c1-2.1,2.4-3.9,4.3-5.4s4.1-2.6,6.7-3.4c2.6-.8,5.5-1.2,8.8-1.2,5.2,0,10.3,1,15.3,3.1l-5.7,10.9Z"/>
    <path class="st0" d="M-686.6-1288.5c-16.1,0-29.3-13.1-29.3-29.3s13.1-29.3,29.3-29.3h166.7v-15.9h-166.7c-24.9,0-45.2,20.3-45.2,45.2s20.3,45.2,45.2,45.2h189.9v-15.9h-189.9Z"/>
    <path class="st2" d="M-308.4-1362.9h-183.9v15.9h183.9c16.1,0,29.3,13.1,29.3,29.3s-13.1,29.3-29.3,29.3h-160.2v15.9h160.2c24.9,0,45.2-20.3,45.2-45.2s-20.3-45.2-45.2-45.2Z"/>
  </g>
  <g>
    <path class="st2" d="M92.1-1335.1c0,7.2,3.4,10.8,10.2,10.8s6.4-1.5,8.2-4.4h16.2c-3.3,10.9-11.5,16.3-24.6,16.3s-7.7-.6-11-1.8c-3.3-1.2-6.2-2.9-8.6-5.1-2.4-2.2-4.2-4.9-5.5-8-1.3-3.1-1.9-6.5-1.9-10.4s.6-7.5,1.9-10.7c1.2-3.2,3-5.9,5.3-8.1,2.3-2.2,5.1-3.9,8.3-5.1,3.2-1.2,6.9-1.8,11-1.8s7.6.6,10.8,1.8c3.2,1.2,5.9,3,8.2,5.2,2.2,2.3,3.9,5.1,5.1,8.4,1.2,3.3,1.8,7,1.8,11.2v1.8h-35.3ZM111.8-1344.9c-.6-2.3-1.7-4.2-3.4-5.7-1.7-1.4-3.8-2.1-6.3-2.1s-4.7.7-6.3,2c-1.6,1.4-2.7,3.3-3.1,5.7h19.2Z"/>
    <path class="st2" d="M68-1349.7c-3.1-1.6-6.1-2.4-9.1-2.4s-2.8.3-3.8.9c-1,.6-1.4,1.5-1.4,2.5s0,1,.2,1.3.5.7,1,1c.5.3,1.3.6,2.3.8,1,.2,2.4.6,4,.9,4.6.9,8.1,2.6,10.4,5,2.3,2.4,3.4,5.4,3.4,9.1s-.6,5.3-1.7,7.5c-1.1,2.2-2.7,4.1-4.6,5.6-2,1.5-4.4,2.7-7.1,3.5-2.8.8-5.8,1.3-9.2,1.3-6.4,0-12.8-1.8-19-5.5l6.1-11.9c4.7,3.2,9.1,4.8,13.3,4.8s2.8-.3,3.8-1c1-.7,1.5-1.5,1.5-2.6s0-1.1-.2-1.5c-.2-.4-.5-.8-1-1.1-.5-.3-1.2-.6-2.2-.9-1-.3-2.2-.6-3.8-.9-5.2-1.1-8.8-2.6-10.9-4.7-2.1-2.1-3.1-4.9-3.1-8.6s.5-5.1,1.5-7.2c1-2.1,2.4-3.9,4.3-5.4s4.1-2.6,6.7-3.4c2.6-.8,5.5-1.2,8.8-1.2,5.2,0,10.3,1,15.3,3.1l-5.7,10.9Z"/>
    <path class="st2" d="M144.4-1335.1c0,7.2,3.4,10.8,10.2,10.8s6.4-1.5,8.2-4.4h16.2c-3.3,10.9-11.5,16.3-24.6,16.3s-7.7-.6-11-1.8c-3.3-1.2-6.2-2.9-8.6-5.1s-4.2-4.9-5.5-8c-1.3-3.1-1.9-6.5-1.9-10.4s.6-7.5,1.9-10.7c1.2-3.2,3-5.9,5.3-8.1,2.3-2.2,5.1-3.9,8.3-5.1,3.2-1.2,6.9-1.8,11-1.8s7.6.6,10.8,1.8c3.2,1.2,5.9,3,8.2,5.2,2.2,2.3,3.9,5.1,5.1,8.4,1.2,3.3,1.8,7,1.8,11.2v1.8h-35.3ZM164.1-1344.9c-.6-2.3-1.7-4.2-3.4-5.7-1.7-1.4-3.8-2.1-6.3-2.1s-4.7.7-6.3,2c-1.6,1.4-2.7,3.3-3.1,5.7h19.2Z"/>
    <path class="st2" d="M216.2-1386.9h19s0,72.9,0,72.9h-30.1c-8.2,0-14.5-2.1-18.8-6.3-4.4-4.2-6.5-10.2-6.6-18,0-7.7,2.2-13.7,6.5-18,4.3-4.3,10.6-6.4,18.8-6.4h11.2s0-24.2,0-24.2ZM216.3-1347.4h-6.3c-7,0-10.4,3.1-10.4,9.1s3.5,9.1,10.5,9.1h6.3s0-18.2,0-18.2Z"/>
    <path class="st0" d="M45.2-1308.9c-16.1,0-29.3-13.1-29.3-29.3s13.1-29.3,29.3-29.3h166.7v-15.9H45.2c-24.9,0-45.2,20.3-45.2,45.2s20.3,45.2,45.2,45.2h80.1v-15.9H45.2Z"/>
    <g>
      <path class="st0" d="M34.6-1215.2H15.6v-72.9h30.2c8.2,0,14.5,2.1,18.8,6.4,4.4,4.3,6.5,10.2,6.5,18s-2.2,13.7-6.5,18c-4.4,4.3-10.6,6.4-18.8,6.4h-11.2v24.2ZM34.6-1254.6h6.3c7,0,10.4-3,10.4-9.1s-3.5-9.1-10.4-9.1h-6.3v18.2Z"/>
      <path class="st0" d="M110.1-1287.6h17.1v48.1h-17.1v-5.3c-3.6,4.6-8.5,6.8-14.7,6.8s-6.7-.6-9.7-1.9c-2.9-1.3-5.5-3.1-7.7-5.4-2.2-2.3-3.9-5-5.1-8.2-1.2-3.1-1.8-6.5-1.8-10.2s.6-6.7,1.8-9.8c1.2-3.1,2.8-5.8,5-8.1,2.1-2.3,4.7-4.1,7.6-5.5,2.9-1.3,6.2-2,9.7-2,6,0,11,2.1,14.9,6.3v-4.8ZM88.7-1263.7c0,1.6.3,3,.8,4.4.6,1.3,1.3,2.5,2.3,3.5,1,1,2.1,1.8,3.5,2.3,1.3.6,2.8.8,4.4.8s2.9-.3,4.3-.8c1.3-.6,2.5-1.3,3.5-2.3,1-1,1.7-2.2,2.3-3.5.6-1.3.9-2.7.9-4.2s-.3-2.9-.9-4.3c-.6-1.3-1.4-2.5-2.3-3.5-1-1-2.1-1.8-3.5-2.3-1.3-.6-2.8-.8-4.3-.8s-3,.3-4.4.8c-1.3.6-2.5,1.3-3.5,2.3-1,1-1.7,2.1-2.3,3.4-.6,1.3-.8,2.7-.8,4.2Z"/>
      <path class="st0" d="M161.6-1275.1c-3.1-1.6-6.1-2.4-9.1-2.4s-2.8.3-3.8.9c-1,.6-1.4,1.5-1.4,2.5s0,1,.2,1.3.5.7,1,1c.5.3,1.3.6,2.3.8,1,.2,2.4.6,4,.9,4.6.9,8.1,2.6,10.4,5,2.3,2.4,3.4,5.4,3.4,9.1s-.6,5.3-1.7,7.5c-1.1,2.2-2.7,4.1-4.6,5.6-2,1.5-4.4,2.7-7.1,3.5-2.8.8-5.8,1.3-9.2,1.3-6.4,0-12.8-1.8-19-5.5l6.1-11.9c4.7,3.2,9.1,4.8,13.3,4.8s2.8-.3,3.8-1c1-.7,1.5-1.5,1.5-2.6s0-1.1-.2-1.5c-.2-.4-.5-.8-1-1.1-.5-.3-1.2-.6-2.2-.9-1-.3-2.2-.6-3.8-.9-5.2-1.1-8.8-2.6-10.9-4.7-2.1-2.1-3.1-4.9-3.1-8.6s.5-5.1,1.5-7.2c1-2.1,2.4-3.9,4.3-5.4,1.9-1.5,4.1-2.6,6.7-3.4,2.6-.8,5.5-1.2,8.8-1.2,5.2,0,10.3,1,15.3,3.1l-5.7,10.9Z"/>
      <path class="st0" d="M203.2-1275.1c-3.1-1.6-6.1-2.4-9.1-2.4s-2.8.3-3.8.9c-1,.6-1.4,1.5-1.4,2.5s0,1,.2,1.3.5.7,1,1c.5.3,1.3.6,2.3.8,1,.2,2.4.6,4,.9,4.6.9,8.1,2.6,10.4,5,2.3,2.4,3.4,5.4,3.4,9.1s-.6,5.3-1.7,7.5c-1.1,2.2-2.7,4.1-4.6,5.6-2,1.5-4.4,2.7-7.1,3.5-2.8.8-5.8,1.3-9.2,1.3-6.4,0-12.8-1.8-19-5.5l6.1-11.9c4.7,3.2,9.1,4.8,13.3,4.8s2.8-.3,3.8-1c1-.7,1.5-1.5,1.5-2.6s0-1.1-.2-1.5c-.2-.4-.5-.8-1-1.1-.5-.3-1.2-.6-2.2-.9-1-.3-2.2-.6-3.8-.9-5.2-1.1-8.8-2.6-10.9-4.7-2.1-2.1-3.1-4.9-3.1-8.6s.5-5.1,1.5-7.2c1-2.1,2.4-3.9,4.3-5.4,1.9-1.5,4.1-2.6,6.7-3.4,2.6-.8,5.5-1.2,8.8-1.2,5.2,0,10.3,1,15.3,3.1l-5.7,10.9Z"/>
      <path class="st2" d="M199.3-1308.9h-74v15.9h74c16.1,0,29.3,13.1,29.3,29.3s-13.1,29.3-29.3,29.3H39v15.9h160.2c24.9,0,45.2-20.3,45.2-45.2s-20.3-45.2-45.2-45.2Z"/>
    </g>
  </g>
  <g>
    <path class="st2" d="M-2180.2-227.4c0,5.3,2.5,8,7.5,8s4.7-1.1,6.1-3.3h11.9c-2.4,8-8.4,12-18,12s-5.6-.4-8.1-1.3c-2.4-.9-4.5-2.1-6.3-3.8-1.7-1.6-3.1-3.6-4-5.8-1-2.3-1.4-4.8-1.4-7.6s.5-5.5,1.4-7.9c.9-2.3,2.2-4.3,3.9-5.9,1.7-1.6,3.7-2.9,6.1-3.8,2.4-.9,5.1-1.3,8.1-1.3s5.6.4,8,1.3c2.4.9,4.4,2.2,6,3.8,1.6,1.7,2.9,3.7,3.7,6.2.9,2.4,1.3,5.2,1.3,8.2v1.3h-25.9ZM-2165.8-234.5c-.4-1.7-1.2-3.1-2.5-4.1-1.3-1-2.8-1.6-4.6-1.6s-3.5.5-4.7,1.5c-1.2,1-2,2.4-2.3,4.2h14.1Z"/>
    <path class="st2" d="M-2197.9-238.1c-2.3-1.2-4.5-1.8-6.7-1.8s-2.1.2-2.8.7c-.7.5-1.1,1.1-1.1,1.8s0,.7.2,1,.4.5.7.7c.4.2,1,.4,1.7.6.7.2,1.7.4,3,.7,3.4.7,5.9,1.9,7.6,3.6,1.7,1.7,2.5,4,2.5,6.7s-.4,3.9-1.2,5.5c-.8,1.6-1.9,3-3.4,4.1-1.5,1.1-3.2,2-5.2,2.6-2,.6-4.3.9-6.7.9-4.7,0-9.4-1.3-13.9-4l4.5-8.7c3.4,2.4,6.7,3.5,9.8,3.5s2.1-.2,2.8-.7c.7-.5,1.1-1.1,1.1-1.9s0-.8-.2-1.1c-.1-.3-.4-.6-.7-.8-.4-.2-.9-.5-1.6-.7-.7-.2-1.6-.4-2.8-.6-3.8-.8-6.5-1.9-8-3.4-1.5-1.5-2.3-3.6-2.3-6.3s.4-3.7,1.1-5.3c.7-1.6,1.8-2.9,3.1-4s3-1.9,4.9-2.5,4.1-.9,6.4-.9c3.9,0,7.6.7,11.2,2.2l-4.1,8Z"/>
    <path class="st2" d="M-2141.9-227.4c0,5.3,2.5,8,7.5,8s4.7-1.1,6.1-3.3h11.9c-2.4,8-8.4,12-18,12s-5.6-.4-8.1-1.3c-2.4-.9-4.5-2.1-6.3-3.8s-3.1-3.6-4-5.8c-1-2.3-1.4-4.8-1.4-7.6s.5-5.5,1.4-7.9c.9-2.3,2.2-4.3,3.9-5.9,1.7-1.6,3.7-2.9,6.1-3.8,2.4-.9,5.1-1.3,8.1-1.3s5.6.4,8,1.3c2.4.9,4.4,2.2,6,3.8,1.6,1.7,2.9,3.7,3.7,6.2.9,2.4,1.3,5.2,1.3,8.2v1.3h-25.9ZM-2127.5-234.5c-.4-1.7-1.2-3.1-2.5-4.1-1.3-1-2.8-1.6-4.6-1.6s-3.5.5-4.7,1.5c-1.2,1-2,2.4-2.3,4.2h14.1Z"/>
    <path class="st2" d="M-2089.2-265.4h14s0,53.5,0,53.5h-22.1c-6,0-10.6-1.5-13.8-4.6-3.2-3.1-4.8-7.5-4.8-13.2,0-5.7,1.6-10.1,4.8-13.2,3.2-3.1,7.8-4.7,13.8-4.7h8.2s0-17.7,0-17.7ZM-2089.2-236.4h-4.6c-5.1,0-7.7,2.2-7.6,6.7,0,4.4,2.6,6.7,7.7,6.7h4.6s0-13.3,0-13.3Z"/>
    <path class="st0" d="M-2214.7-208.2c-11.8,0-21.5-9.6-21.5-21.5s9.6-21.5,21.5-21.5h122.3v-11.7h-122.3c-18.3,0-33.1,14.9-33.1,33.1s14.9,33.1,33.1,33.1h58.7v-11.7h-58.7Z"/>
    <g>
      <path class="st0" d="M-2222.5-139.4h-13.9v-53.5h22.2c6,0,10.6,1.6,13.8,4.7,3.2,3.1,4.8,7.5,4.8,13.2s-1.6,10.1-4.8,13.2c-3.2,3.1-7.8,4.7-13.8,4.7h-8.2v17.7ZM-2222.5-168.3h4.6c5.1,0,7.7-2.2,7.7-6.7s-2.6-6.7-7.7-6.7h-4.6v13.3Z"/>
      <path class="st0" d="M-2167.1-192.5h12.5v35.3h-12.5v-3.9c-2.7,3.3-6.3,5-10.8,5s-4.9-.5-7.1-1.4c-2.2-.9-4-2.3-5.6-4-1.6-1.7-2.9-3.7-3.7-6-.9-2.3-1.3-4.8-1.3-7.5s.4-4.9,1.3-7.2c.9-2.3,2.1-4.3,3.6-5.9,1.6-1.7,3.4-3,5.6-4,2.2-1,4.5-1.5,7.1-1.5,4.4,0,8,1.5,10.9,4.6v-3.5ZM-2182.7-175c0,1.1.2,2.2.6,3.2.4,1,1,1.8,1.7,2.6.7.7,1.6,1.3,2.5,1.7,1,.4,2,.6,3.2.6s2.1-.2,3.1-.6c1-.4,1.8-1,2.5-1.7.7-.7,1.3-1.6,1.7-2.5s.7-2,.7-3.1-.2-2.1-.7-3.1c-.4-1-1-1.8-1.7-2.6-.7-.7-1.6-1.3-2.5-1.7-1-.4-2-.6-3.1-.6s-2.2.2-3.2.6c-1,.4-1.8,1-2.5,1.7-.7.7-1.3,1.6-1.7,2.5-.4.9-.6,2-.6,3.1Z"/>
      <path class="st0" d="M-2129.2-183.3c-2.3-1.2-4.5-1.8-6.7-1.8s-2.1.2-2.8.7c-.7.5-1.1,1.1-1.1,1.8s0,.7.2,1,.4.5.7.7c.4.2,1,.4,1.7.6.7.2,1.7.4,3,.7,3.4.7,5.9,1.9,7.6,3.6,1.7,1.7,2.5,4,2.5,6.7s-.4,3.9-1.2,5.5c-.8,1.6-1.9,3-3.4,4.1-1.5,1.1-3.2,2-5.2,2.6-2,.6-4.3.9-6.7.9-4.7,0-9.4-1.3-13.9-4l4.5-8.7c3.4,2.4,6.7,3.5,9.8,3.5s2.1-.2,2.8-.7c.7-.5,1.1-1.1,1.1-1.9s0-.8-.2-1.1c-.1-.3-.4-.6-.7-.8-.4-.2-.9-.5-1.6-.7-.7-.2-1.6-.4-2.8-.6-3.8-.8-6.5-1.9-8-3.4-1.5-1.5-2.3-3.6-2.3-6.3s.4-3.7,1.1-5.3c.7-1.6,1.8-2.9,3.1-4s3-1.9,4.9-2.5c1.9-.6,4.1-.9,6.4-.9,3.9,0,7.6.7,11.2,2.2l-4.1,8Z"/>
      <path class="st0" d="M-2098.7-183.3c-2.3-1.2-4.5-1.8-6.7-1.8s-2.1.2-2.8.7c-.7.5-1.1,1.1-1.1,1.8s0,.7.2,1,.4.5.7.7c.4.2,1,.4,1.7.6.7.2,1.7.4,3,.7,3.4.7,5.9,1.9,7.6,3.6,1.7,1.7,2.5,4,2.5,6.7s-.4,3.9-1.2,5.5c-.8,1.6-1.9,3-3.4,4.1-1.5,1.1-3.2,2-5.2,2.6-2,.6-4.3.9-6.7.9-4.7,0-9.4-1.3-13.9-4l4.5-8.7c3.4,2.4,6.7,3.5,9.8,3.5s2.1-.2,2.8-.7c.7-.5,1.1-1.1,1.1-1.9s0-.8-.2-1.1c-.1-.3-.4-.6-.7-.8-.4-.2-.9-.5-1.6-.7-.7-.2-1.6-.4-2.8-.6-3.8-.8-6.5-1.9-8-3.4-1.5-1.5-2.3-3.6-2.3-6.3s.4-3.7,1.1-5.3c.7-1.6,1.8-2.9,3.1-4s3-1.9,4.9-2.5c1.9-.6,4.1-.9,6.4-.9,3.9,0,7.6.7,11.2,2.2l-4.1,8Z"/>
      <path class="st2" d="M-2101.6-208.2h-54.3v11.7h54.3c11.8,0,21.5,9.6,21.5,21.5s-9.6,21.5-21.5,21.5h-117.5v11.7h117.5c18.3,0,33.1-14.9,33.1-33.1s-14.9-33.1-33.1-33.1Z"/>
    </g>
  </g>
  <g>
    <path class="st2" d="M92.1-1612.5c0,7.2,3.4,10.8,10.2,10.8s6.4-1.5,8.2-4.4h16.2c-3.3,10.9-11.5,16.3-24.6,16.3s-7.7-.6-11-1.8c-3.3-1.2-6.2-2.9-8.6-5.1-2.4-2.2-4.2-4.9-5.5-8-1.3-3.1-1.9-6.5-1.9-10.4s.6-7.5,1.9-10.7c1.2-3.2,3-5.9,5.3-8.1,2.3-2.2,5.1-3.9,8.3-5.1,3.2-1.2,6.9-1.8,11-1.8s7.6.6,10.8,1.8c3.2,1.2,5.9,3,8.2,5.2,2.2,2.3,3.9,5.1,5.1,8.4,1.2,3.3,1.8,7,1.8,11.2v1.8h-35.3ZM111.8-1622.2c-.6-2.3-1.7-4.2-3.4-5.7-1.7-1.4-3.8-2.1-6.3-2.1s-4.7.7-6.3,2c-1.6,1.4-2.7,3.3-3.1,5.7h19.2Z"/>
    <path class="st2" d="M68-1627.1c-3.1-1.6-6.1-2.4-9.1-2.4s-2.8.3-3.8.9c-1,.6-1.4,1.5-1.4,2.5s0,1,.2,1.3.5.7,1,1c.5.3,1.3.6,2.3.8,1,.2,2.4.6,4,.9,4.6.9,8.1,2.6,10.4,5,2.3,2.4,3.4,5.4,3.4,9.1s-.6,5.3-1.7,7.5c-1.1,2.2-2.7,4.1-4.6,5.6-2,1.5-4.4,2.7-7.1,3.5-2.8.8-5.8,1.3-9.2,1.3-6.4,0-12.8-1.8-19-5.5l6.1-11.9c4.7,3.2,9.1,4.8,13.3,4.8s2.8-.3,3.8-1c1-.7,1.5-1.5,1.5-2.6s0-1.1-.2-1.5c-.2-.4-.5-.8-1-1.1-.5-.3-1.2-.6-2.2-.9-1-.3-2.2-.6-3.8-.9-5.2-1.1-8.8-2.6-10.9-4.7-2.1-2.1-3.1-4.9-3.1-8.6s.5-5.1,1.5-7.2c1-2.1,2.4-3.9,4.3-5.4s4.1-2.6,6.7-3.4c2.6-.8,5.5-1.2,8.8-1.2,5.2,0,10.3,1,15.3,3.1l-5.7,10.9Z"/>
    <path class="st2" d="M144.4-1612.5c0,7.2,3.4,10.8,10.2,10.8s6.4-1.5,8.2-4.4h16.2c-3.3,10.9-11.5,16.3-24.6,16.3s-7.7-.6-11-1.8c-3.3-1.2-6.2-2.9-8.6-5.1s-4.2-4.9-5.5-8c-1.3-3.1-1.9-6.5-1.9-10.4s.6-7.5,1.9-10.7c1.2-3.2,3-5.9,5.3-8.1,2.3-2.2,5.1-3.9,8.3-5.1,3.2-1.2,6.9-1.8,11-1.8s7.6.6,10.8,1.8c3.2,1.2,5.9,3,8.2,5.2,2.2,2.3,3.9,5.1,5.1,8.4,1.2,3.3,1.8,7,1.8,11.2v1.8h-35.3ZM164.1-1622.2c-.6-2.3-1.7-4.2-3.4-5.7-1.7-1.4-3.8-2.1-6.3-2.1s-4.7.7-6.3,2c-1.6,1.4-2.7,3.3-3.1,5.7h19.2Z"/>
    <path class="st2" d="M216.2-1664.3h19s0,72.9,0,72.9h-30.1c-8.2,0-14.5-2.1-18.8-6.3-4.4-4.2-6.5-10.2-6.6-18s2.2-13.7,6.5-18c4.3-4.3,10.6-6.4,18.8-6.4h11.2s0-24.2,0-24.2ZM216.3-1624.8h-6.3c-7,0-10.4,3.1-10.4,9.1s3.5,9.1,10.5,9.1h6.3s0-18.2,0-18.2Z"/>
    <path class="st1" d="M45.2-1586.3c-16.1,0-29.3-13.1-29.3-29.3s13.1-29.3,29.3-29.3h166.7v-15.9H45.2c-24.9,0-45.2,20.3-45.2,45.2s20.3,45.2,45.2,45.2h80.1v-15.9H45.2Z"/>
    <path class="st1" d="M34.6-1492.6H15.6v-72.9h30.2c8.2,0,14.5,2.1,18.8,6.4,4.4,4.3,6.5,10.2,6.5,18s-2.2,13.7-6.5,18c-4.4,4.3-10.6,6.4-18.8,6.4h-11.2v24.2ZM34.6-1532h6.3c7,0,10.4-3,10.4-9.1s-3.5-9.1-10.4-9.1h-6.3v18.2Z"/>
    <path class="st1" d="M110.1-1565h17.1v48.1h-17.1v-5.3c-3.6,4.6-8.5,6.8-14.7,6.8s-6.7-.6-9.7-1.9c-2.9-1.3-5.5-3.1-7.7-5.4-2.2-2.3-3.9-5-5.1-8.2-1.2-3.1-1.8-6.5-1.8-10.2s.6-6.7,1.8-9.8c1.2-3.1,2.8-5.8,5-8.1,2.1-2.3,4.7-4.1,7.6-5.5,2.9-1.3,6.2-2,9.7-2,6,0,11,2.1,14.9,6.3v-4.8ZM88.7-1541.1c0,1.6.3,3,.8,4.4.6,1.3,1.3,2.5,2.3,3.5,1,1,2.1,1.8,3.5,2.3,1.3.6,2.8.8,4.4.8s2.9-.3,4.3-.8c1.3-.6,2.5-1.3,3.5-2.3,1-1,1.7-2.2,2.3-3.5s.9-2.7.9-4.2-.3-2.9-.9-4.3c-.6-1.3-1.4-2.5-2.3-3.5-1-1-2.1-1.8-3.5-2.3-1.3-.6-2.8-.8-4.3-.8s-3,.3-4.4.8c-1.3.6-2.5,1.3-3.5,2.3-1,1-1.7,2.1-2.3,3.4-.6,1.3-.8,2.7-.8,4.2Z"/>
    <path class="st1" d="M161.6-1552.5c-3.1-1.6-6.1-2.4-9.1-2.4s-2.8.3-3.8.9c-1,.6-1.4,1.5-1.4,2.5s0,1,.2,1.3.5.7,1,1c.5.3,1.3.6,2.3.8,1,.2,2.4.6,4,.9,4.6.9,8.1,2.6,10.4,5,2.3,2.4,3.4,5.4,3.4,9.1s-.6,5.3-1.7,7.5c-1.1,2.2-2.7,4.1-4.6,5.6-2,1.5-4.4,2.7-7.1,3.5-2.8.8-5.8,1.3-9.2,1.3-6.4,0-12.8-1.8-19-5.5l6.1-11.9c4.7,3.2,9.1,4.8,13.3,4.8s2.8-.3,3.8-1c1-.7,1.5-1.5,1.5-2.6s0-1.1-.2-1.5c-.2-.4-.5-.8-1-1.1-.5-.3-1.2-.6-2.2-.9-1-.3-2.2-.6-3.8-.9-5.2-1.1-8.8-2.6-10.9-4.7-2.1-2.1-3.1-4.9-3.1-8.6s.5-5.1,1.5-7.2c1-2.1,2.4-3.9,4.3-5.4,1.9-1.5,4.1-2.6,6.7-3.4,2.6-.8,5.5-1.2,8.8-1.2,5.2,0,10.3,1,15.3,3.1l-5.7,10.9Z"/>
    <path class="st1" d="M203.2-1552.5c-3.1-1.6-6.1-2.4-9.1-2.4s-2.8.3-3.8.9c-1,.6-1.4,1.5-1.4,2.5s0,1,.2,1.3.5.7,1,1c.5.3,1.3.6,2.3.8,1,.2,2.4.6,4,.9,4.6.9,8.1,2.6,10.4,5,2.3,2.4,3.4,5.4,3.4,9.1s-.6,5.3-1.7,7.5c-1.1,2.2-2.7,4.1-4.6,5.6-2,1.5-4.4,2.7-7.1,3.5-2.8.8-5.8,1.3-9.2,1.3-6.4,0-12.8-1.8-19-5.5l6.1-11.9c4.7,3.2,9.1,4.8,13.3,4.8s2.8-.3,3.8-1c1-.7,1.5-1.5,1.5-2.6s0-1.1-.2-1.5c-.2-.4-.5-.8-1-1.1-.5-.3-1.2-.6-2.2-.9-1-.3-2.2-.6-3.8-.9-5.2-1.1-8.8-2.6-10.9-4.7-2.1-2.1-3.1-4.9-3.1-8.6s.5-5.1,1.5-7.2c1-2.1,2.4-3.9,4.3-5.4s4.1-2.6,6.7-3.4c2.6-.8,5.5-1.2,8.8-1.2,5.2,0,10.3,1,15.3,3.1l-5.7,10.9Z"/>
    <path class="st2" d="M199.3-1586.3h-74v15.9h74c16.1,0,29.3,13.1,29.3,29.3s-13.1,29.3-29.3,29.3H39v15.9h160.2c24.9,0,45.2-20.3,45.2-45.2s-20.3-45.2-45.2-45.2Z"/>
  </g>
  <g>
    <path d="M92.1,51.8c0,7.2,3.4,10.8,10.2,10.8s6.4-1.5,8.2-4.4h16.2c-3.3,10.9-11.5,16.3-24.6,16.3s-7.7-.6-11-1.8c-3.3-1.2-6.2-2.9-8.6-5.1s-4.2-4.9-5.5-8c-1.3-3.1-1.9-6.5-1.9-10.4s.6-7.5,1.9-10.7c1.2-3.2,3-5.9,5.3-8.1,2.3-2.2,5.1-3.9,8.3-5.1,3.2-1.2,6.9-1.8,11-1.8s7.6.6,10.8,1.8c3.2,1.2,5.9,3,8.2,5.2,2.2,2.3,3.9,5.1,5.1,8.4,1.2,3.3,1.8,7,1.8,11.2v1.8h-35.3ZM111.8,42.1c-.6-2.3-1.7-4.2-3.4-5.7-1.7-1.4-3.8-2.1-6.3-2.1s-4.7.7-6.3,2c-1.6,1.4-2.7,3.3-3.1,5.7h19.2Z"/>
    <path d="M68,37.2c-3.1-1.6-6.1-2.4-9.1-2.4s-2.8.3-3.8.9c-1,.6-1.4,1.5-1.4,2.5s0,1,.2,1.3.5.7,1,1c.5.3,1.3.6,2.3.8,1,.2,2.4.6,4,.9,4.6.9,8.1,2.6,10.4,5,2.3,2.4,3.4,5.4,3.4,9.1s-.6,5.3-1.7,7.5c-1.1,2.2-2.7,4.1-4.6,5.6-2,1.5-4.4,2.7-7.1,3.5-2.8.8-5.8,1.3-9.2,1.3-6.4,0-12.8-1.8-19-5.5l6.1-11.9c4.7,3.2,9.1,4.8,13.3,4.8s2.8-.3,3.8-1c1-.7,1.5-1.5,1.5-2.6s0-1.1-.2-1.5c-.2-.4-.5-.8-1-1.1-.5-.3-1.2-.6-2.2-.9-1-.3-2.2-.6-3.8-.9-5.2-1.1-8.8-2.6-10.9-4.7-2.1-2.1-3.1-4.9-3.1-8.6s.5-5.1,1.5-7.2c1-2.1,2.4-3.9,4.3-5.4s4.1-2.6,6.7-3.4c2.6-.8,5.5-1.2,8.8-1.2,5.2,0,10.3,1,15.3,3.1l-5.7,10.9Z"/>
    <path d="M144.4,51.8c0,7.2,3.4,10.8,10.2,10.8s6.4-1.5,8.2-4.4h16.2c-3.3,10.9-11.5,16.3-24.6,16.3s-7.7-.6-11-1.8c-3.3-1.2-6.2-2.9-8.6-5.1s-4.2-4.9-5.5-8c-1.3-3.1-1.9-6.5-1.9-10.4s.6-7.5,1.9-10.7c1.2-3.2,3-5.9,5.3-8.1,2.3-2.2,5.1-3.9,8.3-5.1,3.2-1.2,6.9-1.8,11-1.8s7.6.6,10.8,1.8c3.2,1.2,5.9,3,8.2,5.2,2.2,2.3,3.9,5.1,5.1,8.4,1.2,3.3,1.8,7,1.8,11.2v1.8h-35.3ZM164.1,42.1c-.6-2.3-1.7-4.2-3.4-5.7-1.7-1.4-3.8-2.1-6.3-2.1s-4.7.7-6.3,2c-1.6,1.4-2.7,3.3-3.1,5.7h19.2Z"/>
    <path d="M216.2,0h19s0,72.9,0,72.9h-30.1c-8.2,0-14.5-2.1-18.8-6.3-4.4-4.2-6.5-10.2-6.6-18,0-7.7,2.2-13.7,6.5-18,4.3-4.3,10.6-6.4,18.8-6.4h11.2s0-24.2,0-24.2ZM216.3,39.5h-6.3c-7,0-10.4,3.1-10.4,9.1,0,6.1,3.5,9.1,10.5,9.1h6.3s0-18.2,0-18.2Z"/>
    <path d="M45.2,78c-16.1,0-29.3-13.1-29.3-29.3s13.1-29.3,29.3-29.3h166.7V3.6H45.2C20.3,3.6,0,23.8,0,48.7s20.3,45.2,45.2,45.2h80.1v-15.9H45.2Z"/>
    <path d="M34.6,171.7H15.6v-72.9h30.2c8.2,0,14.5,2.1,18.8,6.4,4.4,4.3,6.5,10.2,6.5,18s-2.2,13.7-6.5,18c-4.4,4.3-10.6,6.4-18.8,6.4h-11.2v24.2ZM34.6,132.3h6.3c7,0,10.4-3,10.4-9.1s-3.5-9.1-10.4-9.1h-6.3v18.2Z"/>
    <path d="M110.1,99.3h17.1v48.1h-17.1v-5.3c-3.6,4.6-8.5,6.8-14.7,6.8s-6.7-.6-9.7-1.9c-2.9-1.3-5.5-3.1-7.7-5.4-2.2-2.3-3.9-5-5.1-8.2-1.2-3.1-1.8-6.5-1.8-10.2s.6-6.7,1.8-9.8c1.2-3.1,2.8-5.8,5-8.1,2.1-2.3,4.7-4.1,7.6-5.5,2.9-1.3,6.2-2,9.7-2,6,0,11,2.1,14.9,6.3v-4.8ZM88.7,123.2c0,1.6.3,3,.8,4.4.6,1.3,1.3,2.5,2.3,3.5,1,1,2.1,1.8,3.5,2.3,1.3.6,2.8.8,4.4.8s2.9-.3,4.3-.8c1.3-.6,2.5-1.3,3.5-2.3,1-1,1.7-2.2,2.3-3.5s.9-2.7.9-4.2-.3-2.9-.9-4.3c-.6-1.3-1.4-2.5-2.3-3.5-1-1-2.1-1.8-3.5-2.3-1.3-.6-2.8-.8-4.3-.8s-3,.3-4.4.8c-1.3.6-2.5,1.3-3.5,2.3-1,1-1.7,2.1-2.3,3.4-.6,1.3-.8,2.7-.8,4.2Z"/>
    <path d="M161.6,111.8c-3.1-1.6-6.1-2.4-9.1-2.4s-2.8.3-3.8.9c-1,.6-1.4,1.5-1.4,2.5s0,1,.2,1.3.5.7,1,1c.5.3,1.3.6,2.3.8,1,.2,2.4.6,4,.9,4.6.9,8.1,2.6,10.4,5,2.3,2.4,3.4,5.4,3.4,9.1s-.6,5.3-1.7,7.5c-1.1,2.2-2.7,4.1-4.6,5.6-2,1.5-4.4,2.7-7.1,3.5-2.8.8-5.8,1.3-9.2,1.3-6.4,0-12.8-1.8-19-5.5l6.1-11.9c4.7,3.2,9.1,4.8,13.3,4.8s2.8-.3,3.8-1c1-.7,1.5-1.5,1.5-2.6s0-1.1-.2-1.5c-.2-.4-.5-.8-1-1.1-.5-.3-1.2-.6-2.2-.9-1-.3-2.2-.6-3.8-.9-5.2-1.1-8.8-2.6-10.9-4.7-2.1-2.1-3.1-4.9-3.1-8.6s.5-5.1,1.5-7.2c1-2.1,2.4-3.9,4.3-5.4,1.9-1.5,4.1-2.6,6.7-3.4,2.6-.8,5.5-1.2,8.8-1.2,5.2,0,10.3,1,15.3,3.1l-5.7,10.9Z"/>
    <path d="M203.2,111.8c-3.1-1.6-6.1-2.4-9.1-2.4s-2.8.3-3.8.9c-1,.6-1.4,1.5-1.4,2.5s0,1,.2,1.3.5.7,1,1c.5.3,1.3.6,2.3.8,1,.2,2.4.6,4,.9,4.6.9,8.1,2.6,10.4,5,2.3,2.4,3.4,5.4,3.4,9.1s-.6,5.3-1.7,7.5c-1.1,2.2-2.7,4.1-4.6,5.6-2,1.5-4.4,2.7-7.1,3.5-2.8.8-5.8,1.3-9.2,1.3-6.4,0-12.8-1.8-19-5.5l6.1-11.9c4.7,3.2,9.1,4.8,13.3,4.8s2.8-.3,3.8-1c1-.7,1.5-1.5,1.5-2.6s0-1.1-.2-1.5c-.2-.4-.5-.8-1-1.1-.5-.3-1.2-.6-2.2-.9-1-.3-2.2-.6-3.8-.9-5.2-1.1-8.8-2.6-10.9-4.7-2.1-2.1-3.1-4.9-3.1-8.6s.5-5.1,1.5-7.2c1-2.1,2.4-3.9,4.3-5.4,1.9-1.5,4.1-2.6,6.7-3.4,2.6-.8,5.5-1.2,8.8-1.2,5.2,0,10.3,1,15.3,3.1l-5.7,10.9Z"/>
    <path d="M199.3,78h-74v15.9h74c16.1,0,29.3,13.1,29.3,29.3s-13.1,29.3-29.3,29.3H39v15.9h160.2c24.9,0,45.2-20.3,45.2-45.2s-20.3-45.2-45.2-45.2Z"/>
  </g>
  <g>
    <path class="st2" d="M92.1-225.6c0,7.2,3.4,10.8,10.2,10.8s6.4-1.5,8.2-4.4h16.2c-3.3,10.9-11.5,16.3-24.6,16.3s-7.7-.6-11-1.8c-3.3-1.2-6.2-2.9-8.6-5.1-2.4-2.2-4.2-4.9-5.5-8-1.3-3.1-1.9-6.5-1.9-10.4s.6-7.5,1.9-10.7c1.2-3.2,3-5.9,5.3-8.1,2.3-2.2,5.1-3.9,8.3-5.1,3.2-1.2,6.9-1.8,11-1.8s7.6.6,10.8,1.8c3.2,1.2,5.9,3,8.2,5.2,2.2,2.3,3.9,5.1,5.1,8.4,1.2,3.3,1.8,7,1.8,11.2v1.8h-35.3ZM111.8-235.3c-.6-2.3-1.7-4.2-3.4-5.7-1.7-1.4-3.8-2.1-6.3-2.1s-4.7.7-6.3,2c-1.6,1.4-2.7,3.3-3.1,5.7h19.2Z"/>
    <path class="st2" d="M68-240.2c-3.1-1.6-6.1-2.4-9.1-2.4s-2.8.3-3.8.9c-1,.6-1.4,1.5-1.4,2.5s0,1,.2,1.3.5.7,1,1c.5.3,1.3.6,2.3.8,1,.2,2.4.6,4,.9,4.6.9,8.1,2.6,10.4,5,2.3,2.4,3.4,5.4,3.4,9.1s-.6,5.3-1.7,7.5c-1.1,2.2-2.7,4.1-4.6,5.6-2,1.5-4.4,2.7-7.1,3.5-2.8.8-5.8,1.3-9.2,1.3-6.4,0-12.8-1.8-19-5.5l6.1-11.9c4.7,3.2,9.1,4.8,13.3,4.8s2.8-.3,3.8-1c1-.7,1.5-1.5,1.5-2.6s0-1.1-.2-1.5c-.2-.4-.5-.8-1-1.1-.5-.3-1.2-.6-2.2-.9-1-.3-2.2-.6-3.8-.9-5.2-1.1-8.8-2.6-10.9-4.7-2.1-2.1-3.1-4.9-3.1-8.6s.5-5.1,1.5-7.2c1-2.1,2.4-3.9,4.3-5.4s4.1-2.6,6.7-3.4c2.6-.8,5.5-1.2,8.8-1.2,5.2,0,10.3,1,15.3,3.1l-5.7,10.9Z"/>
    <path class="st2" d="M144.4-225.6c0,7.2,3.4,10.8,10.2,10.8s6.4-1.5,8.2-4.4h16.2c-3.3,10.9-11.5,16.3-24.6,16.3s-7.7-.6-11-1.8c-3.3-1.2-6.2-2.9-8.6-5.1s-4.2-4.9-5.5-8c-1.3-3.1-1.9-6.5-1.9-10.4s.6-7.5,1.9-10.7c1.2-3.2,3-5.9,5.3-8.1,2.3-2.2,5.1-3.9,8.3-5.1,3.2-1.2,6.9-1.8,11-1.8s7.6.6,10.8,1.8c3.2,1.2,5.9,3,8.2,5.2,2.2,2.3,3.9,5.1,5.1,8.4,1.2,3.3,1.8,7,1.8,11.2v1.8h-35.3ZM164.1-235.3c-.6-2.3-1.7-4.2-3.4-5.7-1.7-1.4-3.8-2.1-6.3-2.1s-4.7.7-6.3,2c-1.6,1.4-2.7,3.3-3.1,5.7h19.2Z"/>
    <path class="st2" d="M216.2-277.4h19s0,72.9,0,72.9h-30.1c-8.2,0-14.5-2.1-18.8-6.3-4.4-4.2-6.5-10.2-6.6-18,0-7.7,2.2-13.7,6.5-18,4.3-4.3,10.6-6.4,18.8-6.4h11.2s0-24.2,0-24.2ZM216.3-237.9h-6.3c-7,0-10.4,3.1-10.4,9.1s3.5,9.1,10.5,9.1h6.3s0-18.2,0-18.2Z"/>
    <path d="M45.2-199.4c-16.1,0-29.3-13.1-29.3-29.3s13.1-29.3,29.3-29.3h166.7v-15.9H45.2c-24.9,0-45.2,20.3-45.2,45.2s20.3,45.2,45.2,45.2h80.1v-15.9H45.2Z"/>
    <path d="M34.6-105.6H15.6v-72.9h30.2c8.2,0,14.5,2.1,18.8,6.4,4.4,4.3,6.5,10.2,6.5,18s-2.2,13.7-6.5,18c-4.4,4.3-10.6,6.4-18.8,6.4h-11.2v24.2ZM34.6-145.1h6.3c7,0,10.4-3,10.4-9.1s-3.5-9.1-10.4-9.1h-6.3v18.2Z"/>
    <path d="M110.1-178h17.1v48.1h-17.1v-5.3c-3.6,4.6-8.5,6.8-14.7,6.8s-6.7-.6-9.7-1.9c-2.9-1.3-5.5-3.1-7.7-5.4-2.2-2.3-3.9-5-5.1-8.2-1.2-3.1-1.8-6.5-1.8-10.2s.6-6.7,1.8-9.8c1.2-3.1,2.8-5.8,5-8.1,2.1-2.3,4.7-4.1,7.6-5.5,2.9-1.3,6.2-2,9.7-2,6,0,11,2.1,14.9,6.3v-4.8ZM88.7-154.1c0,1.6.3,3,.8,4.4.6,1.3,1.3,2.5,2.3,3.5,1,1,2.1,1.8,3.5,2.3,1.3.6,2.8.8,4.4.8s2.9-.3,4.3-.8c1.3-.6,2.5-1.3,3.5-2.3,1-1,1.7-2.2,2.3-3.5.6-1.3.9-2.7.9-4.2s-.3-2.9-.9-4.3c-.6-1.3-1.4-2.5-2.3-3.5-1-1-2.1-1.8-3.5-2.3-1.3-.6-2.8-.8-4.3-.8s-3,.3-4.4.8c-1.3.6-2.5,1.3-3.5,2.3-1,1-1.7,2.1-2.3,3.4-.6,1.3-.8,2.7-.8,4.2Z"/>
    <path d="M161.6-165.5c-3.1-1.6-6.1-2.4-9.1-2.4s-2.8.3-3.8.9c-1,.6-1.4,1.5-1.4,2.5s0,1,.2,1.3.5.7,1,1c.5.3,1.3.6,2.3.8,1,.2,2.4.6,4,.9,4.6.9,8.1,2.6,10.4,5,2.3,2.4,3.4,5.4,3.4,9.1s-.6,5.3-1.7,7.5c-1.1,2.2-2.7,4.1-4.6,5.6-2,1.5-4.4,2.7-7.1,3.5-2.8.8-5.8,1.3-9.2,1.3-6.4,0-12.8-1.8-19-5.5l6.1-11.9c4.7,3.2,9.1,4.8,13.3,4.8s2.8-.3,3.8-1c1-.7,1.5-1.5,1.5-2.6s0-1.1-.2-1.5c-.2-.4-.5-.8-1-1.1-.5-.3-1.2-.6-2.2-.9-1-.3-2.2-.6-3.8-.9-5.2-1.1-8.8-2.6-10.9-4.7-2.1-2.1-3.1-4.9-3.1-8.6s.5-5.1,1.5-7.2c1-2.1,2.4-3.9,4.3-5.4,1.9-1.5,4.1-2.6,6.7-3.4,2.6-.8,5.5-1.2,8.8-1.2,5.2,0,10.3,1,15.3,3.1l-5.7,10.9Z"/>
    <path d="M203.2-165.5c-3.1-1.6-6.1-2.4-9.1-2.4s-2.8.3-3.8.9c-1,.6-1.4,1.5-1.4,2.5s0,1,.2,1.3.5.7,1,1c.5.3,1.3.6,2.3.8,1,.2,2.4.6,4,.9,4.6.9,8.1,2.6,10.4,5,2.3,2.4,3.4,5.4,3.4,9.1s-.6,5.3-1.7,7.5c-1.1,2.2-2.7,4.1-4.6,5.6-2,1.5-4.4,2.7-7.1,3.5-2.8.8-5.8,1.3-9.2,1.3-6.4,0-12.8-1.8-19-5.5l6.1-11.9c4.7,3.2,9.1,4.8,13.3,4.8s2.8-.3,3.8-1c1-.7,1.5-1.5,1.5-2.6s0-1.1-.2-1.5c-.2-.4-.5-.8-1-1.1-.5-.3-1.2-.6-2.2-.9-1-.3-2.2-.6-3.8-.9-5.2-1.1-8.8-2.6-10.9-4.7-2.1-2.1-3.1-4.9-3.1-8.6s.5-5.1,1.5-7.2c1-2.1,2.4-3.9,4.3-5.4,1.9-1.5,4.1-2.6,6.7-3.4,2.6-.8,5.5-1.2,8.8-1.2,5.2,0,10.3,1,15.3,3.1l-5.7,10.9Z"/>
    <path class="st2" d="M199.3-199.4h-74v15.9h74c16.1,0,29.3,13.1,29.3,29.3s-13.1,29.3-29.3,29.3H39v15.9h160.2c24.9,0,45.2-20.3,45.2-45.2s-20.3-45.2-45.2-45.2Z"/>
  </g>
  <g>
    <path class="st2" d="M92.1-780.4c0,7.2,3.4,10.8,10.2,10.8s6.4-1.5,8.2-4.4h16.2c-3.3,10.9-11.5,16.3-24.6,16.3s-7.7-.6-11-1.8c-3.3-1.2-6.2-2.9-8.6-5.1-2.4-2.2-4.2-4.9-5.5-8-1.3-3.1-1.9-6.5-1.9-10.4s.6-7.5,1.9-10.7c1.2-3.2,3-5.9,5.3-8.1,2.3-2.2,5.1-3.9,8.3-5.1,3.2-1.2,6.9-1.8,11-1.8s7.6.6,10.8,1.8c3.2,1.2,5.9,3,8.2,5.2,2.2,2.3,3.9,5.1,5.1,8.4,1.2,3.3,1.8,7,1.8,11.2v1.8h-35.3ZM111.8-790.1c-.6-2.3-1.7-4.2-3.4-5.7-1.7-1.4-3.8-2.1-6.3-2.1s-4.7.7-6.3,2c-1.6,1.4-2.7,3.3-3.1,5.7h19.2Z"/>
    <path class="st2" d="M68-794.9c-3.1-1.6-6.1-2.4-9.1-2.4s-2.8.3-3.8.9c-1,.6-1.4,1.5-1.4,2.5s0,1,.2,1.3.5.7,1,1c.5.3,1.3.6,2.3.8,1,.2,2.4.6,4,.9,4.6.9,8.1,2.6,10.4,5,2.3,2.4,3.4,5.4,3.4,9.1s-.6,5.3-1.7,7.5c-1.1,2.2-2.7,4.1-4.6,5.6-2,1.5-4.4,2.7-7.1,3.5-2.8.8-5.8,1.3-9.2,1.3-6.4,0-12.8-1.8-19-5.5l6.1-11.9c4.7,3.2,9.1,4.8,13.3,4.8s2.8-.3,3.8-1c1-.7,1.5-1.5,1.5-2.6s0-1.1-.2-1.5c-.2-.4-.5-.8-1-1.1-.5-.3-1.2-.6-2.2-.9-1-.3-2.2-.6-3.8-.9-5.2-1.1-8.8-2.6-10.9-4.7-2.1-2.1-3.1-4.9-3.1-8.6s.5-5.1,1.5-7.2c1-2.1,2.4-3.9,4.3-5.4,1.9-1.5,4.1-2.6,6.7-3.4,2.6-.8,5.5-1.2,8.8-1.2,5.2,0,10.3,1,15.3,3.1l-5.7,10.9Z"/>
    <path class="st2" d="M144.4-780.4c0,7.2,3.4,10.8,10.2,10.8s6.4-1.5,8.2-4.4h16.2c-3.3,10.9-11.5,16.3-24.6,16.3s-7.7-.6-11-1.8c-3.3-1.2-6.2-2.9-8.6-5.1s-4.2-4.9-5.5-8c-1.3-3.1-1.9-6.5-1.9-10.4s.6-7.5,1.9-10.7c1.2-3.2,3-5.9,5.3-8.1,2.3-2.2,5.1-3.9,8.3-5.1,3.2-1.2,6.9-1.8,11-1.8s7.6.6,10.8,1.8c3.2,1.2,5.9,3,8.2,5.2,2.2,2.3,3.9,5.1,5.1,8.4,1.2,3.3,1.8,7,1.8,11.2v1.8h-35.3ZM164.1-790.1c-.6-2.3-1.7-4.2-3.4-5.7-1.7-1.4-3.8-2.1-6.3-2.1s-4.7.7-6.3,2c-1.6,1.4-2.7,3.3-3.1,5.7h19.2Z"/>
    <path class="st2" d="M216.2-832.1h19s0,72.9,0,72.9h-30.1c-8.2,0-14.5-2.1-18.8-6.3-4.4-4.2-6.5-10.2-6.6-18,0-7.7,2.2-13.7,6.5-18,4.3-4.3,10.6-6.4,18.8-6.4h11.2s0-24.2,0-24.2ZM216.3-792.7h-6.3c-7,0-10.4,3.1-10.4,9.1s3.5,9.1,10.5,9.1h6.3s0-18.2,0-18.2Z"/>
    <path class="st2" d="M45.2-754.2c-16.1,0-29.3-13.1-29.3-29.3s13.1-29.3,29.3-29.3h166.7v-15.9H45.2c-24.9,0-45.2,20.3-45.2,45.2s20.3,45.2,45.2,45.2h80.1v-15.9H45.2Z"/>
    <g>
      <path class="st2" d="M34.6-660.4H15.6v-72.9h30.2c8.2,0,14.5,2.1,18.8,6.4,4.4,4.3,6.5,10.2,6.5,18s-2.2,13.7-6.5,18c-4.4,4.3-10.6,6.4-18.8,6.4h-11.2v24.2ZM34.6-699.9h6.3c7,0,10.4-3,10.4-9.1s-3.5-9.1-10.4-9.1h-6.3v18.2Z"/>
      <path class="st2" d="M110.1-732.8h17.1v48.1h-17.1v-5.3c-3.6,4.6-8.5,6.8-14.7,6.8s-6.7-.6-9.7-1.9c-2.9-1.3-5.5-3.1-7.7-5.4-2.2-2.3-3.9-5-5.1-8.2-1.2-3.1-1.8-6.5-1.8-10.2s.6-6.7,1.8-9.8c1.2-3.1,2.8-5.8,5-8.1,2.1-2.3,4.7-4.1,7.6-5.5,2.9-1.3,6.2-2,9.7-2,6,0,11,2.1,14.9,6.3v-4.8ZM88.7-708.9c0,1.6.3,3,.8,4.4.6,1.3,1.3,2.5,2.3,3.5,1,1,2.1,1.8,3.5,2.3,1.3.6,2.8.8,4.4.8s2.9-.3,4.3-.8c1.3-.6,2.5-1.3,3.5-2.3,1-1,1.7-2.2,2.3-3.5s.9-2.7.9-4.2-.3-2.9-.9-4.3c-.6-1.3-1.4-2.5-2.3-3.5-1-1-2.1-1.8-3.5-2.3-1.3-.6-2.8-.8-4.3-.8s-3,.3-4.4.8c-1.3.6-2.5,1.3-3.5,2.3-1,1-1.7,2.1-2.3,3.4-.6,1.3-.8,2.7-.8,4.2Z"/>
      <path class="st2" d="M161.6-720.3c-3.1-1.6-6.1-2.4-9.1-2.4s-2.8.3-3.8.9c-1,.6-1.4,1.5-1.4,2.5s0,1,.2,1.3.5.7,1,1c.5.3,1.3.6,2.3.8,1,.2,2.4.6,4,.9,4.6.9,8.1,2.6,10.4,5,2.3,2.4,3.4,5.4,3.4,9.1s-.6,5.3-1.7,7.5c-1.1,2.2-2.7,4.1-4.6,5.6-2,1.5-4.4,2.7-7.1,3.5-2.8.8-5.8,1.3-9.2,1.3-6.4,0-12.8-1.8-19-5.5l6.1-11.9c4.7,3.2,9.1,4.8,13.3,4.8s2.8-.3,3.8-1c1-.7,1.5-1.5,1.5-2.6s0-1.1-.2-1.5c-.2-.4-.5-.8-1-1.1-.5-.3-1.2-.6-2.2-.9-1-.3-2.2-.6-3.8-.9-5.2-1.1-8.8-2.6-10.9-4.7-2.1-2.1-3.1-4.9-3.1-8.6s.5-5.1,1.5-7.2c1-2.1,2.4-3.9,4.3-5.4,1.9-1.5,4.1-2.6,6.7-3.4,2.6-.8,5.5-1.2,8.8-1.2,5.2,0,10.3,1,15.3,3.1l-5.7,10.9Z"/>
      <path class="st2" d="M203.2-720.3c-3.1-1.6-6.1-2.4-9.1-2.4s-2.8.3-3.8.9c-1,.6-1.4,1.5-1.4,2.5s0,1,.2,1.3.5.7,1,1c.5.3,1.3.6,2.3.8,1,.2,2.4.6,4,.9,4.6.9,8.1,2.6,10.4,5,2.3,2.4,3.4,5.4,3.4,9.1s-.6,5.3-1.7,7.5c-1.1,2.2-2.7,4.1-4.6,5.6-2,1.5-4.4,2.7-7.1,3.5-2.8.8-5.8,1.3-9.2,1.3-6.4,0-12.8-1.8-19-5.5l6.1-11.9c4.7,3.2,9.1,4.8,13.3,4.8s2.8-.3,3.8-1c1-.7,1.5-1.5,1.5-2.6s0-1.1-.2-1.5c-.2-.4-.5-.8-1-1.1-.5-.3-1.2-.6-2.2-.9-1-.3-2.2-.6-3.8-.9-5.2-1.1-8.8-2.6-10.9-4.7-2.1-2.1-3.1-4.9-3.1-8.6s.5-5.1,1.5-7.2c1-2.1,2.4-3.9,4.3-5.4s4.1-2.6,6.7-3.4c2.6-.8,5.5-1.2,8.8-1.2,5.2,0,10.3,1,15.3,3.1l-5.7,10.9Z"/>
      <path class="st2" d="M199.3-754.2h-74v15.9h74c16.1,0,29.3,13.1,29.3,29.3s-13.1,29.3-29.3,29.3H39v15.9h160.2c24.9,0,45.2-20.3,45.2-45.2s-20.3-45.2-45.2-45.2Z"/>
    </g>
  </g>
  <g>
    <path class="st1" d="M92.1-1057.7c0,7.2,3.4,10.8,10.2,10.8s6.4-1.5,8.2-4.4h16.2c-3.3,10.9-11.5,16.3-24.6,16.3s-7.7-.6-11-1.8c-3.3-1.2-6.2-2.9-8.6-5.1-2.4-2.2-4.2-4.9-5.5-8-1.3-3.1-1.9-6.5-1.9-10.4s.6-7.5,1.9-10.7c1.2-3.2,3-5.9,5.3-8.1,2.3-2.2,5.1-3.9,8.3-5.1,3.2-1.2,6.9-1.8,11-1.8s7.6.6,10.8,1.8c3.2,1.2,5.9,3,8.2,5.2,2.2,2.3,3.9,5.1,5.1,8.4,1.2,3.3,1.8,7,1.8,11.2v1.8h-35.3ZM111.8-1067.5c-.6-2.3-1.7-4.2-3.4-5.7-1.7-1.4-3.8-2.1-6.3-2.1s-4.7.7-6.3,2c-1.6,1.4-2.7,3.3-3.1,5.7h19.2Z"/>
    <path class="st1" d="M68-1072.3c-3.1-1.6-6.1-2.4-9.1-2.4s-2.8.3-3.8.9c-1,.6-1.4,1.5-1.4,2.5s0,1,.2,1.3.5.7,1,1c.5.3,1.3.6,2.3.8,1,.2,2.4.6,4,.9,4.6.9,8.1,2.6,10.4,5,2.3,2.4,3.4,5.4,3.4,9.1s-.6,5.3-1.7,7.5c-1.1,2.2-2.7,4.1-4.6,5.6-2,1.5-4.4,2.7-7.1,3.5-2.8.8-5.8,1.3-9.2,1.3-6.4,0-12.8-1.8-19-5.5l6.1-11.9c4.7,3.2,9.1,4.8,13.3,4.8s2.8-.3,3.8-1c1-.7,1.5-1.5,1.5-2.6s0-1.1-.2-1.5c-.2-.4-.5-.8-1-1.1-.5-.3-1.2-.6-2.2-.9-1-.3-2.2-.6-3.8-.9-5.2-1.1-8.8-2.6-10.9-4.7-2.1-2.1-3.1-4.9-3.1-8.6s.5-5.1,1.5-7.2c1-2.1,2.4-3.9,4.3-5.4s4.1-2.6,6.7-3.4c2.6-.8,5.5-1.2,8.8-1.2,5.2,0,10.3,1,15.3,3.1l-5.7,10.9Z"/>
    <path class="st1" d="M144.4-1057.7c0,7.2,3.4,10.8,10.2,10.8s6.4-1.5,8.2-4.4h16.2c-3.3,10.9-11.5,16.3-24.6,16.3s-7.7-.6-11-1.8c-3.3-1.2-6.2-2.9-8.6-5.1s-4.2-4.9-5.5-8c-1.3-3.1-1.9-6.5-1.9-10.4s.6-7.5,1.9-10.7c1.2-3.2,3-5.9,5.3-8.1,2.3-2.2,5.1-3.9,8.3-5.1,3.2-1.2,6.9-1.8,11-1.8s7.6.6,10.8,1.8c3.2,1.2,5.9,3,8.2,5.2,2.2,2.3,3.9,5.1,5.1,8.4,1.2,3.3,1.8,7,1.8,11.2v1.8h-35.3ZM164.1-1067.5c-.6-2.3-1.7-4.2-3.4-5.7-1.7-1.4-3.8-2.1-6.3-2.1s-4.7.7-6.3,2c-1.6,1.4-2.7,3.3-3.1,5.7h19.2Z"/>
    <path class="st1" d="M216.2-1109.5h19s0,72.9,0,72.9h-30.1c-8.2,0-14.5-2.1-18.8-6.3-4.4-4.2-6.5-10.2-6.6-18,0-7.7,2.2-13.7,6.5-18,4.3-4.3,10.6-6.4,18.8-6.4h11.2s0-24.2,0-24.2ZM216.3-1070.1h-6.3c-7,0-10.4,3.1-10.4,9.1s3.5,9.1,10.5,9.1h6.3s0-18.2,0-18.2Z"/>
    <path class="st1" d="M45.2-1031.5c-16.1,0-29.3-13.1-29.3-29.3s13.1-29.3,29.3-29.3h166.7v-15.9H45.2c-24.9,0-45.2,20.3-45.2,45.2s20.3,45.2,45.2,45.2h80.1v-15.9H45.2Z"/>
    <g>
      <path class="st1" d="M34.6-937.8H15.6v-72.9h30.2c8.2,0,14.5,2.1,18.8,6.4,4.4,4.3,6.5,10.2,6.5,18s-2.2,13.7-6.5,18c-4.4,4.3-10.6,6.4-18.8,6.4h-11.2v24.2ZM34.6-977.3h6.3c7,0,10.4-3,10.4-9.1s-3.5-9.1-10.4-9.1h-6.3v18.2Z"/>
      <path class="st1" d="M110.1-1010.2h17.1v48.1h-17.1v-5.3c-3.6,4.6-8.5,6.8-14.7,6.8s-6.7-.6-9.7-1.9c-2.9-1.3-5.5-3.1-7.7-5.4-2.2-2.3-3.9-5-5.1-8.2-1.2-3.1-1.8-6.5-1.8-10.2s.6-6.7,1.8-9.8c1.2-3.1,2.8-5.8,5-8.1,2.1-2.3,4.7-4.1,7.6-5.5,2.9-1.3,6.2-2,9.7-2,6,0,11,2.1,14.9,6.3v-4.8ZM88.7-986.3c0,1.6.3,3,.8,4.4.6,1.3,1.3,2.5,2.3,3.5,1,1,2.1,1.8,3.5,2.3,1.3.6,2.8.8,4.4.8s2.9-.3,4.3-.8c1.3-.6,2.5-1.3,3.5-2.3,1-1,1.7-2.2,2.3-3.5.6-1.3.9-2.7.9-4.2s-.3-2.9-.9-4.3c-.6-1.3-1.4-2.5-2.3-3.5-1-1-2.1-1.8-3.5-2.3-1.3-.6-2.8-.8-4.3-.8s-3,.3-4.4.8c-1.3.6-2.5,1.3-3.5,2.3-1,1-1.7,2.1-2.3,3.4-.6,1.3-.8,2.7-.8,4.2Z"/>
      <path class="st1" d="M161.6-997.7c-3.1-1.6-6.1-2.4-9.1-2.4s-2.8.3-3.8.9c-1,.6-1.4,1.5-1.4,2.5s0,1,.2,1.3.5.7,1,1c.5.3,1.3.6,2.3.8,1,.2,2.4.6,4,.9,4.6.9,8.1,2.6,10.4,5,2.3,2.4,3.4,5.4,3.4,9.1s-.6,5.3-1.7,7.5c-1.1,2.2-2.7,4.1-4.6,5.6-2,1.5-4.4,2.7-7.1,3.5-2.8.8-5.8,1.3-9.2,1.3-6.4,0-12.8-1.8-19-5.5l6.1-11.9c4.7,3.2,9.1,4.8,13.3,4.8s2.8-.3,3.8-1c1-.7,1.5-1.5,1.5-2.6s0-1.1-.2-1.5c-.2-.4-.5-.8-1-1.1-.5-.3-1.2-.6-2.2-.9-1-.3-2.2-.6-3.8-.9-5.2-1.1-8.8-2.6-10.9-4.7-2.1-2.1-3.1-4.9-3.1-8.6s.5-5.1,1.5-7.2c1-2.1,2.4-3.9,4.3-5.4,1.9-1.5,4.1-2.6,6.7-3.4,2.6-.8,5.5-1.2,8.8-1.2,5.2,0,10.3,1,15.3,3.1l-5.7,10.9Z"/>
      <path class="st1" d="M203.2-997.7c-3.1-1.6-6.1-2.4-9.1-2.4s-2.8.3-3.8.9c-1,.6-1.4,1.5-1.4,2.5s0,1,.2,1.3.5.7,1,1c.5.3,1.3.6,2.3.8,1,.2,2.4.6,4,.9,4.6.9,8.1,2.6,10.4,5,2.3,2.4,3.4,5.4,3.4,9.1s-.6,5.3-1.7,7.5c-1.1,2.2-2.7,4.1-4.6,5.6-2,1.5-4.4,2.7-7.1,3.5-2.8.8-5.8,1.3-9.2,1.3-6.4,0-12.8-1.8-19-5.5l6.1-11.9c4.7,3.2,9.1,4.8,13.3,4.8s2.8-.3,3.8-1c1-.7,1.5-1.5,1.5-2.6s0-1.1-.2-1.5c-.2-.4-.5-.8-1-1.1-.5-.3-1.2-.6-2.2-.9-1-.3-2.2-.6-3.8-.9-5.2-1.1-8.8-2.6-10.9-4.7-2.1-2.1-3.1-4.9-3.1-8.6s.5-5.1,1.5-7.2c1-2.1,2.4-3.9,4.3-5.4,1.9-1.5,4.1-2.6,6.7-3.4,2.6-.8,5.5-1.2,8.8-1.2,5.2,0,10.3,1,15.3,3.1l-5.7,10.9Z"/>
      <path class="st1" d="M199.3-1031.5h-74v15.9h74c16.1,0,29.3,13.1,29.3,29.3s-13.1,29.3-29.3,29.3H39v15.9h160.2c24.9,0,45.2-20.3,45.2-45.2s-20.3-45.2-45.2-45.2Z"/>
    </g>
  </g>
  <g>
    <path class="st0" d="M92.1-503c0,7.2,3.4,10.8,10.2,10.8s6.4-1.5,8.2-4.4h16.2c-3.3,10.9-11.5,16.3-24.6,16.3s-7.7-.6-11-1.8c-3.3-1.2-6.2-2.9-8.6-5.1-2.4-2.2-4.2-4.9-5.5-8-1.3-3.1-1.9-6.5-1.9-10.4s.6-7.5,1.9-10.7c1.2-3.2,3-5.9,5.3-8.1,2.3-2.2,5.1-3.9,8.3-5.1,3.2-1.2,6.9-1.8,11-1.8s7.6.6,10.8,1.8c3.2,1.2,5.9,3,8.2,5.2,2.2,2.3,3.9,5.1,5.1,8.4,1.2,3.3,1.8,7,1.8,11.2v1.8h-35.3ZM111.8-512.7c-.6-2.3-1.7-4.2-3.4-5.7-1.7-1.4-3.8-2.1-6.3-2.1s-4.7.7-6.3,2c-1.6,1.4-2.7,3.3-3.1,5.7h19.2Z"/>
    <path class="st0" d="M68-517.6c-3.1-1.6-6.1-2.4-9.1-2.4s-2.8.3-3.8.9c-1,.6-1.4,1.5-1.4,2.5s0,1,.2,1.3.5.7,1,1c.5.3,1.3.6,2.3.8,1,.2,2.4.6,4,.9,4.6.9,8.1,2.6,10.4,5,2.3,2.4,3.4,5.4,3.4,9.1s-.6,5.3-1.7,7.5c-1.1,2.2-2.7,4.1-4.6,5.6-2,1.5-4.4,2.7-7.1,3.5-2.8.8-5.8,1.3-9.2,1.3-6.4,0-12.8-1.8-19-5.5l6.1-11.9c4.7,3.2,9.1,4.8,13.3,4.8s2.8-.3,3.8-1c1-.7,1.5-1.5,1.5-2.6s0-1.1-.2-1.5c-.2-.4-.5-.8-1-1.1-.5-.3-1.2-.6-2.2-.9-1-.3-2.2-.6-3.8-.9-5.2-1.1-8.8-2.6-10.9-4.7-2.1-2.1-3.1-4.9-3.1-8.6s.5-5.1,1.5-7.2c1-2.1,2.4-3.9,4.3-5.4s4.1-2.6,6.7-3.4c2.6-.8,5.5-1.2,8.8-1.2,5.2,0,10.3,1,15.3,3.1l-5.7,10.9Z"/>
    <path class="st0" d="M144.4-503c0,7.2,3.4,10.8,10.2,10.8s6.4-1.5,8.2-4.4h16.2c-3.3,10.9-11.5,16.3-24.6,16.3s-7.7-.6-11-1.8c-3.3-1.2-6.2-2.9-8.6-5.1s-4.2-4.9-5.5-8c-1.3-3.1-1.9-6.5-1.9-10.4s.6-7.5,1.9-10.7c1.2-3.2,3-5.9,5.3-8.1,2.3-2.2,5.1-3.9,8.3-5.1,3.2-1.2,6.9-1.8,11-1.8s7.6.6,10.8,1.8c3.2,1.2,5.9,3,8.2,5.2,2.2,2.3,3.9,5.1,5.1,8.4,1.2,3.3,1.8,7,1.8,11.2v1.8h-35.3ZM164.1-512.7c-.6-2.3-1.7-4.2-3.4-5.7-1.7-1.4-3.8-2.1-6.3-2.1s-4.7.7-6.3,2c-1.6,1.4-2.7,3.3-3.1,5.7h19.2Z"/>
    <path class="st0" d="M216.2-554.7h19s0,72.9,0,72.9h-30.1c-8.2,0-14.5-2.1-18.8-6.3-4.4-4.2-6.5-10.2-6.6-18,0-7.7,2.2-13.7,6.5-18,4.3-4.3,10.6-6.4,18.8-6.4h11.2s0-24.2,0-24.2ZM216.3-515.3h-6.3c-7,0-10.4,3.1-10.4,9.1s3.5,9.1,10.5,9.1h6.3s0-18.2,0-18.2Z"/>
    <path class="st0" d="M45.2-476.8c-16.1,0-29.3-13.1-29.3-29.3s13.1-29.3,29.3-29.3h166.7v-15.9H45.2c-24.9,0-45.2,20.3-45.2,45.2s20.3,45.2,45.2,45.2h80.1v-15.9H45.2Z"/>
    <g>
      <path class="st0" d="M34.6-383H15.6v-72.9h30.2c8.2,0,14.5,2.1,18.8,6.4,4.4,4.3,6.5,10.2,6.5,18s-2.2,13.7-6.5,18c-4.4,4.3-10.6,6.4-18.8,6.4h-11.2v24.2ZM34.6-422.5h6.3c7,0,10.4-3,10.4-9.1s-3.5-9.1-10.4-9.1h-6.3v18.2Z"/>
      <path class="st0" d="M110.1-455.4h17.1v48.1h-17.1v-5.3c-3.6,4.6-8.5,6.8-14.7,6.8s-6.7-.6-9.7-1.9c-2.9-1.3-5.5-3.1-7.7-5.4-2.2-2.3-3.9-5-5.1-8.2-1.2-3.1-1.8-6.5-1.8-10.2s.6-6.7,1.8-9.8c1.2-3.1,2.8-5.8,5-8.1,2.1-2.3,4.7-4.1,7.6-5.5,2.9-1.3,6.2-2,9.7-2,6,0,11,2.1,14.9,6.3v-4.8ZM88.7-431.5c0,1.6.3,3,.8,4.4.6,1.3,1.3,2.5,2.3,3.5,1,1,2.1,1.8,3.5,2.3,1.3.6,2.8.8,4.4.8s2.9-.3,4.3-.8c1.3-.6,2.5-1.3,3.5-2.3,1-1,1.7-2.2,2.3-3.5s.9-2.7.9-4.2-.3-2.9-.9-4.3c-.6-1.3-1.4-2.5-2.3-3.5-1-1-2.1-1.8-3.5-2.3-1.3-.6-2.8-.8-4.3-.8s-3,.3-4.4.8c-1.3.6-2.5,1.3-3.5,2.3-1,1-1.7,2.1-2.3,3.4-.6,1.3-.8,2.7-.8,4.2Z"/>
      <path class="st0" d="M161.6-442.9c-3.1-1.6-6.1-2.4-9.1-2.4s-2.8.3-3.8.9c-1,.6-1.4,1.5-1.4,2.5s0,1,.2,1.3.5.7,1,1c.5.3,1.3.6,2.3.8,1,.2,2.4.6,4,.9,4.6.9,8.1,2.6,10.4,5,2.3,2.4,3.4,5.4,3.4,9.1s-.6,5.3-1.7,7.5c-1.1,2.2-2.7,4.1-4.6,5.6-2,1.5-4.4,2.7-7.1,3.5-2.8.8-5.8,1.3-9.2,1.3-6.4,0-12.8-1.8-19-5.5l6.1-11.9c4.7,3.2,9.1,4.8,13.3,4.8s2.8-.3,3.8-1c1-.7,1.5-1.5,1.5-2.6s0-1.1-.2-1.5c-.2-.4-.5-.8-1-1.1-.5-.3-1.2-.6-2.2-.9-1-.3-2.2-.6-3.8-.9-5.2-1.1-8.8-2.6-10.9-4.7-2.1-2.1-3.1-4.9-3.1-8.6s.5-5.1,1.5-7.2c1-2.1,2.4-3.9,4.3-5.4,1.9-1.5,4.1-2.6,6.7-3.4,2.6-.8,5.5-1.2,8.8-1.2,5.2,0,10.3,1,15.3,3.1l-5.7,10.9Z"/>
      <path class="st0" d="M203.2-442.9c-3.1-1.6-6.1-2.4-9.1-2.4s-2.8.3-3.8.9c-1,.6-1.4,1.5-1.4,2.5s0,1,.2,1.3.5.7,1,1c.5.3,1.3.6,2.3.8,1,.2,2.4.6,4,.9,4.6.9,8.1,2.6,10.4,5,2.3,2.4,3.4,5.4,3.4,9.1s-.6,5.3-1.7,7.5c-1.1,2.2-2.7,4.1-4.6,5.6-2,1.5-4.4,2.7-7.1,3.5-2.8.8-5.8,1.3-9.2,1.3-6.4,0-12.8-1.8-19-5.5l6.1-11.9c4.7,3.2,9.1,4.8,13.3,4.8s2.8-.3,3.8-1c1-.7,1.5-1.5,1.5-2.6s0-1.1-.2-1.5c-.2-.4-.5-.8-1-1.1-.5-.3-1.2-.6-2.2-.9-1-.3-2.2-.6-3.8-.9-5.2-1.1-8.8-2.6-10.9-4.7-2.1-2.1-3.1-4.9-3.1-8.6s.5-5.1,1.5-7.2c1-2.1,2.4-3.9,4.3-5.4s4.1-2.6,6.7-3.4c2.6-.8,5.5-1.2,8.8-1.2,5.2,0,10.3,1,15.3,3.1l-5.7,10.9Z"/>
      <path class="st0" d="M199.3-476.8h-74v15.9h74c16.1,0,29.3,13.1,29.3,29.3s-13.1,29.3-29.3,29.3H39v15.9h160.2c24.9,0,45.2-20.3,45.2-45.2s-20.3-45.2-45.2-45.2Z"/>
    </g>
  </g>
  <g>
    <path class="st2" d="M-639.6-1464c0,7.2,3.4,10.8,10.2,10.8s6.4-1.5,8.2-4.4h16.2c-3.3,10.9-11.5,16.3-24.6,16.3s-7.7-.6-11-1.8c-3.3-1.2-6.2-2.9-8.6-5.1-2.4-2.2-4.2-4.9-5.5-8-1.3-3.1-1.9-6.5-1.9-10.4s.6-7.5,1.9-10.7c1.2-3.2,3-5.9,5.3-8.1,2.3-2.2,5.1-3.9,8.3-5.1,3.2-1.2,6.9-1.8,11-1.8s7.6.6,10.8,1.8c3.2,1.2,5.9,3,8.2,5.2,2.2,2.3,3.9,5.1,5.1,8.4,1.2,3.3,1.8,7,1.8,11.2v1.8h-35.3ZM-620-1473.7c-.6-2.3-1.7-4.2-3.4-5.7-1.7-1.4-3.8-2.1-6.3-2.1s-4.7.7-6.3,2c-1.6,1.4-2.7,3.3-3.1,5.7h19.2Z"/>
    <path class="st2" d="M-663.7-1478.6c-3.1-1.6-6.1-2.4-9.1-2.4s-2.8.3-3.8.9c-1,.6-1.4,1.5-1.4,2.5s0,1,.2,1.3.5.7,1,1c.5.3,1.3.6,2.3.8,1,.2,2.4.6,4,.9,4.6.9,8.1,2.6,10.4,5,2.3,2.4,3.4,5.4,3.4,9.1s-.6,5.3-1.7,7.5c-1.1,2.2-2.7,4.1-4.6,5.6-2,1.5-4.4,2.7-7.1,3.5-2.8.8-5.8,1.3-9.2,1.3-6.4,0-12.8-1.8-19-5.5l6.1-11.9c4.7,3.2,9.1,4.8,13.3,4.8s2.8-.3,3.8-1c1-.7,1.5-1.5,1.5-2.6s0-1.1-.2-1.5c-.2-.4-.5-.8-1-1.1-.5-.3-1.2-.6-2.2-.9-1-.3-2.2-.6-3.8-.9-5.2-1.1-8.8-2.6-10.9-4.7-2.1-2.1-3.1-4.9-3.1-8.6s.5-5.1,1.5-7.2c1-2.1,2.4-3.9,4.3-5.4s4.1-2.6,6.7-3.4c2.6-.8,5.5-1.2,8.8-1.2,5.2,0,10.3,1,15.3,3.1l-5.7,10.9Z"/>
    <path class="st2" d="M-587.3-1464c0,7.2,3.4,10.8,10.2,10.8s6.4-1.5,8.2-4.4h16.2c-3.3,10.9-11.5,16.3-24.6,16.3s-7.7-.6-11-1.8c-3.3-1.2-6.2-2.9-8.6-5.1-2.4-2.2-4.2-4.9-5.5-8-1.3-3.1-1.9-6.5-1.9-10.4s.6-7.5,1.9-10.7c1.2-3.2,3-5.9,5.3-8.1,2.3-2.2,5.1-3.9,8.3-5.1,3.2-1.2,6.9-1.8,11-1.8s7.6.6,10.8,1.8c3.2,1.2,5.9,3,8.2,5.2,2.2,2.3,3.9,5.1,5.1,8.4,1.2,3.3,1.8,7,1.8,11.2v1.8h-35.3ZM-567.7-1473.7c-.6-2.3-1.7-4.2-3.4-5.7-1.7-1.4-3.8-2.1-6.3-2.1s-4.7.7-6.3,2c-1.6,1.4-2.7,3.3-3.1,5.7h19.2Z"/>
    <path class="st1" d="M-473.1-1418.5h-19v-72.9h30.2c8.2,0,14.5,2.1,18.8,6.4,4.4,4.3,6.5,10.2,6.5,18s-2.2,13.7-6.5,18c-4.4,4.3-10.6,6.4-18.8,6.4h-11.2v24.2ZM-473.1-1457.9h6.3c7,0,10.4-3,10.4-9.1s-3.5-9.1-10.4-9.1h-6.3v18.2Z"/>
    <path class="st2" d="M-515.5-1515.8h19s0,72.9,0,72.9h-30.1c-8.2,0-14.5-2.1-18.8-6.3-4.4-4.2-6.5-10.2-6.6-18,0-7.7,2.2-13.7,6.5-18,4.3-4.3,10.6-6.4,18.8-6.4h11.2s0-24.2,0-24.2ZM-515.5-1476.3h-6.3c-7,0-10.4,3.1-10.4,9.1,0,6.1,3.5,9.1,10.5,9.1h6.3s0-18.2,0-18.2Z"/>
    <path class="st1" d="M-397.6-1490.8h17.1v48.1h-17.1v-5.3c-3.6,4.6-8.5,6.8-14.7,6.8s-6.7-.6-9.7-1.9c-2.9-1.3-5.5-3.1-7.7-5.4-2.2-2.3-3.9-5-5.1-8.2-1.2-3.1-1.8-6.5-1.8-10.2s.6-6.7,1.8-9.8c1.2-3.1,2.8-5.8,5-8.1,2.1-2.3,4.7-4.1,7.6-5.5,2.9-1.3,6.2-2,9.7-2,6,0,11,2.1,14.9,6.3v-4.8ZM-418.9-1467c0,1.6.3,3,.8,4.4.6,1.3,1.3,2.5,2.3,3.5,1,1,2.1,1.8,3.5,2.3,1.3.6,2.8.8,4.4.8s2.9-.3,4.3-.8c1.3-.6,2.5-1.3,3.5-2.3,1-1,1.7-2.2,2.3-3.5s.9-2.7.9-4.2-.3-2.9-.9-4.3c-.6-1.3-1.4-2.5-2.3-3.5-1-1-2.1-1.8-3.5-2.3-1.3-.6-2.8-.8-4.3-.8s-3,.3-4.4.8c-1.3.6-2.5,1.3-3.5,2.3-1,1-1.7,2.1-2.3,3.4-.6,1.3-.8,2.7-.8,4.2Z"/>
    <path class="st1" d="M-346-1478.3c-3.1-1.6-6.1-2.4-9.1-2.4s-2.8.3-3.8.9c-1,.6-1.4,1.5-1.4,2.5s0,1,.2,1.3.5.7,1,1c.5.3,1.3.6,2.3.8,1,.2,2.4.6,4,.9,4.6.9,8.1,2.6,10.4,5,2.3,2.4,3.4,5.4,3.4,9.1s-.6,5.3-1.7,7.5c-1.1,2.2-2.7,4.1-4.6,5.6-2,1.5-4.4,2.7-7.1,3.5-2.8.8-5.8,1.3-9.2,1.3-6.4,0-12.8-1.8-19-5.5l6.1-11.9c4.7,3.2,9.1,4.8,13.3,4.8s2.8-.3,3.8-1c1-.7,1.5-1.5,1.5-2.6s0-1.1-.2-1.5c-.2-.4-.5-.8-1-1.1-.5-.3-1.2-.6-2.2-.9-1-.3-2.2-.6-3.8-.9-5.2-1.1-8.8-2.6-10.9-4.7-2.1-2.1-3.1-4.9-3.1-8.6s.5-5.1,1.5-7.2c1-2.1,2.4-3.9,4.3-5.4,1.9-1.5,4.1-2.6,6.7-3.4,2.6-.8,5.5-1.2,8.8-1.2,5.2,0,10.3,1,15.3,3.1l-5.7,10.9Z"/>
    <path class="st1" d="M-304.4-1478.3c-3.1-1.6-6.1-2.4-9.1-2.4s-2.8.3-3.8.9c-1,.6-1.4,1.5-1.4,2.5s0,1,.2,1.3.5.7,1,1c.5.3,1.3.6,2.3.8,1,.2,2.4.6,4,.9,4.6.9,8.1,2.6,10.4,5,2.3,2.4,3.4,5.4,3.4,9.1s-.6,5.3-1.7,7.5c-1.1,2.2-2.7,4.1-4.6,5.6-2,1.5-4.4,2.7-7.1,3.5-2.8.8-5.8,1.3-9.2,1.3-6.4,0-12.8-1.8-19-5.5l6.1-11.9c4.7,3.2,9.1,4.8,13.3,4.8s2.8-.3,3.8-1c1-.7,1.5-1.5,1.5-2.6s0-1.1-.2-1.5c-.2-.4-.5-.8-1-1.1-.5-.3-1.2-.6-2.2-.9-1-.3-2.2-.6-3.8-.9-5.2-1.1-8.8-2.6-10.9-4.7-2.1-2.1-3.1-4.9-3.1-8.6s.5-5.1,1.5-7.2c1-2.1,2.4-3.9,4.3-5.4s4.1-2.6,6.7-3.4c2.6-.8,5.5-1.2,8.8-1.2,5.2,0,10.3,1,15.3,3.1l-5.7,10.9Z"/>
    <path class="st1" d="M-686.6-1437.8c-16.1,0-29.3-13.1-29.3-29.3s13.1-29.3,29.3-29.3h166.7v-15.9h-166.7c-24.9,0-45.2,20.3-45.2,45.2s20.3,45.2,45.2,45.2h189.9v-15.9h-189.9Z"/>
    <path class="st2" d="M-308.4-1512.2h-183.9v15.9h183.9c16.1,0,29.3,13.1,29.3,29.3s-13.1,29.3-29.3,29.3h-160.2v15.9h160.2c24.9,0,45.2-20.3,45.2-45.2s-20.3-45.2-45.2-45.2Z"/>
  </g>
  <g>
    <path class="st2" d="M-639.6-717.7c0,7.2,3.4,10.8,10.2,10.8s6.4-1.5,8.2-4.4h16.2c-3.3,10.9-11.5,16.3-24.6,16.3s-7.7-.6-11-1.8c-3.3-1.2-6.2-2.9-8.6-5.1-2.4-2.2-4.2-4.9-5.5-8-1.3-3.1-1.9-6.5-1.9-10.4s.6-7.5,1.9-10.7c1.2-3.2,3-5.9,5.3-8.1,2.3-2.2,5.1-3.9,8.3-5.1,3.2-1.2,6.9-1.8,11-1.8s7.6.6,10.8,1.8c3.2,1.2,5.9,3,8.2,5.2,2.2,2.3,3.9,5.1,5.1,8.4,1.2,3.3,1.8,7,1.8,11.2v1.8h-35.3ZM-620-727.4c-.6-2.3-1.7-4.2-3.4-5.7-1.7-1.4-3.8-2.1-6.3-2.1s-4.7.7-6.3,2c-1.6,1.4-2.7,3.3-3.1,5.7h19.2Z"/>
    <path class="st2" d="M-663.7-732.3c-3.1-1.6-6.1-2.4-9.1-2.4s-2.8.3-3.8.9c-1,.6-1.4,1.5-1.4,2.5s0,1,.2,1.3.5.7,1,1c.5.3,1.3.6,2.3.8,1,.2,2.4.6,4,.9,4.6.9,8.1,2.6,10.4,5,2.3,2.4,3.4,5.4,3.4,9.1s-.6,5.3-1.7,7.5c-1.1,2.2-2.7,4.1-4.6,5.6-2,1.5-4.4,2.7-7.1,3.5-2.8.8-5.8,1.3-9.2,1.3-6.4,0-12.8-1.8-19-5.5l6.1-11.9c4.7,3.2,9.1,4.8,13.3,4.8s2.8-.3,3.8-1c1-.7,1.5-1.5,1.5-2.6s0-1.1-.2-1.5c-.2-.4-.5-.8-1-1.1-.5-.3-1.2-.6-2.2-.9-1-.3-2.2-.6-3.8-.9-5.2-1.1-8.8-2.6-10.9-4.7-2.1-2.1-3.1-4.9-3.1-8.6s.5-5.1,1.5-7.2c1-2.1,2.4-3.9,4.3-5.4s4.1-2.6,6.7-3.4c2.6-.8,5.5-1.2,8.8-1.2,5.2,0,10.3,1,15.3,3.1l-5.7,10.9Z"/>
    <path class="st2" d="M-587.3-717.7c0,7.2,3.4,10.8,10.2,10.8s6.4-1.5,8.2-4.4h16.2c-3.3,10.9-11.5,16.3-24.6,16.3s-7.7-.6-11-1.8c-3.3-1.2-6.2-2.9-8.6-5.1-2.4-2.2-4.2-4.9-5.5-8-1.3-3.1-1.9-6.5-1.9-10.4s.6-7.5,1.9-10.7c1.2-3.2,3-5.9,5.3-8.1,2.3-2.2,5.1-3.9,8.3-5.1,3.2-1.2,6.9-1.8,11-1.8s7.6.6,10.8,1.8c3.2,1.2,5.9,3,8.2,5.2,2.2,2.3,3.9,5.1,5.1,8.4,1.2,3.3,1.8,7,1.8,11.2v1.8h-35.3ZM-567.7-727.4c-.6-2.3-1.7-4.2-3.4-5.7-1.7-1.4-3.8-2.1-6.3-2.1s-4.7.7-6.3,2c-1.6,1.4-2.7,3.3-3.1,5.7h19.2Z"/>
    <path d="M-473.1-672.2h-19v-72.9h30.2c8.2,0,14.5,2.1,18.8,6.4,4.4,4.3,6.5,10.2,6.5,18s-2.2,13.7-6.5,18c-4.4,4.3-10.6,6.4-18.8,6.4h-11.2v24.2ZM-473.1-711.6h6.3c7,0,10.4-3,10.4-9.1s-3.5-9.1-10.4-9.1h-6.3v18.2Z"/>
    <path class="st2" d="M-515.5-769.5h19s0,72.9,0,72.9h-30.1c-8.2,0-14.5-2.1-18.8-6.3-4.4-4.2-6.5-10.2-6.6-18,0-7.7,2.2-13.7,6.5-18,4.3-4.3,10.6-6.4,18.8-6.4h11.2s0-24.2,0-24.2ZM-515.5-730h-6.3c-7,0-10.4,3.1-10.4,9.1,0,6.1,3.5,9.1,10.5,9.1h6.3s0-18.2,0-18.2Z"/>
    <path d="M-397.6-744.6h17.1v48.1h-17.1v-5.3c-3.6,4.6-8.5,6.8-14.7,6.8s-6.7-.6-9.7-1.9c-2.9-1.3-5.5-3.1-7.7-5.4-2.2-2.3-3.9-5-5.1-8.2-1.2-3.1-1.8-6.5-1.8-10.2s.6-6.7,1.8-9.8c1.2-3.1,2.8-5.8,5-8.1,2.1-2.3,4.7-4.1,7.6-5.5,2.9-1.3,6.2-2,9.7-2,6,0,11,2.1,14.9,6.3v-4.8ZM-418.9-720.7c0,1.6.3,3,.8,4.4.6,1.3,1.3,2.5,2.3,3.5,1,1,2.1,1.8,3.5,2.3,1.3.6,2.8.8,4.4.8s2.9-.3,4.3-.8c1.3-.6,2.5-1.3,3.5-2.3,1-1,1.7-2.2,2.3-3.5.6-1.3.9-2.7.9-4.2s-.3-2.9-.9-4.3c-.6-1.3-1.4-2.5-2.3-3.5-1-1-2.1-1.8-3.5-2.3-1.3-.6-2.8-.8-4.3-.8s-3,.3-4.4.8c-1.3.6-2.5,1.3-3.5,2.3-1,1-1.7,2.1-2.3,3.4-.6,1.3-.8,2.7-.8,4.2Z"/>
    <path d="M-346-732.1c-3.1-1.6-6.1-2.4-9.1-2.4s-2.8.3-3.8.9c-1,.6-1.4,1.5-1.4,2.5s0,1,.2,1.3.5.7,1,1c.5.3,1.3.6,2.3.8,1,.2,2.4.6,4,.9,4.6.9,8.1,2.6,10.4,5,2.3,2.4,3.4,5.4,3.4,9.1s-.6,5.3-1.7,7.5c-1.1,2.2-2.7,4.1-4.6,5.6-2,1.5-4.4,2.7-7.1,3.5-2.8.8-5.8,1.3-9.2,1.3-6.4,0-12.8-1.8-19-5.5l6.1-11.9c4.7,3.2,9.1,4.8,13.3,4.8s2.8-.3,3.8-1c1-.7,1.5-1.5,1.5-2.6s0-1.1-.2-1.5c-.2-.4-.5-.8-1-1.1-.5-.3-1.2-.6-2.2-.9-1-.3-2.2-.6-3.8-.9-5.2-1.1-8.8-2.6-10.9-4.7-2.1-2.1-3.1-4.9-3.1-8.6s.5-5.1,1.5-7.2c1-2.1,2.4-3.9,4.3-5.4,1.9-1.5,4.1-2.6,6.7-3.4,2.6-.8,5.5-1.2,8.8-1.2,5.2,0,10.3,1,15.3,3.1l-5.7,10.9Z"/>
    <path d="M-304.4-732.1c-3.1-1.6-6.1-2.4-9.1-2.4s-2.8.3-3.8.9c-1,.6-1.4,1.5-1.4,2.5s0,1,.2,1.3.5.7,1,1c.5.3,1.3.6,2.3.8,1,.2,2.4.6,4,.9,4.6.9,8.1,2.6,10.4,5,2.3,2.4,3.4,5.4,3.4,9.1s-.6,5.3-1.7,7.5c-1.1,2.2-2.7,4.1-4.6,5.6-2,1.5-4.4,2.7-7.1,3.5-2.8.8-5.8,1.3-9.2,1.3-6.4,0-12.8-1.8-19-5.5l6.1-11.9c4.7,3.2,9.1,4.8,13.3,4.8s2.8-.3,3.8-1c1-.7,1.5-1.5,1.5-2.6s0-1.1-.2-1.5c-.2-.4-.5-.8-1-1.1-.5-.3-1.2-.6-2.2-.9-1-.3-2.2-.6-3.8-.9-5.2-1.1-8.8-2.6-10.9-4.7-2.1-2.1-3.1-4.9-3.1-8.6s.5-5.1,1.5-7.2c1-2.1,2.4-3.9,4.3-5.4,1.9-1.5,4.1-2.6,6.7-3.4,2.6-.8,5.5-1.2,8.8-1.2,5.2,0,10.3,1,15.3,3.1l-5.7,10.9Z"/>
    <path d="M-686.6-691.5c-16.1,0-29.3-13.1-29.3-29.3s13.1-29.3,29.3-29.3h166.7v-15.9h-166.7c-24.9,0-45.2,20.3-45.2,45.2s20.3,45.2,45.2,45.2h189.9v-15.9h-189.9Z"/>
    <path class="st2" d="M-308.4-765.9h-183.9v15.9h183.9c16.1,0,29.3,13.1,29.3,29.3s-13.1,29.3-29.3,29.3h-160.2v15.9h160.2c24.9,0,45.2-20.3,45.2-45.2s-20.3-45.2-45.2-45.2Z"/>
  </g>
  <g>
    <path class="st0" d="M-639.6-867c0,7.2,3.4,10.8,10.2,10.8s6.4-1.5,8.2-4.4h16.2c-3.3,10.9-11.5,16.3-24.6,16.3s-7.7-.6-11-1.8c-3.3-1.2-6.2-2.9-8.6-5.1-2.4-2.2-4.2-4.9-5.5-8-1.3-3.1-1.9-6.5-1.9-10.4s.6-7.5,1.9-10.7c1.2-3.2,3-5.9,5.3-8.1,2.3-2.2,5.1-3.9,8.3-5.1,3.2-1.2,6.9-1.8,11-1.8s7.6.6,10.8,1.8c3.2,1.2,5.9,3,8.2,5.2,2.2,2.3,3.9,5.1,5.1,8.4,1.2,3.3,1.8,7,1.8,11.2v1.8h-35.3ZM-620-876.7c-.6-2.3-1.7-4.2-3.4-5.7-1.7-1.4-3.8-2.1-6.3-2.1s-4.7.7-6.3,2c-1.6,1.4-2.7,3.3-3.1,5.7h19.2Z"/>
    <path class="st0" d="M-663.7-881.5c-3.1-1.6-6.1-2.4-9.1-2.4s-2.8.3-3.8.9c-1,.6-1.4,1.5-1.4,2.5s0,1,.2,1.3.5.7,1,1c.5.3,1.3.6,2.3.8,1,.2,2.4.6,4,.9,4.6.9,8.1,2.6,10.4,5,2.3,2.4,3.4,5.4,3.4,9.1s-.6,5.3-1.7,7.5c-1.1,2.2-2.7,4.1-4.6,5.6-2,1.5-4.4,2.7-7.1,3.5-2.8.8-5.8,1.3-9.2,1.3-6.4,0-12.8-1.8-19-5.5l6.1-11.9c4.7,3.2,9.1,4.8,13.3,4.8s2.8-.3,3.8-1c1-.7,1.5-1.5,1.5-2.6s0-1.1-.2-1.5c-.2-.4-.5-.8-1-1.1-.5-.3-1.2-.6-2.2-.9-1-.3-2.2-.6-3.8-.9-5.2-1.1-8.8-2.6-10.9-4.7-2.1-2.1-3.1-4.9-3.1-8.6s.5-5.1,1.5-7.2c1-2.1,2.4-3.9,4.3-5.4s4.1-2.6,6.7-3.4c2.6-.8,5.5-1.2,8.8-1.2,5.2,0,10.3,1,15.3,3.1l-5.7,10.9Z"/>
    <path class="st0" d="M-587.3-867c0,7.2,3.4,10.8,10.2,10.8s6.4-1.5,8.2-4.4h16.2c-3.3,10.9-11.5,16.3-24.6,16.3s-7.7-.6-11-1.8c-3.3-1.2-6.2-2.9-8.6-5.1s-4.2-4.9-5.5-8c-1.3-3.1-1.9-6.5-1.9-10.4s.6-7.5,1.9-10.7c1.2-3.2,3-5.9,5.3-8.1,2.3-2.2,5.1-3.9,8.3-5.1,3.2-1.2,6.9-1.8,11-1.8s7.6.6,10.8,1.8c3.2,1.2,5.9,3,8.2,5.2,2.2,2.3,3.9,5.1,5.1,8.4,1.2,3.3,1.8,7,1.8,11.2v1.8h-35.3ZM-567.7-876.7c-.6-2.3-1.7-4.2-3.4-5.7-1.7-1.4-3.8-2.1-6.3-2.1s-4.7.7-6.3,2c-1.6,1.4-2.7,3.3-3.1,5.7h19.2Z"/>
    <path class="st0" d="M-473.1-821.4h-19v-72.9h30.2c8.2,0,14.5,2.1,18.8,6.4,4.4,4.3,6.5,10.2,6.5,18s-2.2,13.7-6.5,18c-4.4,4.3-10.6,6.4-18.8,6.4h-11.2v24.2ZM-473.1-860.9h6.3c7,0,10.4-3,10.4-9.1s-3.5-9.1-10.4-9.1h-6.3v18.2Z"/>
    <path class="st0" d="M-515.5-918.7h19s0,72.9,0,72.9h-30.1c-8.2,0-14.5-2.1-18.8-6.3-4.4-4.2-6.5-10.2-6.6-18,0-7.7,2.2-13.7,6.5-18,4.3-4.3,10.6-6.4,18.8-6.4h11.2s0-24.2,0-24.2ZM-515.5-879.3h-6.3c-7,0-10.4,3.1-10.4,9.1,0,6.1,3.5,9.1,10.5,9.1h6.3s0-18.2,0-18.2Z"/>
    <path class="st0" d="M-397.6-893.8h17.1v48.1h-17.1v-5.3c-3.6,4.6-8.5,6.8-14.7,6.8s-6.7-.6-9.7-1.9c-2.9-1.3-5.5-3.1-7.7-5.4-2.2-2.3-3.9-5-5.1-8.2-1.2-3.1-1.8-6.5-1.8-10.2s.6-6.7,1.8-9.8c1.2-3.1,2.8-5.8,5-8.1,2.1-2.3,4.7-4.1,7.6-5.5,2.9-1.3,6.2-2,9.7-2,6,0,11,2.1,14.9,6.3v-4.8ZM-418.9-869.9c0,1.6.3,3,.8,4.4.6,1.3,1.3,2.5,2.3,3.5,1,1,2.1,1.8,3.5,2.3,1.3.6,2.8.8,4.4.8s2.9-.3,4.3-.8c1.3-.6,2.5-1.3,3.5-2.3,1-1,1.7-2.2,2.3-3.5.6-1.3.9-2.7.9-4.2s-.3-2.9-.9-4.3c-.6-1.3-1.4-2.5-2.3-3.5-1-1-2.1-1.8-3.5-2.3-1.3-.6-2.8-.8-4.3-.8s-3,.3-4.4.8c-1.3.6-2.5,1.3-3.5,2.3-1,1-1.7,2.1-2.3,3.4-.6,1.3-.8,2.7-.8,4.2Z"/>
    <path class="st0" d="M-346-881.3c-3.1-1.6-6.1-2.4-9.1-2.4s-2.8.3-3.8.9c-1,.6-1.4,1.5-1.4,2.5s0,1,.2,1.3.5.7,1,1c.5.3,1.3.6,2.3.8,1,.2,2.4.6,4,.9,4.6.9,8.1,2.6,10.4,5,2.3,2.4,3.4,5.4,3.4,9.1s-.6,5.3-1.7,7.5c-1.1,2.2-2.7,4.1-4.6,5.6-2,1.5-4.4,2.7-7.1,3.5-2.8.8-5.8,1.3-9.2,1.3-6.4,0-12.8-1.8-19-5.5l6.1-11.9c4.7,3.2,9.1,4.8,13.3,4.8s2.8-.3,3.8-1c1-.7,1.5-1.5,1.5-2.6s0-1.1-.2-1.5c-.2-.4-.5-.8-1-1.1-.5-.3-1.2-.6-2.2-.9-1-.3-2.2-.6-3.8-.9-5.2-1.1-8.8-2.6-10.9-4.7-2.1-2.1-3.1-4.9-3.1-8.6s.5-5.1,1.5-7.2c1-2.1,2.4-3.9,4.3-5.4,1.9-1.5,4.1-2.6,6.7-3.4,2.6-.8,5.5-1.2,8.8-1.2,5.2,0,10.3,1,15.3,3.1l-5.7,10.9Z"/>
    <path class="st0" d="M-304.4-881.3c-3.1-1.6-6.1-2.4-9.1-2.4s-2.8.3-3.8.9c-1,.6-1.4,1.5-1.4,2.5s0,1,.2,1.3.5.7,1,1c.5.3,1.3.6,2.3.8,1,.2,2.4.6,4,.9,4.6.9,8.1,2.6,10.4,5,2.3,2.4,3.4,5.4,3.4,9.1s-.6,5.3-1.7,7.5c-1.1,2.2-2.7,4.1-4.6,5.6-2,1.5-4.4,2.7-7.1,3.5-2.8.8-5.8,1.3-9.2,1.3-6.4,0-12.8-1.8-19-5.5l6.1-11.9c4.7,3.2,9.1,4.8,13.3,4.8s2.8-.3,3.8-1c1-.7,1.5-1.5,1.5-2.6s0-1.1-.2-1.5c-.2-.4-.5-.8-1-1.1-.5-.3-1.2-.6-2.2-.9-1-.3-2.2-.6-3.8-.9-5.2-1.1-8.8-2.6-10.9-4.7-2.1-2.1-3.1-4.9-3.1-8.6s.5-5.1,1.5-7.2c1-2.1,2.4-3.9,4.3-5.4s4.1-2.6,6.7-3.4c2.6-.8,5.5-1.2,8.8-1.2,5.2,0,10.3,1,15.3,3.1l-5.7,10.9Z"/>
    <path class="st0" d="M-686.6-840.8c-16.1,0-29.3-13.1-29.3-29.3s13.1-29.3,29.3-29.3h166.7v-15.9h-166.7c-24.9,0-45.2,20.3-45.2,45.2s20.3,45.2,45.2,45.2h189.9v-15.9h-189.9Z"/>
    <path class="st0" d="M-308.4-915.2h-183.9v15.9h183.9c16.1,0,29.3,13.1,29.3,29.3s-13.1,29.3-29.3,29.3h-160.2v15.9h160.2c24.9,0,45.2-20.3,45.2-45.2s-20.3-45.2-45.2-45.2Z"/>
  </g>
  <g>
    <path class="st1" d="M-639.6-1165.5c0,7.2,3.4,10.8,10.2,10.8s6.4-1.5,8.2-4.4h16.2c-3.3,10.9-11.5,16.3-24.6,16.3s-7.7-.6-11-1.8c-3.3-1.2-6.2-2.9-8.6-5.1-2.4-2.2-4.2-4.9-5.5-8-1.3-3.1-1.9-6.5-1.9-10.4s.6-7.5,1.9-10.7c1.2-3.2,3-5.9,5.3-8.1,2.3-2.2,5.1-3.9,8.3-5.1,3.2-1.2,6.9-1.8,11-1.8s7.6.6,10.8,1.8c3.2,1.2,5.9,3,8.2,5.2,2.2,2.3,3.9,5.1,5.1,8.4,1.2,3.3,1.8,7,1.8,11.2v1.8h-35.3ZM-620-1175.2c-.6-2.3-1.7-4.2-3.4-5.7-1.7-1.4-3.8-2.1-6.3-2.1s-4.7.7-6.3,2c-1.6,1.4-2.7,3.3-3.1,5.7h19.2Z"/>
    <path class="st1" d="M-663.7-1180.1c-3.1-1.6-6.1-2.4-9.1-2.4s-2.8.3-3.8.9c-1,.6-1.4,1.5-1.4,2.5s0,1,.2,1.3.5.7,1,1c.5.3,1.3.6,2.3.8,1,.2,2.4.6,4,.9,4.6.9,8.1,2.6,10.4,5,2.3,2.4,3.4,5.4,3.4,9.1s-.6,5.3-1.7,7.5c-1.1,2.2-2.7,4.1-4.6,5.6-2,1.5-4.4,2.7-7.1,3.5-2.8.8-5.8,1.3-9.2,1.3-6.4,0-12.8-1.8-19-5.5l6.1-11.9c4.7,3.2,9.1,4.8,13.3,4.8s2.8-.3,3.8-1c1-.7,1.5-1.5,1.5-2.6s0-1.1-.2-1.5c-.2-.4-.5-.8-1-1.1-.5-.3-1.2-.6-2.2-.9-1-.3-2.2-.6-3.8-.9-5.2-1.1-8.8-2.6-10.9-4.7-2.1-2.1-3.1-4.9-3.1-8.6s.5-5.1,1.5-7.2c1-2.1,2.4-3.9,4.3-5.4s4.1-2.6,6.7-3.4c2.6-.8,5.5-1.2,8.8-1.2,5.2,0,10.3,1,15.3,3.1l-5.7,10.9Z"/>
    <path class="st1" d="M-587.3-1165.5c0,7.2,3.4,10.8,10.2,10.8s6.4-1.5,8.2-4.4h16.2c-3.3,10.9-11.5,16.3-24.6,16.3s-7.7-.6-11-1.8c-3.3-1.2-6.2-2.9-8.6-5.1s-4.2-4.9-5.5-8c-1.3-3.1-1.9-6.5-1.9-10.4s.6-7.5,1.9-10.7c1.2-3.2,3-5.9,5.3-8.1,2.3-2.2,5.1-3.9,8.3-5.1,3.2-1.2,6.9-1.8,11-1.8s7.6.6,10.8,1.8c3.2,1.2,5.9,3,8.2,5.2,2.2,2.3,3.9,5.1,5.1,8.4,1.2,3.3,1.8,7,1.8,11.2v1.8h-35.3ZM-567.7-1175.2c-.6-2.3-1.7-4.2-3.4-5.7-1.7-1.4-3.8-2.1-6.3-2.1s-4.7.7-6.3,2c-1.6,1.4-2.7,3.3-3.1,5.7h19.2Z"/>
    <path class="st1" d="M-473.1-1119.9h-19v-72.9h30.2c8.2,0,14.5,2.1,18.8,6.4,4.4,4.3,6.5,10.2,6.5,18s-2.2,13.7-6.5,18c-4.4,4.3-10.6,6.4-18.8,6.4h-11.2v24.2ZM-473.1-1159.4h6.3c7,0,10.4-3,10.4-9.1s-3.5-9.1-10.4-9.1h-6.3v18.2Z"/>
    <path class="st1" d="M-515.5-1217.2h19s0,72.9,0,72.9h-30.1c-8.2,0-14.5-2.1-18.8-6.3-4.4-4.2-6.5-10.2-6.6-18,0-7.7,2.2-13.7,6.5-18,4.3-4.3,10.6-6.4,18.8-6.4h11.2s0-24.2,0-24.2ZM-515.5-1177.8h-6.3c-7,0-10.4,3.1-10.4,9.1,0,6.1,3.5,9.1,10.5,9.1h6.3s0-18.2,0-18.2Z"/>
    <path class="st1" d="M-397.6-1192.3h17.1v48.1h-17.1v-5.3c-3.6,4.6-8.5,6.8-14.7,6.8s-6.7-.6-9.7-1.9c-2.9-1.3-5.5-3.1-7.7-5.4-2.2-2.3-3.9-5-5.1-8.2-1.2-3.1-1.8-6.5-1.8-10.2s.6-6.7,1.8-9.8c1.2-3.1,2.8-5.8,5-8.1,2.1-2.3,4.7-4.1,7.6-5.5,2.9-1.3,6.2-2,9.7-2,6,0,11,2.1,14.9,6.3v-4.8ZM-418.9-1168.4c0,1.6.3,3,.8,4.4.6,1.3,1.3,2.5,2.3,3.5,1,1,2.1,1.8,3.5,2.3,1.3.6,2.8.8,4.4.8s2.9-.3,4.3-.8c1.3-.6,2.5-1.3,3.5-2.3,1-1,1.7-2.2,2.3-3.5.6-1.3.9-2.7.9-4.2s-.3-2.9-.9-4.3c-.6-1.3-1.4-2.5-2.3-3.5-1-1-2.1-1.8-3.5-2.3-1.3-.6-2.8-.8-4.3-.8s-3,.3-4.4.8c-1.3.6-2.5,1.3-3.5,2.3-1,1-1.7,2.1-2.3,3.4-.6,1.3-.8,2.7-.8,4.2Z"/>
    <path class="st1" d="M-346-1179.8c-3.1-1.6-6.1-2.4-9.1-2.4s-2.8.3-3.8.9c-1,.6-1.4,1.5-1.4,2.5s0,1,.2,1.3.5.7,1,1c.5.3,1.3.6,2.3.8,1,.2,2.4.6,4,.9,4.6.9,8.1,2.6,10.4,5,2.3,2.4,3.4,5.4,3.4,9.1s-.6,5.3-1.7,7.5c-1.1,2.2-2.7,4.1-4.6,5.6-2,1.5-4.4,2.7-7.1,3.5-2.8.8-5.8,1.3-9.2,1.3-6.4,0-12.8-1.8-19-5.5l6.1-11.9c4.7,3.2,9.1,4.8,13.3,4.8s2.8-.3,3.8-1c1-.7,1.5-1.5,1.5-2.6s0-1.1-.2-1.5c-.2-.4-.5-.8-1-1.1-.5-.3-1.2-.6-2.2-.9-1-.3-2.2-.6-3.8-.9-5.2-1.1-8.8-2.6-10.9-4.7-2.1-2.1-3.1-4.9-3.1-8.6s.5-5.1,1.5-7.2c1-2.1,2.4-3.9,4.3-5.4,1.9-1.5,4.1-2.6,6.7-3.4,2.6-.8,5.5-1.2,8.8-1.2,5.2,0,10.3,1,15.3,3.1l-5.7,10.9Z"/>
    <path class="st1" d="M-304.4-1179.8c-3.1-1.6-6.1-2.4-9.1-2.4s-2.8.3-3.8.9c-1,.6-1.4,1.5-1.4,2.5s0,1,.2,1.3.5.7,1,1c.5.3,1.3.6,2.3.8,1,.2,2.4.6,4,.9,4.6.9,8.1,2.6,10.4,5,2.3,2.4,3.4,5.4,3.4,9.1s-.6,5.3-1.7,7.5c-1.1,2.2-2.7,4.1-4.6,5.6-2,1.5-4.4,2.7-7.1,3.5-2.8.8-5.8,1.3-9.2,1.3-6.4,0-12.8-1.8-19-5.5l6.1-11.9c4.7,3.2,9.1,4.8,13.3,4.8s2.8-.3,3.8-1c1-.7,1.5-1.5,1.5-2.6s0-1.1-.2-1.5c-.2-.4-.5-.8-1-1.1-.5-.3-1.2-.6-2.2-.9-1-.3-2.2-.6-3.8-.9-5.2-1.1-8.8-2.6-10.9-4.7-2.1-2.1-3.1-4.9-3.1-8.6s.5-5.1,1.5-7.2c1-2.1,2.4-3.9,4.3-5.4s4.1-2.6,6.7-3.4c2.6-.8,5.5-1.2,8.8-1.2,5.2,0,10.3,1,15.3,3.1l-5.7,10.9Z"/>
    <path class="st1" d="M-686.6-1139.3c-16.1,0-29.3-13.1-29.3-29.3s13.1-29.3,29.3-29.3h166.7v-15.9h-166.7c-24.9,0-45.2,20.3-45.2,45.2s20.3,45.2,45.2,45.2h189.9v-15.9h-189.9Z"/>
    <path class="st1" d="M-308.4-1213.7h-183.9v15.9h183.9c16.1,0,29.3,13.1,29.3,29.3s-13.1,29.3-29.3,29.3h-160.2v15.9h160.2c24.9,0,45.2-20.3,45.2-45.2s-20.3-45.2-45.2-45.2Z"/>
  </g>
  <g>
    <path class="st2" d="M-639.6-1016.2c0,7.2,3.4,10.8,10.2,10.8s6.4-1.5,8.2-4.4h16.2c-3.3,10.9-11.5,16.3-24.6,16.3s-7.7-.6-11-1.8c-3.3-1.2-6.2-2.9-8.6-5.1-2.4-2.2-4.2-4.9-5.5-8-1.3-3.1-1.9-6.5-1.9-10.4s.6-7.5,1.9-10.7c1.2-3.2,3-5.9,5.3-8.1,2.3-2.2,5.1-3.9,8.3-5.1,3.2-1.2,6.9-1.8,11-1.8s7.6.6,10.8,1.8c3.2,1.2,5.9,3,8.2,5.2,2.2,2.3,3.9,5.1,5.1,8.4,1.2,3.3,1.8,7,1.8,11.2v1.8h-35.3ZM-620-1025.9c-.6-2.3-1.7-4.2-3.4-5.7-1.7-1.4-3.8-2.1-6.3-2.1s-4.7.7-6.3,2c-1.6,1.4-2.7,3.3-3.1,5.7h19.2Z"/>
    <path class="st2" d="M-663.7-1030.8c-3.1-1.6-6.1-2.4-9.1-2.4s-2.8.3-3.8.9c-1,.6-1.4,1.5-1.4,2.5s0,1,.2,1.3.5.7,1,1c.5.3,1.3.6,2.3.8,1,.2,2.4.6,4,.9,4.6.9,8.1,2.6,10.4,5,2.3,2.4,3.4,5.4,3.4,9.1s-.6,5.3-1.7,7.5c-1.1,2.2-2.7,4.1-4.6,5.6-2,1.5-4.4,2.7-7.1,3.5-2.8.8-5.8,1.3-9.2,1.3-6.4,0-12.8-1.8-19-5.5l6.1-11.9c4.7,3.2,9.1,4.8,13.3,4.8s2.8-.3,3.8-1c1-.7,1.5-1.5,1.5-2.6s0-1.1-.2-1.5c-.2-.4-.5-.8-1-1.1-.5-.3-1.2-.6-2.2-.9-1-.3-2.2-.6-3.8-.9-5.2-1.1-8.8-2.6-10.9-4.7-2.1-2.1-3.1-4.9-3.1-8.6s.5-5.1,1.5-7.2c1-2.1,2.4-3.9,4.3-5.4s4.1-2.6,6.7-3.4c2.6-.8,5.5-1.2,8.8-1.2,5.2,0,10.3,1,15.3,3.1l-5.7,10.9Z"/>
    <path class="st2" d="M-587.3-1016.2c0,7.2,3.4,10.8,10.2,10.8s6.4-1.5,8.2-4.4h16.2c-3.3,10.9-11.5,16.3-24.6,16.3s-7.7-.6-11-1.8c-3.3-1.2-6.2-2.9-8.6-5.1s-4.2-4.9-5.5-8c-1.3-3.1-1.9-6.5-1.9-10.4s.6-7.5,1.9-10.7c1.2-3.2,3-5.9,5.3-8.1,2.3-2.2,5.1-3.9,8.3-5.1,3.2-1.2,6.9-1.8,11-1.8s7.6.6,10.8,1.8c3.2,1.2,5.9,3,8.2,5.2,2.2,2.3,3.9,5.1,5.1,8.4,1.2,3.3,1.8,7,1.8,11.2v1.8h-35.3ZM-567.7-1025.9c-.6-2.3-1.7-4.2-3.4-5.7-1.7-1.4-3.8-2.1-6.3-2.1s-4.7.7-6.3,2c-1.6,1.4-2.7,3.3-3.1,5.7h19.2Z"/>
    <path class="st2" d="M-473.1-970.7h-19v-72.9h30.2c8.2,0,14.5,2.1,18.8,6.4,4.4,4.3,6.5,10.2,6.5,18s-2.2,13.7-6.5,18c-4.4,4.3-10.6,6.4-18.8,6.4h-11.2v24.2ZM-473.1-1010.1h6.3c7,0,10.4-3,10.4-9.1s-3.5-9.1-10.4-9.1h-6.3v18.2Z"/>
    <path class="st2" d="M-515.5-1068h19s0,72.9,0,72.9h-30.1c-8.2,0-14.5-2.1-18.8-6.3-4.4-4.2-6.5-10.2-6.6-18,0-7.7,2.2-13.7,6.5-18,4.3-4.3,10.6-6.4,18.8-6.4h11.2s0-24.2,0-24.2ZM-515.5-1028.5h-6.3c-7,0-10.4,3.1-10.4,9.1,0,6.1,3.5,9.1,10.5,9.1h6.3s0-18.2,0-18.2Z"/>
    <path class="st2" d="M-397.6-1043.1h17.1v48.1h-17.1v-5.3c-3.6,4.6-8.5,6.8-14.7,6.8s-6.7-.6-9.7-1.9c-2.9-1.3-5.5-3.1-7.7-5.4-2.2-2.3-3.9-5-5.1-8.2-1.2-3.1-1.8-6.5-1.8-10.2s.6-6.7,1.8-9.8c1.2-3.1,2.8-5.8,5-8.1,2.1-2.3,4.7-4.1,7.6-5.5,2.9-1.3,6.2-2,9.7-2,6,0,11,2.1,14.9,6.3v-4.8ZM-418.9-1019.2c0,1.6.3,3,.8,4.4.6,1.3,1.3,2.5,2.3,3.5,1,1,2.1,1.8,3.5,2.3,1.3.6,2.8.8,4.4.8s2.9-.3,4.3-.8c1.3-.6,2.5-1.3,3.5-2.3,1-1,1.7-2.2,2.3-3.5.6-1.3.9-2.7.9-4.2s-.3-2.9-.9-4.3c-.6-1.3-1.4-2.5-2.3-3.5-1-1-2.1-1.8-3.5-2.3-1.3-.6-2.8-.8-4.3-.8s-3,.3-4.4.8c-1.3.6-2.5,1.3-3.5,2.3-1,1-1.7,2.1-2.3,3.4-.6,1.3-.8,2.7-.8,4.2Z"/>
    <path class="st2" d="M-346-1030.6c-3.1-1.6-6.1-2.4-9.1-2.4s-2.8.3-3.8.9c-1,.6-1.4,1.5-1.4,2.5s0,1,.2,1.3.5.7,1,1c.5.3,1.3.6,2.3.8,1,.2,2.4.6,4,.9,4.6.9,8.1,2.6,10.4,5,2.3,2.4,3.4,5.4,3.4,9.1s-.6,5.3-1.7,7.5c-1.1,2.2-2.7,4.1-4.6,5.6-2,1.5-4.4,2.7-7.1,3.5-2.8.8-5.8,1.3-9.2,1.3-6.4,0-12.8-1.8-19-5.5l6.1-11.9c4.7,3.2,9.1,4.8,13.3,4.8s2.8-.3,3.8-1c1-.7,1.5-1.5,1.5-2.6s0-1.1-.2-1.5c-.2-.4-.5-.8-1-1.1-.5-.3-1.2-.6-2.2-.9-1-.3-2.2-.6-3.8-.9-5.2-1.1-8.8-2.6-10.9-4.7-2.1-2.1-3.1-4.9-3.1-8.6s.5-5.1,1.5-7.2c1-2.1,2.4-3.9,4.3-5.4,1.9-1.5,4.1-2.6,6.7-3.4,2.6-.8,5.5-1.2,8.8-1.2,5.2,0,10.3,1,15.3,3.1l-5.7,10.9Z"/>
    <path class="st2" d="M-304.4-1030.6c-3.1-1.6-6.1-2.4-9.1-2.4s-2.8.3-3.8.9c-1,.6-1.4,1.5-1.4,2.5s0,1,.2,1.3.5.7,1,1c.5.3,1.3.6,2.3.8,1,.2,2.4.6,4,.9,4.6.9,8.1,2.6,10.4,5,2.3,2.4,3.4,5.4,3.4,9.1s-.6,5.3-1.7,7.5c-1.1,2.2-2.7,4.1-4.6,5.6-2,1.5-4.4,2.7-7.1,3.5-2.8.8-5.8,1.3-9.2,1.3-6.4,0-12.8-1.8-19-5.5l6.1-11.9c4.7,3.2,9.1,4.8,13.3,4.8s2.8-.3,3.8-1c1-.7,1.5-1.5,1.5-2.6s0-1.1-.2-1.5c-.2-.4-.5-.8-1-1.1-.5-.3-1.2-.6-2.2-.9-1-.3-2.2-.6-3.8-.9-5.2-1.1-8.8-2.6-10.9-4.7-2.1-2.1-3.1-4.9-3.1-8.6s.5-5.1,1.5-7.2c1-2.1,2.4-3.9,4.3-5.4s4.1-2.6,6.7-3.4c2.6-.8,5.5-1.2,8.8-1.2,5.2,0,10.3,1,15.3,3.1l-5.7,10.9Z"/>
    <path class="st2" d="M-686.6-990c-16.1,0-29.3-13.1-29.3-29.3s13.1-29.3,29.3-29.3h166.7v-15.9h-166.7c-24.9,0-45.2,20.3-45.2,45.2s20.3,45.2,45.2,45.2h189.9v-15.9h-189.9Z"/>
    <path class="st2" d="M-308.4-1064.4h-183.9v15.9h183.9c16.1,0,29.3,13.1,29.3,29.3s-13.1,29.3-29.3,29.3h-160.2v15.9h160.2c24.9,0,45.2-20.3,45.2-45.2s-20.3-45.2-45.2-45.2Z"/>
  </g>
  <g>
    <path d="M-639.6-568.4c0,7.2,3.4,10.8,10.2,10.8s6.4-1.5,8.2-4.4h16.2c-3.3,10.9-11.5,16.3-24.6,16.3s-7.7-.6-11-1.8c-3.3-1.2-6.2-2.9-8.6-5.1-2.4-2.2-4.2-4.9-5.5-8-1.3-3.1-1.9-6.5-1.9-10.4s.6-7.5,1.9-10.7c1.2-3.2,3-5.9,5.3-8.1,2.3-2.2,5.1-3.9,8.3-5.1,3.2-1.2,6.9-1.8,11-1.8s7.6.6,10.8,1.8c3.2,1.2,5.9,3,8.2,5.2,2.2,2.3,3.9,5.1,5.1,8.4,1.2,3.3,1.8,7,1.8,11.2v1.8h-35.3ZM-620-578.2c-.6-2.3-1.7-4.2-3.4-5.7-1.7-1.4-3.8-2.1-6.3-2.1s-4.7.7-6.3,2c-1.6,1.4-2.7,3.3-3.1,5.7h19.2Z"/>
    <path d="M-663.7-583c-3.1-1.6-6.1-2.4-9.1-2.4s-2.8.3-3.8.9c-1,.6-1.4,1.5-1.4,2.5s0,1,.2,1.3.5.7,1,1c.5.3,1.3.6,2.3.8,1,.2,2.4.6,4,.9,4.6.9,8.1,2.6,10.4,5,2.3,2.4,3.4,5.4,3.4,9.1s-.6,5.3-1.7,7.5c-1.1,2.2-2.7,4.1-4.6,5.6-2,1.5-4.4,2.7-7.1,3.5-2.8.8-5.8,1.3-9.2,1.3-6.4,0-12.8-1.8-19-5.5l6.1-11.9c4.7,3.2,9.1,4.8,13.3,4.8s2.8-.3,3.8-1c1-.7,1.5-1.5,1.5-2.6s0-1.1-.2-1.5c-.2-.4-.5-.8-1-1.1-.5-.3-1.2-.6-2.2-.9-1-.3-2.2-.6-3.8-.9-5.2-1.1-8.8-2.6-10.9-4.7-2.1-2.1-3.1-4.9-3.1-8.6s.5-5.1,1.5-7.2c1-2.1,2.4-3.9,4.3-5.4s4.1-2.6,6.7-3.4c2.6-.8,5.5-1.2,8.8-1.2,5.2,0,10.3,1,15.3,3.1l-5.7,10.9Z"/>
    <path d="M-587.3-568.4c0,7.2,3.4,10.8,10.2,10.8s6.4-1.5,8.2-4.4h16.2c-3.3,10.9-11.5,16.3-24.6,16.3s-7.7-.6-11-1.8c-3.3-1.2-6.2-2.9-8.6-5.1s-4.2-4.9-5.5-8c-1.3-3.1-1.9-6.5-1.9-10.4s.6-7.5,1.9-10.7c1.2-3.2,3-5.9,5.3-8.1,2.3-2.2,5.1-3.9,8.3-5.1,3.2-1.2,6.9-1.8,11-1.8s7.6.6,10.8,1.8c3.2,1.2,5.9,3,8.2,5.2,2.2,2.3,3.9,5.1,5.1,8.4,1.2,3.3,1.8,7,1.8,11.2v1.8h-35.3ZM-567.7-578.2c-.6-2.3-1.7-4.2-3.4-5.7-1.7-1.4-3.8-2.1-6.3-2.1s-4.7.7-6.3,2c-1.6,1.4-2.7,3.3-3.1,5.7h19.2Z"/>
    <path d="M-473.1-522.9h-19v-72.9h30.2c8.2,0,14.5,2.1,18.8,6.4,4.4,4.3,6.5,10.2,6.5,18s-2.2,13.7-6.5,18c-4.4,4.3-10.6,6.4-18.8,6.4h-11.2v24.2ZM-473.1-562.4h6.3c7,0,10.4-3,10.4-9.1s-3.5-9.1-10.4-9.1h-6.3v18.2Z"/>
    <path d="M-515.5-620.2h19s0,72.9,0,72.9h-30.1c-8.2,0-14.5-2.1-18.8-6.3-4.4-4.2-6.5-10.2-6.6-18,0-7.7,2.2-13.7,6.5-18,4.3-4.3,10.6-6.4,18.8-6.4h11.2s0-24.2,0-24.2ZM-515.5-580.8h-6.3c-7,0-10.4,3.1-10.4,9.1,0,6.1,3.5,9.1,10.5,9.1h6.3s0-18.2,0-18.2Z"/>
    <path d="M-397.6-595.3h17.1v48.1h-17.1v-5.3c-3.6,4.6-8.5,6.8-14.7,6.8s-6.7-.6-9.7-1.9c-2.9-1.3-5.5-3.1-7.7-5.4-2.2-2.3-3.9-5-5.1-8.2-1.2-3.1-1.8-6.5-1.8-10.2s.6-6.7,1.8-9.8c1.2-3.1,2.8-5.8,5-8.1,2.1-2.3,4.7-4.1,7.6-5.5,2.9-1.3,6.2-2,9.7-2,6,0,11,2.1,14.9,6.3v-4.8ZM-418.9-571.4c0,1.6.3,3,.8,4.4.6,1.3,1.3,2.5,2.3,3.5,1,1,2.1,1.8,3.5,2.3,1.3.6,2.8.8,4.4.8s2.9-.3,4.3-.8c1.3-.6,2.5-1.3,3.5-2.3,1-1,1.7-2.2,2.3-3.5s.9-2.7.9-4.2-.3-2.9-.9-4.3c-.6-1.3-1.4-2.5-2.3-3.5-1-1-2.1-1.8-3.5-2.3-1.3-.6-2.8-.8-4.3-.8s-3,.3-4.4.8c-1.3.6-2.5,1.3-3.5,2.3-1,1-1.7,2.1-2.3,3.4-.6,1.3-.8,2.7-.8,4.2Z"/>
    <path d="M-346-582.8c-3.1-1.6-6.1-2.4-9.1-2.4s-2.8.3-3.8.9c-1,.6-1.4,1.5-1.4,2.5s0,1,.2,1.3.5.7,1,1c.5.3,1.3.6,2.3.8,1,.2,2.4.6,4,.9,4.6.9,8.1,2.6,10.4,5,2.3,2.4,3.4,5.4,3.4,9.1s-.6,5.3-1.7,7.5c-1.1,2.2-2.7,4.1-4.6,5.6-2,1.5-4.4,2.7-7.1,3.5-2.8.8-5.8,1.3-9.2,1.3-6.4,0-12.8-1.8-19-5.5l6.1-11.9c4.7,3.2,9.1,4.8,13.3,4.8s2.8-.3,3.8-1c1-.7,1.5-1.5,1.5-2.6s0-1.1-.2-1.5c-.2-.4-.5-.8-1-1.1-.5-.3-1.2-.6-2.2-.9-1-.3-2.2-.6-3.8-.9-5.2-1.1-8.8-2.6-10.9-4.7-2.1-2.1-3.1-4.9-3.1-8.6s.5-5.1,1.5-7.2c1-2.1,2.4-3.9,4.3-5.4,1.9-1.5,4.1-2.6,6.7-3.4,2.6-.8,5.5-1.2,8.8-1.2,5.2,0,10.3,1,15.3,3.1l-5.7,10.9Z"/>
    <path d="M-304.4-582.8c-3.1-1.6-6.1-2.4-9.1-2.4s-2.8.3-3.8.9c-1,.6-1.4,1.5-1.4,2.5s0,1,.2,1.3.5.7,1,1c.5.3,1.3.6,2.3.8,1,.2,2.4.6,4,.9,4.6.9,8.1,2.6,10.4,5,2.3,2.4,3.4,5.4,3.4,9.1s-.6,5.3-1.7,7.5c-1.1,2.2-2.7,4.1-4.6,5.6-2,1.5-4.4,2.7-7.1,3.5-2.8.8-5.8,1.3-9.2,1.3-6.4,0-12.8-1.8-19-5.5l6.1-11.9c4.7,3.2,9.1,4.8,13.3,4.8s2.8-.3,3.8-1c1-.7,1.5-1.5,1.5-2.6s0-1.1-.2-1.5c-.2-.4-.5-.8-1-1.1-.5-.3-1.2-.6-2.2-.9-1-.3-2.2-.6-3.8-.9-5.2-1.1-8.8-2.6-10.9-4.7-2.1-2.1-3.1-4.9-3.1-8.6s.5-5.1,1.5-7.2c1-2.1,2.4-3.9,4.3-5.4,1.9-1.5,4.1-2.6,6.7-3.4,2.6-.8,5.5-1.2,8.8-1.2,5.2,0,10.3,1,15.3,3.1l-5.7,10.9Z"/>
    <path d="M-686.6-542.2c-16.1,0-29.3-13.1-29.3-29.3s13.1-29.3,29.3-29.3h166.7v-15.9h-166.7c-24.9,0-45.2,20.3-45.2,45.2s20.3,45.2,45.2,45.2h189.9v-15.9h-189.9Z"/>
    <path d="M-308.4-616.7h-183.9v15.9h183.9c16.1,0,29.3,13.1,29.3,29.3s-13.1,29.3-29.3,29.3h-160.2v15.9h160.2c24.9,0,45.2-20.3,45.2-45.2s-20.3-45.2-45.2-45.2Z"/>
  </g>
</svg>