<?xml version="1.0" encoding="UTF-8"?><svg id="Layer_1" xmlns="http://www.w3.org/2000/svg" viewBox="0 0 1152 648"><defs><style>.cls-1{fill:#fff;}.cls-2{fill:#2c3e50;}.cls-3{fill:#e74c3c;}</style></defs><rect class="cls-2" x="-15.16" y="-8.96" width="1182.32" height="665.92" transform="translate(-.55 .98) rotate(-.1)"/><path class="cls-3" d="M464.64,326.46c0,5.66,2.66,8.5,7.99,8.5,2.86,0,5.01-1.16,6.46-3.49h12.71c-2.57,8.52-8.98,12.78-19.24,12.78-3.15,0-6.03-.47-8.64-1.42-2.61-.94-4.85-2.29-6.72-4.03-1.86-1.74-3.3-3.82-4.32-6.25-1.02-2.42-1.53-5.13-1.53-8.13s.48-5.89,1.45-8.39c.97-2.49,2.35-4.61,4.14-6.36,1.79-1.74,3.96-3.09,6.5-4.03,2.54-.94,5.41-1.42,8.61-1.42s5.98.47,8.5,1.42c2.52.94,4.65,2.31,6.39,4.1,1.74,1.79,3.08,3.98,3.99,6.57.92,2.59,1.38,5.51,1.38,8.75v1.38h-27.67ZM480.03,318.83c-.44-1.84-1.33-3.32-2.69-4.43-1.35-1.11-3-1.67-4.94-1.67-2.03,0-3.69.53-4.97,1.6-1.28,1.07-2.1,2.57-2.43,4.5h15.03Z"/><path class="cls-3" d="M445.75,315.02c-2.42-1.26-4.79-1.89-7.12-1.89-1.21,0-2.19.24-2.94.73-.75.48-1.13,1.14-1.13,1.96,0,.44.06.79.18,1.05s.39.52.8.76c.41.24,1.02.46,1.82.65.8.19,1.85.44,3.16.73,3.63.73,6.34,2.02,8.13,3.89,1.79,1.86,2.69,4.25,2.69,7.15,0,2.18-.44,4.14-1.31,5.88-.87,1.74-2.08,3.21-3.63,4.39-1.55,1.19-3.41,2.11-5.59,2.76-2.18.65-4.58.98-7.19.98-5.04,0-10-1.43-14.89-4.29l4.79-9.3c3.68,2.52,7.17,3.78,10.46,3.78,1.21,0,2.2-.27,2.98-.8.77-.53,1.16-1.21,1.16-2.03,0-.48-.06-.88-.18-1.2-.12-.31-.38-.6-.76-.87-.39-.27-.96-.51-1.71-.73-.75-.22-1.73-.45-2.94-.69-4.07-.82-6.91-2.05-8.53-3.67-1.62-1.62-2.43-3.86-2.43-6.72,0-2.08.39-3.96,1.16-5.63.78-1.67,1.89-3.09,3.34-4.25s3.21-2.06,5.26-2.69c2.06-.63,4.34-.94,6.86-.94,4.11,0,8.11.8,11.98,2.4l-4.43,8.57Z"/><path class="cls-3" d="M505.6,326.46c0,5.66,2.66,8.5,7.99,8.5,2.86,0,5.01-1.16,6.46-3.49h12.71c-2.57,8.52-8.98,12.78-19.24,12.78-3.15,0-6.03-.47-8.64-1.42-2.61-.94-4.85-2.29-6.72-4.03s-3.3-3.82-4.32-6.25c-1.02-2.42-1.53-5.13-1.53-8.13s.48-5.89,1.45-8.39c.97-2.49,2.35-4.61,4.14-6.36,1.79-1.74,3.96-3.09,6.5-4.03,2.54-.94,5.41-1.42,8.61-1.42s5.98.47,8.5,1.42c2.52.94,4.65,2.31,6.39,4.1,1.74,1.79,3.08,3.98,3.99,6.57.92,2.59,1.38,5.51,1.38,8.75v1.38h-27.67ZM520.99,318.83c-.44-1.84-1.33-3.32-2.69-4.43-1.35-1.11-3-1.67-4.94-1.67-2.03,0-3.69.53-4.97,1.6-1.28,1.07-2.1,2.57-2.43,4.5h15.03Z"/><path class="cls-1" d="M595.11,362.13h-14.88v-57.13h23.67c6.42,0,11.33,1.67,14.74,5,3.41,3.33,5.12,8.03,5.12,14.09s-1.71,10.76-5.12,14.09c-3.41,3.33-8.32,5-14.74,5h-8.79v18.94ZM595.11,331.22h4.93c5.45,0,8.18-2.37,8.18-7.12s-2.73-7.12-8.18-7.12h-4.93v14.25Z"/><path class="cls-3" d="M561.84,285.89l14.92-.03v57.13l-23.62.04c-6.42.01-11.33-1.65-14.75-4.98-3.42-3.33-5.13-8.02-5.14-14.08-.01-6.06,1.69-10.76,5.09-14.1,3.4-3.34,8.31-5.01,14.73-5.03h8.79s-.03-18.96-.03-18.96ZM561.9,316.81h-4.93c-5.45.02-8.18,2.4-8.17,7.14s2.74,7.12,8.19,7.11h4.93s-.02-14.25-.02-14.25Z"/><path class="cls-1" d="M654.3,305.41h13.36v37.67h-13.36v-4.19c-2.84,3.57-6.68,5.36-11.53,5.36-2.74,0-5.26-.5-7.56-1.5-2.3-1-4.31-2.41-6.02-4.22-1.72-1.81-3.05-3.94-4-6.39-.96-2.45-1.43-5.11-1.43-8,0-2.69.46-5.25,1.4-7.67.93-2.42,2.23-4.54,3.89-6.35,1.66-1.81,3.65-3.24,5.95-4.3,2.3-1.05,4.84-1.58,7.64-1.58,4.7,0,8.59,1.64,11.67,4.92v-3.74ZM637.55,324.13c0,1.22.22,2.36.66,3.42.44,1.05,1.04,1.97,1.8,2.75.76.78,1.66,1.4,2.72,1.84,1.05.44,2.19.66,3.41.66s2.29-.22,3.34-.66c1.05-.44,1.96-1.05,2.72-1.84.76-.78,1.37-1.69,1.84-2.72s.7-2.13.7-3.3-.23-2.29-.7-3.34c-.47-1.05-1.08-1.97-1.84-2.75-.76-.78-1.66-1.39-2.72-1.84-1.05-.44-2.17-.66-3.34-.66s-2.36.22-3.41.66c-1.05.44-1.96,1.05-2.72,1.84-.76.78-1.36,1.68-1.8,2.68-.44,1-.66,2.09-.66,3.27Z"/><path class="cls-1" d="M694.68,315.2c-2.42-1.26-4.79-1.89-7.12-1.89-1.21,0-2.19.24-2.94.73-.75.48-1.13,1.14-1.13,1.96,0,.44.06.79.18,1.05s.39.52.8.76c.41.24,1.02.46,1.82.65.8.19,1.85.44,3.16.73,3.63.73,6.34,2.02,8.13,3.89,1.79,1.86,2.69,4.25,2.69,7.15,0,2.18-.44,4.14-1.31,5.88-.87,1.74-2.08,3.21-3.63,4.39-1.55,1.19-3.41,2.11-5.59,2.76-2.18.65-4.58.98-7.19.98-5.04,0-10-1.43-14.89-4.29l4.79-9.3c3.68,2.52,7.17,3.78,10.46,3.78,1.21,0,2.2-.27,2.98-.8.77-.53,1.16-1.21,1.16-2.03,0-.48-.06-.88-.18-1.2-.12-.31-.38-.6-.76-.87-.39-.27-.96-.51-1.71-.73-.75-.22-1.73-.45-2.94-.69-4.07-.82-6.91-2.05-8.53-3.67-1.62-1.62-2.43-3.86-2.43-6.72,0-2.08.39-3.96,1.16-5.63.78-1.67,1.89-3.09,3.34-4.25,1.45-1.16,3.21-2.06,5.26-2.69,2.06-.63,4.34-.94,6.86-.94,4.11,0,8.11.8,11.98,2.4l-4.43,8.57Z"/><path class="cls-1" d="M727.28,315.2c-2.42-1.26-4.79-1.89-7.12-1.89-1.21,0-2.19.24-2.94.73-.75.48-1.13,1.14-1.13,1.96,0,.44.06.79.18,1.05s.39.52.8.76c.41.24,1.02.46,1.82.65.8.19,1.85.44,3.16.73,3.63.73,6.34,2.02,8.13,3.89,1.79,1.86,2.69,4.25,2.69,7.15,0,2.18-.44,4.14-1.31,5.88-.87,1.74-2.08,3.21-3.63,4.39-1.55,1.19-3.41,2.11-5.59,2.76-2.18.65-4.58.98-7.19.98-5.04,0-10-1.43-14.89-4.29l4.79-9.3c3.68,2.52,7.17,3.78,10.46,3.78,1.21,0,2.2-.27,2.98-.8.77-.53,1.16-1.21,1.16-2.03,0-.48-.06-.88-.18-1.2-.12-.31-.38-.6-.76-.87-.39-.27-.96-.51-1.71-.73-.75-.22-1.73-.45-2.94-.69-4.07-.82-6.91-2.05-8.53-3.67-1.62-1.62-2.43-3.86-2.43-6.72,0-2.08.39-3.96,1.16-5.63.78-1.67,1.89-3.09,3.34-4.25s3.21-2.06,5.26-2.69c2.06-.63,4.34-.94,6.86-.94,4.11,0,8.11.8,11.98,2.4l-4.43,8.57Z"/><path class="cls-1" d="M427.83,346.98c-12.64,0-22.92-10.28-22.92-22.92s10.28-22.92,22.92-22.92h130.63v-12.46h-130.63c-19.51,0-35.39,15.87-35.39,35.38s15.87,35.38,35.39,35.38h148.84v-12.46h-148.84Z"/><path class="cls-3" d="M724.17,288.68h-144.12v12.46h144.12c12.64,0,22.92,10.28,22.92,22.92s-10.28,22.92-22.92,22.92h-125.55v12.46h125.55c19.51,0,35.39-15.87,35.39-35.38s-15.87-35.38-35.39-35.38Z"/></svg>