<?xml version="1.0" encoding="UTF-8"?><svg id="Layer_1" xmlns="http://www.w3.org/2000/svg" viewBox="0 0 1152 648"><defs><style>.cls-1{fill:#fff;}.cls-2{fill:#2c3e50;}.cls-3{fill:#e74c3c;}</style></defs><rect class="cls-2" x="-15.16" y="-8.96" width="1182.32" height="665.92" transform="translate(-.55 .98) rotate(-.1)"/><path class="cls-3" d="M553.93,299.01c0,5.3,2.49,7.96,7.48,7.96,2.67,0,4.69-1.09,6.05-3.26h11.9c-2.4,7.98-8.41,11.97-18.02,11.97-2.95,0-5.64-.44-8.09-1.33-2.45-.88-4.54-2.14-6.29-3.77s-3.09-3.58-4.04-5.85c-.95-2.27-1.43-4.8-1.43-7.62s.45-5.52,1.36-7.85c.91-2.33,2.2-4.32,3.88-5.95,1.68-1.63,3.71-2.89,6.08-3.77,2.38-.88,5.07-1.33,8.06-1.33s5.6.44,7.96,1.33,4.35,2.16,5.98,3.84c1.63,1.68,2.88,3.73,3.74,6.15.86,2.43,1.29,5.16,1.29,8.19v1.29h-25.9ZM568.35,291.87c-.41-1.72-1.25-3.1-2.52-4.15-1.27-1.04-2.81-1.56-4.62-1.56-1.9,0-3.46.5-4.66,1.5-1.2,1-1.96,2.4-2.28,4.22h14.07Z"/><path class="cls-3" d="M536.26,288.3c-2.27-1.18-4.49-1.77-6.66-1.77-1.13,0-2.05.23-2.75.68-.7.45-1.05,1.07-1.05,1.84,0,.41.06.74.17.99s.36.49.75.71c.38.23.95.43,1.7.61.75.18,1.73.41,2.96.68,3.4.68,5.94,1.89,7.62,3.64,1.68,1.75,2.52,3.98,2.52,6.7,0,2.04-.41,3.88-1.22,5.51-.82,1.63-1.95,3-3.4,4.11-1.45,1.11-3.2,1.97-5.23,2.58-2.04.61-4.28.92-6.73.92-4.71,0-9.36-1.34-13.94-4.01l4.49-8.7c3.45,2.36,6.71,3.54,9.79,3.54,1.13,0,2.06-.25,2.79-.75.72-.5,1.09-1.13,1.09-1.9,0-.45-.06-.83-.17-1.12-.11-.29-.35-.57-.71-.82-.36-.25-.9-.48-1.6-.68-.7-.2-1.62-.42-2.75-.65-3.81-.77-6.47-1.91-7.99-3.43-1.52-1.52-2.28-3.61-2.28-6.29,0-1.95.36-3.71,1.09-5.27.73-1.56,1.77-2.89,3.13-3.98,1.36-1.09,3-1.93,4.93-2.52s4.07-.88,6.43-.88c3.85,0,7.59.75,11.22,2.24l-4.15,8.02Z"/><path class="cls-3" d="M592.28,299.01c0,5.3,2.49,7.96,7.48,7.96,2.67,0,4.69-1.09,6.05-3.26h11.9c-2.4,7.98-8.41,11.97-18.02,11.97-2.95,0-5.64-.44-8.09-1.33-2.45-.88-4.54-2.14-6.29-3.77-1.75-1.63-3.09-3.58-4.04-5.85-.95-2.27-1.43-4.8-1.43-7.62s.45-5.52,1.36-7.85c.91-2.33,2.2-4.32,3.88-5.95,1.68-1.63,3.71-2.89,6.08-3.77,2.38-.88,5.07-1.33,8.06-1.33s5.6.44,7.96,1.33,4.35,2.16,5.98,3.84c1.63,1.68,2.88,3.73,3.74,6.15.86,2.43,1.29,5.16,1.29,8.19v1.29h-25.9ZM606.7,291.87c-.41-1.72-1.25-3.1-2.52-4.15-1.27-1.04-2.81-1.56-4.62-1.56-1.9,0-3.46.5-4.66,1.5-1.2,1-1.96,2.4-2.28,4.22h14.07Z"/><path class="cls-3" d="M644.94,261.03l13.97-.02v53.49l-22.11.04c-6.01.01-10.61-1.54-13.81-4.66-3.2-3.12-4.8-7.51-4.81-13.19,0-5.67,1.58-10.08,4.77-13.2,3.19-3.13,7.78-4.69,13.79-4.71h8.23s-.03-17.75-.03-17.75ZM644.99,289.97h-4.61c-5.11.02-7.66,2.24-7.65,6.69,0,4.45,2.57,6.66,7.67,6.66h4.61s-.02-13.34-.02-13.34Z"/><path class="cls-1" d="M519.47,318.22c-11.83,0-21.46-9.63-21.46-21.46s9.63-21.46,21.46-21.46h122.3v-11.67h-122.3c-18.27,0-33.13,14.86-33.13,33.13s14.86,33.13,33.13,33.13h58.73v-11.67h-58.73Z"/><path class="cls-1" d="M511.69,386.99h-13.93v-53.49h22.16c6.01,0,10.61,1.56,13.8,4.68,3.19,3.12,4.79,7.52,4.79,13.19s-1.6,10.07-4.79,13.19c-3.19,3.12-7.79,4.68-13.8,4.68h-8.23v17.73ZM511.69,358.05h4.61c5.11,0,7.66-2.22,7.66-6.67s-2.55-6.67-7.66-6.67h-4.61v13.34Z"/><path class="cls-1" d="M567.11,333.89h12.51v35.27h-12.51v-3.92c-2.66,3.35-6.26,5.02-10.79,5.02-2.57,0-4.93-.47-7.08-1.41-2.15-.94-4.03-2.26-5.64-3.95-1.61-1.7-2.85-3.69-3.75-5.98-.89-2.29-1.34-4.79-1.34-7.49,0-2.52.43-4.91,1.31-7.18.87-2.27,2.08-4.25,3.64-5.95,1.56-1.7,3.41-3.04,5.57-4.02,2.15-.99,4.54-1.48,7.15-1.48,4.4,0,8.04,1.54,10.93,4.61v-3.51ZM551.43,351.42c0,1.15.21,2.21.62,3.2.41.99.97,1.84,1.68,2.58.71.73,1.56,1.31,2.54,1.72.98.41,2.05.62,3.2.62s2.14-.21,3.13-.62c.98-.41,1.83-.98,2.54-1.72.71-.73,1.28-1.58,1.72-2.54s.65-1.99.65-3.09-.22-2.14-.65-3.13c-.44-.98-1.01-1.84-1.72-2.58-.71-.73-1.56-1.31-2.54-1.72-.99-.41-2.03-.62-3.13-.62s-2.21.21-3.2.62c-.99.41-1.83.99-2.54,1.72-.71.73-1.27,1.57-1.68,2.51-.41.94-.62,1.96-.62,3.06Z"/><path class="cls-1" d="M604.91,343.06c-2.27-1.18-4.49-1.77-6.66-1.77-1.13,0-2.05.23-2.75.68-.7.45-1.05,1.07-1.05,1.84,0,.41.06.74.17.99s.36.49.75.71c.38.23.95.43,1.7.61.75.18,1.73.41,2.96.68,3.4.68,5.94,1.89,7.62,3.64,1.68,1.75,2.52,3.98,2.52,6.7,0,2.04-.41,3.88-1.22,5.51-.82,1.63-1.95,3-3.4,4.11-1.45,1.11-3.2,1.97-5.23,2.58-2.04.61-4.28.92-6.73.92-4.71,0-9.36-1.34-13.94-4.01l4.49-8.7c3.45,2.36,6.71,3.54,9.79,3.54,1.13,0,2.06-.25,2.79-.75.72-.5,1.09-1.13,1.09-1.9,0-.45-.06-.83-.17-1.12-.11-.29-.35-.57-.71-.82-.36-.25-.9-.48-1.6-.68-.7-.2-1.62-.42-2.75-.65-3.81-.77-6.47-1.91-7.99-3.43-1.52-1.52-2.28-3.61-2.28-6.29,0-1.95.36-3.71,1.09-5.27.73-1.56,1.77-2.89,3.13-3.98,1.36-1.09,3-1.93,4.93-2.52,1.93-.59,4.07-.88,6.43-.88,3.85,0,7.59.75,11.22,2.24l-4.15,8.02Z"/><path class="cls-1" d="M635.44,343.06c-2.27-1.18-4.49-1.77-6.66-1.77-1.13,0-2.05.23-2.75.68-.7.45-1.05,1.07-1.05,1.84,0,.41.06.74.17.99s.36.49.75.71c.38.23.95.43,1.7.61.75.18,1.73.41,2.96.68,3.4.68,5.94,1.89,7.62,3.64,1.68,1.75,2.52,3.98,2.52,6.7,0,2.04-.41,3.88-1.22,5.51-.82,1.63-1.95,3-3.4,4.11-1.45,1.11-3.2,1.97-5.23,2.58-2.04.61-4.28.92-6.73.92-4.71,0-9.36-1.34-13.94-4.01l4.49-8.7c3.45,2.36,6.71,3.54,9.79,3.54,1.13,0,2.06-.25,2.79-.75.72-.5,1.09-1.13,1.09-1.9,0-.45-.06-.83-.17-1.12-.11-.29-.35-.57-.71-.82-.36-.25-.9-.48-1.6-.68-.7-.2-1.62-.42-2.75-.65-3.81-.77-6.47-1.91-7.99-3.43-1.52-1.52-2.28-3.61-2.28-6.29,0-1.95.36-3.71,1.09-5.27.73-1.56,1.77-2.89,3.13-3.98,1.36-1.09,3-1.93,4.93-2.52,1.93-.59,4.07-.88,6.43-.88,3.85,0,7.59.75,11.22,2.24l-4.15,8.02Z"/><path class="cls-3" d="M632.53,318.22h-54.32v11.67h54.32c11.83,0,21.46,9.63,21.46,21.46s-9.63,21.46-21.46,21.46h-117.54v11.67h117.54c18.27,0,33.13-14.86,33.13-33.13s-14.86-33.13-33.13-33.13Z"/></svg>