<?xml version="1.0" encoding="UTF-8"?>
<svg id="Layer_1" data-name="Layer 1" xmlns="http://www.w3.org/2000/svg" viewBox="0 0 244.42 171.74">
  <defs>
    <style>
      .cls-1 {
        fill: #fff;
      }

      .cls-2 {
        fill: #e74c3c;
      }
    </style>
  </defs>
  <path class="cls-2" d="M92.13,51.8c0,7.23,3.4,10.84,10.19,10.84,3.64,0,6.4-1.48,8.25-4.45h16.22c-3.27,10.88-11.46,16.31-24.56,16.31-4.02,0-7.69-.6-11.03-1.81-3.34-1.21-6.19-2.92-8.57-5.14-2.38-2.22-4.22-4.88-5.51-7.97-1.3-3.09-1.95-6.55-1.95-10.38s.62-7.52,1.85-10.7c1.24-3.18,3-5.89,5.28-8.11,2.28-2.22,5.05-3.94,8.29-5.14,3.25-1.2,6.9-1.81,10.98-1.81s7.63.6,10.84,1.81c3.21,1.2,5.93,2.95,8.15,5.24,2.23,2.29,3.92,5.08,5.1,8.39,1.17,3.31,1.76,7.03,1.76,11.17v1.76h-35.31ZM111.78,42.07c-.56-2.35-1.7-4.23-3.43-5.65-1.73-1.42-3.83-2.13-6.3-2.13-2.6,0-4.71.68-6.35,2.04-1.64,1.36-2.67,3.27-3.11,5.75h19.19Z"/>
  <path class="cls-2" d="M68.03,37.21c-3.09-1.61-6.12-2.41-9.08-2.41-1.55,0-2.8.31-3.75.93-.96.62-1.44,1.45-1.44,2.5,0,.56.08,1,.23,1.34s.49.66,1.02.97c.52.31,1.3.59,2.32.83,1.02.25,2.36.56,4.03.93,4.63.93,8.09,2.58,10.38,4.96,2.28,2.38,3.43,5.42,3.43,9.13,0,2.78-.56,5.28-1.67,7.51-1.11,2.23-2.66,4.09-4.63,5.61-1.98,1.51-4.36,2.69-7.14,3.52-2.78.83-5.84,1.25-9.18,1.25-6.43,0-12.76-1.82-19-5.47l6.12-11.86c4.7,3.21,9.14,4.82,13.35,4.82,1.54,0,2.81-.34,3.8-1.02.99-.68,1.48-1.54,1.48-2.6,0-.62-.08-1.13-.23-1.53-.16-.4-.48-.77-.97-1.11-.5-.34-1.22-.65-2.18-.93-.96-.28-2.21-.57-3.75-.88-5.19-1.05-8.82-2.61-10.89-4.68-2.07-2.07-3.1-4.93-3.1-8.57,0-2.66.49-5.05,1.48-7.18.99-2.13,2.41-3.94,4.26-5.42s4.09-2.63,6.72-3.43c2.63-.8,5.54-1.21,8.76-1.21,5.25,0,10.35,1.02,15.29,3.06l-5.65,10.94Z"/>
  <path class="cls-2" d="M144.4,51.8c0,7.23,3.4,10.84,10.19,10.84,3.64,0,6.4-1.48,8.25-4.45h16.22c-3.27,10.88-11.46,16.31-24.56,16.31-4.02,0-7.69-.6-11.03-1.81-3.34-1.21-6.19-2.92-8.57-5.14s-4.22-4.88-5.51-7.97c-1.3-3.09-1.95-6.55-1.95-10.38s.62-7.52,1.85-10.7c1.24-3.18,3-5.89,5.28-8.11,2.28-2.22,5.05-3.94,8.29-5.14,3.25-1.2,6.9-1.81,10.98-1.81s7.63.6,10.84,1.81c3.21,1.2,5.93,2.95,8.15,5.24,2.23,2.29,3.92,5.08,5.1,8.39,1.17,3.31,1.76,7.03,1.76,11.17v1.76h-35.31ZM164.05,42.07c-.56-2.35-1.7-4.23-3.43-5.65-1.73-1.42-3.83-2.13-6.3-2.13-2.6,0-4.71.68-6.35,2.04-1.64,1.36-2.67,3.27-3.11,5.75h19.19Z"/>
  <path class="cls-2" d="M216.19.03l19.05-.03v72.91l-30.14.05c-8.19.01-14.46-2.1-18.82-6.35-4.36-4.25-6.55-10.24-6.56-17.97-.01-7.74,2.15-13.73,6.5-18,4.34-4.26,10.61-6.4,18.8-6.41l11.22-.02-.04-24.17ZM216.25,39.49h-6.29c-6.96.02-10.44,3.06-10.43,9.12s3.5,9.08,10.46,9.07h6.29s-.03-18.19-.03-18.19Z"/>
  <path class="cls-1" d="M45.16,78c-16.13,0-29.25-13.12-29.25-29.25s13.12-29.25,29.25-29.25h166.7V3.59H45.16C20.26,3.59,0,23.84,0,48.74s20.26,45.16,45.16,45.16h80.06v-15.9H45.16Z"/>
  <g>
    <path class="cls-1" d="M34.55,171.74H15.57v-72.91h30.2c8.19,0,14.46,2.13,18.81,6.38,4.35,4.25,6.53,10.25,6.53,17.99s-2.18,13.73-6.53,17.99c-4.35,4.25-10.62,6.38-18.81,6.38h-11.22v24.17ZM34.55,132.28h6.29c6.96,0,10.44-3.03,10.44-9.09s-3.48-9.09-10.44-9.09h-6.29v18.18Z"/>
    <path class="cls-1" d="M110.09,99.35h17.05v48.07h-17.05v-5.34c-3.62,4.56-8.53,6.84-14.71,6.84-3.5,0-6.72-.64-9.65-1.92-2.94-1.28-5.5-3.08-7.68-5.39-2.19-2.31-3.89-5.03-5.11-8.15-1.22-3.12-1.83-6.53-1.83-10.21,0-3.43.59-6.7,1.78-9.79,1.19-3.09,2.84-5.79,4.97-8.11,2.12-2.31,4.65-4.14,7.59-5.48,2.93-1.34,6.18-2.02,9.74-2.02,6,0,10.96,2.09,14.9,6.28v-4.78ZM88.72,123.24c0,1.56.28,3.01.85,4.36.56,1.34,1.32,2.51,2.3,3.51.97,1,2.12,1.78,3.47,2.34,1.34.56,2.79.84,4.36.84s2.92-.28,4.26-.84c1.34-.56,2.5-1.34,3.47-2.34.97-1,1.75-2.15,2.34-3.47.59-1.31.89-2.72.89-4.22s-.3-2.92-.89-4.26c-.59-1.34-1.37-2.51-2.34-3.51-.97-1-2.12-1.78-3.47-2.34-1.34-.56-2.76-.84-4.26-.84s-3.01.28-4.36.84c-1.34.56-2.5,1.34-3.47,2.34-.97,1-1.73,2.14-2.3,3.42-.56,1.28-.85,2.67-.85,4.17Z"/>
    <path class="cls-1" d="M161.62,111.84c-3.09-1.61-6.12-2.41-9.08-2.41-1.55,0-2.8.31-3.75.93-.96.62-1.44,1.45-1.44,2.5,0,.56.08,1,.23,1.34s.49.66,1.02.97c.52.31,1.3.59,2.32.83,1.02.25,2.36.56,4.03.93,4.63.93,8.09,2.58,10.38,4.96,2.28,2.38,3.43,5.42,3.43,9.13,0,2.78-.56,5.28-1.67,7.51-1.11,2.23-2.66,4.09-4.63,5.61-1.98,1.51-4.36,2.69-7.14,3.52-2.78.83-5.84,1.25-9.18,1.25-6.43,0-12.76-1.82-19-5.47l6.12-11.86c4.7,3.21,9.14,4.82,13.35,4.82,1.54,0,2.81-.34,3.8-1.02.99-.68,1.48-1.54,1.48-2.6,0-.62-.08-1.13-.23-1.53-.16-.4-.48-.77-.97-1.11-.5-.34-1.22-.65-2.18-.93-.96-.28-2.21-.57-3.75-.88-5.19-1.05-8.82-2.61-10.89-4.68-2.07-2.07-3.1-4.93-3.1-8.57,0-2.66.49-5.05,1.48-7.18.99-2.13,2.41-3.94,4.26-5.42,1.85-1.48,4.09-2.63,6.72-3.43,2.63-.8,5.54-1.21,8.76-1.21,5.25,0,10.35,1.02,15.29,3.06l-5.65,10.94Z"/>
    <path class="cls-1" d="M203.23,111.84c-3.09-1.61-6.12-2.41-9.08-2.41-1.55,0-2.8.31-3.75.93-.96.62-1.44,1.45-1.44,2.5,0,.56.08,1,.23,1.34s.49.66,1.02.97c.52.31,1.3.59,2.32.83,1.02.25,2.36.56,4.03.93,4.63.93,8.09,2.58,10.38,4.96,2.28,2.38,3.43,5.42,3.43,9.13,0,2.78-.56,5.28-1.67,7.51-1.11,2.23-2.66,4.09-4.63,5.61-1.98,1.51-4.36,2.69-7.14,3.52-2.78.83-5.84,1.25-9.18,1.25-6.43,0-12.76-1.82-19-5.47l6.12-11.86c4.7,3.21,9.14,4.82,13.35,4.82,1.54,0,2.81-.34,3.8-1.02.99-.68,1.48-1.54,1.48-2.6,0-.62-.08-1.13-.23-1.53-.16-.4-.48-.77-.97-1.11-.5-.34-1.22-.65-2.18-.93-.96-.28-2.21-.57-3.75-.88-5.19-1.05-8.82-2.61-10.89-4.68-2.07-2.07-3.1-4.93-3.1-8.57,0-2.66.49-5.05,1.48-7.18.99-2.13,2.41-3.94,4.26-5.42,1.85-1.48,4.09-2.63,6.72-3.43,2.63-.8,5.54-1.21,8.76-1.21,5.25,0,10.35,1.02,15.29,3.06l-5.65,10.94Z"/>
    <path class="cls-2" d="M199.26,78h-74.04v15.9h74.04c16.13,0,29.25,13.12,29.25,29.25s-13.12,29.25-29.25,29.25H39.03v15.9h160.23c24.9,0,45.16-20.26,45.16-45.16s-20.26-45.16-45.16-45.16Z"/>
  </g>
</svg>