<?xml version="1.0" encoding="UTF-8"?><svg id="Layer_1" xmlns="http://www.w3.org/2000/svg" viewBox="0 0 153.5 93.74"><defs><style>.cls-1{fill:#fff;}.cls-2{fill:#e74c3c;}</style></defs><path class="cls-2" d="M65.03,33.62c-3.09-1.61-6.12-2.41-9.08-2.41-1.55,0-2.8.31-3.75.93-.96.62-1.44,1.45-1.44,2.5,0,.56.08,1,.23,1.34s.49.66,1.02.97c.52.31,1.3.59,2.32.83,1.02.25,2.36.56,4.03.93,4.63.93,8.09,2.58,10.38,4.96,2.28,2.38,3.43,5.42,3.43,9.13,0,2.78-.56,5.28-1.67,7.51-1.11,2.23-2.66,4.09-4.63,5.61-1.98,1.51-4.36,2.69-7.14,3.52-2.78.83-5.84,1.25-9.18,1.25-6.43,0-12.76-1.82-19-5.47l6.12-11.86c4.7,3.21,9.14,4.82,13.35,4.82,1.54,0,2.81-.34,3.8-1.02.99-.68,1.48-1.54,1.48-2.6,0-.62-.08-1.13-.23-1.53-.16-.4-.48-.77-.97-1.11-.5-.34-1.22-.65-2.18-.93-.96-.28-2.21-.57-3.75-.88-5.19-1.05-8.82-2.61-10.89-4.68-2.07-2.07-3.1-4.93-3.1-8.57,0-2.66.49-5.05,1.48-7.18.99-2.13,2.41-3.94,4.26-5.42,1.85-1.48,4.09-2.63,6.72-3.43,2.63-.8,5.54-1.21,8.76-1.21,5.25,0,10.35,1.02,15.29,3.06l-5.65,10.94Z"/><path class="cls-1" d="M94.64,93.74h-18.98V20.83h30.2c8.19,0,14.46,2.13,18.81,6.38,4.35,4.25,6.53,10.25,6.53,17.99s-2.18,13.73-6.53,17.99c-4.35,4.25-10.62,6.38-18.81,6.38h-11.22v24.17ZM94.64,54.29h6.29c6.96,0,10.44-3.03,10.44-9.09s-3.48-9.09-10.44-9.09h-6.29v18.18Z"/><path class="cls-1" d="M45.16,74.41c-16.13,0-29.25-13.12-29.25-29.25s13.12-29.25,29.25-29.25h25.95V0h-25.95C20.26,0,0,20.26,0,45.16s20.26,45.16,45.16,45.16h25.95v-15.9h-25.95Z"/><path class="cls-2" d="M108.34,0h-32.93v15.9h32.93c16.13,0,29.25,13.12,29.25,29.25s-13.12,29.25-29.25,29.25h-9.23v15.9h9.23c24.9,0,45.16-20.26,45.16-45.16S133.25,0,108.34,0Z"/></svg>