<svg class="rich-terminal" viewBox="0 0 994 635.5999999999999" xmlns="http://www.w3.org/2000/svg">
    <!-- Generated with Rich https://www.textualize.io -->
    <style>

    @font-face {
        font-family: "Fira Code";
        src: local("FiraCode-Regular"),
                url("https://cdnjs.cloudflare.com/ajax/libs/firacode/6.2.0/woff2/FiraCode-Regular.woff2") format("woff2"),
                url("https://cdnjs.cloudflare.com/ajax/libs/firacode/6.2.0/woff/FiraCode-Regular.woff") format("woff");
        font-style: normal;
        font-weight: 400;
    }
    @font-face {
        font-family: "Fira Code";
        src: local("FiraCode-Bold"),
                url("https://cdnjs.cloudflare.com/ajax/libs/firacode/6.2.0/woff2/FiraCode-Bold.woff2") format("woff2"),
                url("https://cdnjs.cloudflare.com/ajax/libs/firacode/6.2.0/woff/FiraCode-Bold.woff") format("woff");
        font-style: bold;
        font-weight: 700;
    }

    .terminal-930691933-matrix {
        font-family: Fira Code, monospace;
        font-size: 20px;
        line-height: 24.4px;
        font-variant-east-asian: full-width;
    }

    .terminal-930691933-title {
        font-size: 18px;
        font-weight: bold;
        font-family: arial;
    }

    .terminal-930691933-r1 { fill: #c5c8c6 }
.terminal-930691933-r2 { fill: #9a9a9a }
.terminal-930691933-r3 { fill: #2a2a2a }
.terminal-930691933-r4 { fill: #b0b0b0 }
.terminal-930691933-r5 { fill: #3d3d3d }
.terminal-930691933-r6 { fill: #ececec;font-weight: bold }
.terminal-930691933-r7 { fill: #bdbdbd }
.terminal-930691933-r8 { fill: #cbcbcb }
    </style>

    <defs>
    <clipPath id="terminal-930691933-clip-terminal">
      <rect x="0" y="0" width="975.0" height="584.5999999999999" />
    </clipPath>
    <clipPath id="terminal-930691933-line-0">
    <rect x="0" y="1.5" width="976" height="24.65"/>
            </clipPath>
<clipPath id="terminal-930691933-line-1">
    <rect x="0" y="25.9" width="976" height="24.65"/>
            </clipPath>
<clipPath id="terminal-930691933-line-2">
    <rect x="0" y="50.3" width="976" height="24.65"/>
            </clipPath>
<clipPath id="terminal-930691933-line-3">
    <rect x="0" y="74.7" width="976" height="24.65"/>
            </clipPath>
<clipPath id="terminal-930691933-line-4">
    <rect x="0" y="99.1" width="976" height="24.65"/>
            </clipPath>
<clipPath id="terminal-930691933-line-5">
    <rect x="0" y="123.5" width="976" height="24.65"/>
            </clipPath>
<clipPath id="terminal-930691933-line-6">
    <rect x="0" y="147.9" width="976" height="24.65"/>
            </clipPath>
<clipPath id="terminal-930691933-line-7">
    <rect x="0" y="172.3" width="976" height="24.65"/>
            </clipPath>
<clipPath id="terminal-930691933-line-8">
    <rect x="0" y="196.7" width="976" height="24.65"/>
            </clipPath>
<clipPath id="terminal-930691933-line-9">
    <rect x="0" y="221.1" width="976" height="24.65"/>
            </clipPath>
<clipPath id="terminal-930691933-line-10">
    <rect x="0" y="245.5" width="976" height="24.65"/>
            </clipPath>
<clipPath id="terminal-930691933-line-11">
    <rect x="0" y="269.9" width="976" height="24.65"/>
            </clipPath>
<clipPath id="terminal-930691933-line-12">
    <rect x="0" y="294.3" width="976" height="24.65"/>
            </clipPath>
<clipPath id="terminal-930691933-line-13">
    <rect x="0" y="318.7" width="976" height="24.65"/>
            </clipPath>
<clipPath id="terminal-930691933-line-14">
    <rect x="0" y="343.1" width="976" height="24.65"/>
            </clipPath>
<clipPath id="terminal-930691933-line-15">
    <rect x="0" y="367.5" width="976" height="24.65"/>
            </clipPath>
<clipPath id="terminal-930691933-line-16">
    <rect x="0" y="391.9" width="976" height="24.65"/>
            </clipPath>
<clipPath id="terminal-930691933-line-17">
    <rect x="0" y="416.3" width="976" height="24.65"/>
            </clipPath>
<clipPath id="terminal-930691933-line-18">
    <rect x="0" y="440.7" width="976" height="24.65"/>
            </clipPath>
<clipPath id="terminal-930691933-line-19">
    <rect x="0" y="465.1" width="976" height="24.65"/>
            </clipPath>
<clipPath id="terminal-930691933-line-20">
    <rect x="0" y="489.5" width="976" height="24.65"/>
            </clipPath>
<clipPath id="terminal-930691933-line-21">
    <rect x="0" y="513.9" width="976" height="24.65"/>
            </clipPath>
<clipPath id="terminal-930691933-line-22">
    <rect x="0" y="538.3" width="976" height="24.65"/>
            </clipPath>
    </defs>

    <rect fill="#292929" stroke="rgba(255,255,255,0.35)" stroke-width="1" x="1" y="1" width="992" height="633.6" rx="8"/><text class="terminal-930691933-title" fill="#c5c8c6" text-anchor="middle" x="496" y="27">tui2-after30-note</text>
            <g transform="translate(26,22)">
            <circle cx="0" cy="0" r="7" fill="#ff5f57"/>
            <circle cx="22" cy="0" r="7" fill="#febc2e"/>
            <circle cx="44" cy="0" r="7" fill="#28c840"/>
            </g>
        
    <g transform="translate(9, 41)" clip-path="url(#terminal-930691933-clip-terminal)">
    <rect fill="#0a0a0a" x="0" y="1.5" width="12.2" height="24.65" shape-rendering="crispEdges"/><rect fill="#0e0e0e" x="12.2" y="1.5" width="12.2" height="24.65" shape-rendering="crispEdges"/><rect fill="#0e0e0e" x="24.4" y="1.5" width="927.2" height="24.65" shape-rendering="crispEdges"/><rect fill="#0e0e0e" x="951.6" y="1.5" width="12.2" height="24.65" shape-rendering="crispEdges"/><rect fill="#0a0a0a" x="963.8" y="1.5" width="12.2" height="24.65" shape-rendering="crispEdges"/><rect fill="#0a0a0a" x="0" y="25.9" width="12.2" height="24.65" shape-rendering="crispEdges"/><rect fill="#0e0e0e" x="12.2" y="25.9" width="12.2" height="24.65" shape-rendering="crispEdges"/><rect fill="#0e0e0e" x="24.4" y="25.9" width="927.2" height="24.65" shape-rendering="crispEdges"/><rect fill="#0e0e0e" x="951.6" y="25.9" width="12.2" height="24.65" shape-rendering="crispEdges"/><rect fill="#0a0a0a" x="963.8" y="25.9" width="12.2" height="24.65" shape-rendering="crispEdges"/><rect fill="#0a0a0a" x="0" y="50.3" width="12.2" height="24.65" shape-rendering="crispEdges"/><rect fill="#171717" x="12.2" y="50.3" width="12.2" height="24.65" shape-rendering="crispEdges"/><rect fill="#171717" x="24.4" y="50.3" width="927.2" height="24.65" shape-rendering="crispEdges"/><rect fill="#171717" x="951.6" y="50.3" width="12.2" height="24.65" shape-rendering="crispEdges"/><rect fill="#0a0a0a" x="963.8" y="50.3" width="12.2" height="24.65" shape-rendering="crispEdges"/><rect fill="#0a0a0a" x="0" y="74.7" width="12.2" height="24.65" shape-rendering="crispEdges"/><rect fill="#171717" x="12.2" y="74.7" width="12.2" height="24.65" shape-rendering="crispEdges"/><rect fill="#171717" x="24.4" y="74.7" width="927.2" height="24.65" shape-rendering="crispEdges"/><rect fill="#171717" x="951.6" y="74.7" width="12.2" height="24.65" shape-rendering="crispEdges"/><rect fill="#0a0a0a" x="963.8" y="74.7" width="12.2" height="24.65" shape-rendering="crispEdges"/><rect fill="#0a0a0a" x="0" y="99.1" width="976" height="24.65" shape-rendering="crispEdges"/><rect fill="#0a0a0a" x="0" y="123.5" width="12.2" height="24.65" shape-rendering="crispEdges"/><rect fill="#101010" x="12.2" y="123.5" width="12.2" height="24.65" shape-rendering="crispEdges"/><rect fill="#101010" x="24.4" y="123.5" width="390.4" height="24.65" shape-rendering="crispEdges"/><rect fill="#101010" x="414.8" y="123.5" width="12.2" height="24.65" shape-rendering="crispEdges"/><rect fill="#0a0a0a" x="427" y="123.5" width="12.2" height="24.65" shape-rendering="crispEdges"/><rect fill="#101010" x="439.2" y="123.5" width="12.2" height="24.65" shape-rendering="crispEdges"/><rect fill="#101010" x="451.4" y="123.5" width="500.2" height="24.65" shape-rendering="crispEdges"/><rect fill="#101010" x="951.6" y="123.5" width="12.2" height="24.65" shape-rendering="crispEdges"/><rect fill="#0a0a0a" x="963.8" y="123.5" width="12.2" height="24.65" shape-rendering="crispEdges"/><rect fill="#0a0a0a" x="0" y="147.9" width="12.2" height="24.65" shape-rendering="crispEdges"/><rect fill="#101010" x="12.2" y="147.9" width="12.2" height="24.65" shape-rendering="crispEdges"/><rect fill="#101010" x="24.4" y="147.9" width="12.2" height="24.65" shape-rendering="crispEdges"/><rect fill="#101010" x="36.6" y="147.9" width="207.4" height="24.65" shape-rendering="crispEdges"/><rect fill="#101010" x="244" y="147.9" width="158.6" height="24.65" shape-rendering="crispEdges"/><rect fill="#101010" x="402.6" y="147.9" width="12.2" height="24.65" shape-rendering="crispEdges"/><rect fill="#101010" x="414.8" y="147.9" width="12.2" height="24.65" shape-rendering="crispEdges"/><rect fill="#0a0a0a" x="427" y="147.9" width="12.2" height="24.65" shape-rendering="crispEdges"/><rect fill="#101010" x="439.2" y="147.9" width="12.2" height="24.65" shape-rendering="crispEdges"/><rect fill="#101010" x="451.4" y="147.9" width="12.2" height="24.65" shape-rendering="crispEdges"/><rect fill="#0e0e0e" x="463.6" y="147.9" width="12.2" height="24.65" shape-rendering="crispEdges"/><rect fill="#0e0e0e" x="475.8" y="147.9" width="451.4" height="24.65" shape-rendering="crispEdges"/><rect fill="#0e0e0e" x="927.2" y="147.9" width="12.2" height="24.65" shape-rendering="crispEdges"/><rect fill="#101010" x="939.4" y="147.9" width="12.2" height="24.65" shape-rendering="crispEdges"/><rect fill="#101010" x="951.6" y="147.9" width="12.2" height="24.65" shape-rendering="crispEdges"/><rect fill="#0a0a0a" x="963.8" y="147.9" width="12.2" height="24.65" shape-rendering="crispEdges"/><rect fill="#0a0a0a" x="0" y="172.3" width="12.2" height="24.65" shape-rendering="crispEdges"/><rect fill="#101010" x="12.2" y="172.3" width="12.2" height="24.65" shape-rendering="crispEdges"/><rect fill="#101010" x="24.4" y="172.3" width="12.2" height="24.65" shape-rendering="crispEdges"/><rect fill="#101010" x="36.6" y="172.3" width="366" height="24.65" shape-rendering="crispEdges"/><rect fill="#101010" x="402.6" y="172.3" width="12.2" height="24.65" shape-rendering="crispEdges"/><rect fill="#101010" x="414.8" y="172.3" width="12.2" height="24.65" shape-rendering="crispEdges"/><rect fill="#0a0a0a" x="427" y="172.3" width="12.2" height="24.65" shape-rendering="crispEdges"/><rect fill="#101010" x="439.2" y="172.3" width="12.2" height="24.65" shape-rendering="crispEdges"/><rect fill="#101010" x="451.4" y="172.3" width="12.2" height="24.65" shape-rendering="crispEdges"/><rect fill="#0e0e0e" x="463.6" y="172.3" width="12.2" height="24.65" shape-rendering="crispEdges"/><rect fill="#0e0e0e" x="475.8" y="172.3" width="12.2" height="24.65" shape-rendering="crispEdges"/><rect fill="#0e0e0e" x="488" y="172.3" width="378.2" height="24.65" shape-rendering="crispEdges"/><rect fill="#0e0e0e" x="866.2" y="172.3" width="48.8" height="24.65" shape-rendering="crispEdges"/><rect fill="#0e0e0e" x="915" y="172.3" width="12.2" height="24.65" shape-rendering="crispEdges"/><rect fill="#0e0e0e" x="927.2" y="172.3" width="12.2" height="24.65" shape-rendering="crispEdges"/><rect fill="#101010" x="939.4" y="172.3" width="12.2" height="24.65" shape-rendering="crispEdges"/><rect fill="#101010" x="951.6" y="172.3" width="12.2" height="24.65" shape-rendering="crispEdges"/><rect fill="#0a0a0a" x="963.8" y="172.3" width="12.2" height="24.65" shape-rendering="crispEdges"/><rect fill="#0a0a0a" x="0" y="196.7" width="12.2" height="24.65" shape-rendering="crispEdges"/><rect fill="#101010" x="12.2" y="196.7" width="12.2" height="24.65" shape-rendering="crispEdges"/><rect fill="#101010" x="24.4" y="196.7" width="12.2" height="24.65" shape-rendering="crispEdges"/><rect fill="#101010" x="36.6" y="196.7" width="12.2" height="24.65" shape-rendering="crispEdges"/><rect fill="#101010" x="48.8" y="196.7" width="341.6" height="24.65" shape-rendering="crispEdges"/><rect fill="#101010" x="390.4" y="196.7" width="12.2" height="24.65" shape-rendering="crispEdges"/><rect fill="#101010" x="402.6" y="196.7" width="12.2" height="24.65" shape-rendering="crispEdges"/><rect fill="#101010" x="414.8" y="196.7" width="12.2" height="24.65" shape-rendering="crispEdges"/><rect fill="#0a0a0a" x="427" y="196.7" width="12.2" height="24.65" shape-rendering="crispEdges"/><rect fill="#101010" x="439.2" y="196.7" width="12.2" height="24.65" shape-rendering="crispEdges"/><rect fill="#101010" x="451.4" y="196.7" width="12.2" height="24.65" shape-rendering="crispEdges"/><rect fill="#0e0e0e" x="463.6" y="196.7" width="12.2" height="24.65" shape-rendering="crispEdges"/><rect fill="#0e0e0e" x="475.8" y="196.7" width="451.4" height="24.65" shape-rendering="crispEdges"/><rect fill="#0e0e0e" x="927.2" y="196.7" width="12.2" height="24.65" shape-rendering="crispEdges"/><rect fill="#101010" x="939.4" y="196.7" width="12.2" height="24.65" shape-rendering="crispEdges"/><rect fill="#101010" x="951.6" y="196.7" width="12.2" height="24.65" shape-rendering="crispEdges"/><rect fill="#0a0a0a" x="963.8" y="196.7" width="12.2" height="24.65" shape-rendering="crispEdges"/><rect fill="#0a0a0a" x="0" y="221.1" width="12.2" height="24.65" shape-rendering="crispEdges"/><rect fill="#101010" x="12.2" y="221.1" width="12.2" height="24.65" shape-rendering="crispEdges"/><rect fill="#101010" x="24.4" y="221.1" width="12.2" height="24.65" shape-rendering="crispEdges"/><rect fill="#101010" x="36.6" y="221.1" width="12.2" height="24.65" shape-rendering="crispEdges"/><rect fill="#101010" x="48.8" y="221.1" width="341.6" height="24.65" shape-rendering="crispEdges"/><rect fill="#101010" x="390.4" y="221.1" width="12.2" height="24.65" shape-rendering="crispEdges"/><rect fill="#101010" x="402.6" y="221.1" width="12.2" height="24.65" shape-rendering="crispEdges"/><rect fill="#101010" x="414.8" y="221.1" width="12.2" height="24.65" shape-rendering="crispEdges"/><rect fill="#0a0a0a" x="427" y="221.1" width="12.2" height="24.65" shape-rendering="crispEdges"/><rect fill="#101010" x="439.2" y="221.1" width="12.2" height="24.65" shape-rendering="crispEdges"/><rect fill="#101010" x="451.4" y="221.1" width="12.2" height="24.65" shape-rendering="crispEdges"/><rect fill="#101010" x="463.6" y="221.1" width="475.8" height="24.65" shape-rendering="crispEdges"/><rect fill="#101010" x="939.4" y="221.1" width="12.2" height="24.65" shape-rendering="crispEdges"/><rect fill="#101010" x="951.6" y="221.1" width="12.2" height="24.65" shape-rendering="crispEdges"/><rect fill="#0a0a0a" x="963.8" y="221.1" width="12.2" height="24.65" shape-rendering="crispEdges"/><rect fill="#0a0a0a" x="0" y="245.5" width="12.2" height="24.65" shape-rendering="crispEdges"/><rect fill="#101010" x="12.2" y="245.5" width="12.2" height="24.65" shape-rendering="crispEdges"/><rect fill="#101010" x="24.4" y="245.5" width="12.2" height="24.65" shape-rendering="crispEdges"/><rect fill="#101010" x="36.6" y="245.5" width="12.2" height="24.65" shape-rendering="crispEdges"/><rect fill="#101010" x="48.8" y="245.5" width="341.6" height="24.65" shape-rendering="crispEdges"/><rect fill="#101010" x="390.4" y="245.5" width="12.2" height="24.65" shape-rendering="crispEdges"/><rect fill="#101010" x="402.6" y="245.5" width="12.2" height="24.65" shape-rendering="crispEdges"/><rect fill="#101010" x="414.8" y="245.5" width="12.2" height="24.65" shape-rendering="crispEdges"/><rect fill="#0a0a0a" x="427" y="245.5" width="12.2" height="24.65" shape-rendering="crispEdges"/><rect fill="#101010" x="439.2" y="245.5" width="12.2" height="24.65" shape-rendering="crispEdges"/><rect fill="#101010" x="451.4" y="245.5" width="12.2" height="24.65" shape-rendering="crispEdges"/><rect fill="#101010" x="463.6" y="245.5" width="12.2" height="24.65" shape-rendering="crispEdges"/><rect fill="#101010" x="475.8" y="245.5" width="451.4" height="24.65" shape-rendering="crispEdges"/><rect fill="#101010" x="927.2" y="245.5" width="12.2" height="24.65" shape-rendering="crispEdges"/><rect fill="#101010" x="939.4" y="245.5" width="12.2" height="24.65" shape-rendering="crispEdges"/><rect fill="#101010" x="951.6" y="245.5" width="12.2" height="24.65" shape-rendering="crispEdges"/><rect fill="#0a0a0a" x="963.8" y="245.5" width="12.2" height="24.65" shape-rendering="crispEdges"/><rect fill="#0a0a0a" x="0" y="269.9" width="12.2" height="24.65" shape-rendering="crispEdges"/><rect fill="#101010" x="12.2" y="269.9" width="12.2" height="24.65" shape-rendering="crispEdges"/><rect fill="#101010" x="24.4" y="269.9" width="390.4" height="24.65" shape-rendering="crispEdges"/><rect fill="#101010" x="414.8" y="269.9" width="12.2" height="24.65" shape-rendering="crispEdges"/><rect fill="#0a0a0a" x="427" y="269.9" width="12.2" height="24.65" shape-rendering="crispEdges"/><rect fill="#101010" x="439.2" y="269.9" width="12.2" height="24.65" shape-rendering="crispEdges"/><rect fill="#101010" x="451.4" y="269.9" width="500.2" height="24.65" shape-rendering="crispEdges"/><rect fill="#101010" x="951.6" y="269.9" width="12.2" height="24.65" shape-rendering="crispEdges"/><rect fill="#0a0a0a" x="963.8" y="269.9" width="12.2" height="24.65" shape-rendering="crispEdges"/><rect fill="#0a0a0a" x="0" y="294.3" width="12.2" height="24.65" shape-rendering="crispEdges"/><rect fill="#0a0a0a" x="12.2" y="294.3" width="951.6" height="24.65" shape-rendering="crispEdges"/><rect fill="#0a0a0a" x="963.8" y="294.3" width="12.2" height="24.65" shape-rendering="crispEdges"/><rect fill="#0a0a0a" x="0" y="318.7" width="12.2" height="24.65" shape-rendering="crispEdges"/><rect fill="#101010" x="12.2" y="318.7" width="12.2" height="24.65" shape-rendering="crispEdges"/><rect fill="#101010" x="24.4" y="318.7" width="927.2" height="24.65" shape-rendering="crispEdges"/><rect fill="#101010" x="951.6" y="318.7" width="12.2" height="24.65" shape-rendering="crispEdges"/><rect fill="#0a0a0a" x="963.8" y="318.7" width="12.2" height="24.65" shape-rendering="crispEdges"/><rect fill="#0a0a0a" x="0" y="343.1" width="12.2" height="24.65" shape-rendering="crispEdges"/><rect fill="#101010" x="12.2" y="343.1" width="12.2" height="24.65" shape-rendering="crispEdges"/><rect fill="#101010" x="24.4" y="343.1" width="927.2" height="24.65" shape-rendering="crispEdges"/><rect fill="#101010" x="951.6" y="343.1" width="12.2" height="24.65" shape-rendering="crispEdges"/><rect fill="#0a0a0a" x="963.8" y="343.1" width="12.2" height="24.65" shape-rendering="crispEdges"/><rect fill="#0a0a0a" x="0" y="367.5" width="12.2" height="24.65" shape-rendering="crispEdges"/><rect fill="#101010" x="12.2" y="367.5" width="12.2" height="24.65" shape-rendering="crispEdges"/><rect fill="#101010" x="24.4" y="367.5" width="12.2" height="24.65" shape-rendering="crispEdges"/><rect fill="#0e0e0e" x="36.6" y="367.5" width="12.2" height="24.65" shape-rendering="crispEdges"/><rect fill="#0e0e0e" x="48.8" y="367.5" width="878.4" height="24.65" shape-rendering="crispEdges"/><rect fill="#0e0e0e" x="927.2" y="367.5" width="12.2" height="24.65" shape-rendering="crispEdges"/><rect fill="#101010" x="939.4" y="367.5" width="12.2" height="24.65" shape-rendering="crispEdges"/><rect fill="#101010" x="951.6" y="367.5" width="12.2" height="24.65" shape-rendering="crispEdges"/><rect fill="#0a0a0a" x="963.8" y="367.5" width="12.2" height="24.65" shape-rendering="crispEdges"/><rect fill="#0a0a0a" x="0" y="391.9" width="12.2" height="24.65" shape-rendering="crispEdges"/><rect fill="#101010" x="12.2" y="391.9" width="12.2" height="24.65" shape-rendering="crispEdges"/><rect fill="#101010" x="24.4" y="391.9" width="12.2" height="24.65" shape-rendering="crispEdges"/><rect fill="#0e0e0e" x="36.6" y="391.9" width="12.2" height="24.65" shape-rendering="crispEdges"/><rect fill="#0e0e0e" x="48.8" y="391.9" width="878.4" height="24.65" shape-rendering="crispEdges"/><rect fill="#0e0e0e" x="927.2" y="391.9" width="12.2" height="24.65" shape-rendering="crispEdges"/><rect fill="#101010" x="939.4" y="391.9" width="12.2" height="24.65" shape-rendering="crispEdges"/><rect fill="#101010" x="951.6" y="391.9" width="12.2" height="24.65" shape-rendering="crispEdges"/><rect fill="#0a0a0a" x="963.8" y="391.9" width="12.2" height="24.65" shape-rendering="crispEdges"/><rect fill="#0a0a0a" x="0" y="416.3" width="12.2" height="24.65" shape-rendering="crispEdges"/><rect fill="#101010" x="12.2" y="416.3" width="12.2" height="24.65" shape-rendering="crispEdges"/><rect fill="#101010" x="24.4" y="416.3" width="927.2" height="24.65" shape-rendering="crispEdges"/><rect fill="#101010" x="951.6" y="416.3" width="12.2" height="24.65" shape-rendering="crispEdges"/><rect fill="#0a0a0a" x="963.8" y="416.3" width="12.2" height="24.65" shape-rendering="crispEdges"/><rect fill="#0a0a0a" x="0" y="440.7" width="12.2" height="24.65" shape-rendering="crispEdges"/><rect fill="#101010" x="12.2" y="440.7" width="12.2" height="24.65" shape-rendering="crispEdges"/><rect fill="#101010" x="24.4" y="440.7" width="927.2" height="24.65" shape-rendering="crispEdges"/><rect fill="#101010" x="951.6" y="440.7" width="12.2" height="24.65" shape-rendering="crispEdges"/><rect fill="#0a0a0a" x="963.8" y="440.7" width="12.2" height="24.65" shape-rendering="crispEdges"/><rect fill="#0a0a0a" x="0" y="465.1" width="976" height="24.65" shape-rendering="crispEdges"/><rect fill="#0a0a0a" x="0" y="489.5" width="12.2" height="24.65" shape-rendering="crispEdges"/><rect fill="#181818" x="12.2" y="489.5" width="12.2" height="24.65" shape-rendering="crispEdges"/><rect fill="#181818" x="24.4" y="489.5" width="927.2" height="24.65" shape-rendering="crispEdges"/><rect fill="#181818" x="951.6" y="489.5" width="12.2" height="24.65" shape-rendering="crispEdges"/><rect fill="#0a0a0a" x="963.8" y="489.5" width="12.2" height="24.65" shape-rendering="crispEdges"/><rect fill="#0a0a0a" x="0" y="513.9" width="12.2" height="24.65" shape-rendering="crispEdges"/><rect fill="#181818" x="12.2" y="513.9" width="12.2" height="24.65" shape-rendering="crispEdges"/><rect fill="#181818" x="24.4" y="513.9" width="927.2" height="24.65" shape-rendering="crispEdges"/><rect fill="#181818" x="951.6" y="513.9" width="12.2" height="24.65" shape-rendering="crispEdges"/><rect fill="#0a0a0a" x="963.8" y="513.9" width="12.2" height="24.65" shape-rendering="crispEdges"/><rect fill="#0a0a0a" x="0" y="538.3" width="12.2" height="24.65" shape-rendering="crispEdges"/><rect fill="#181818" x="12.2" y="538.3" width="12.2" height="24.65" shape-rendering="crispEdges"/><rect fill="#181818" x="24.4" y="538.3" width="927.2" height="24.65" shape-rendering="crispEdges"/><rect fill="#181818" x="951.6" y="538.3" width="12.2" height="24.65" shape-rendering="crispEdges"/><rect fill="#0a0a0a" x="963.8" y="538.3" width="12.2" height="24.65" shape-rendering="crispEdges"/><rect fill="#0a0a0a" x="0" y="562.7" width="12.2" height="24.65" shape-rendering="crispEdges"/><rect fill="#181818" x="12.2" y="562.7" width="12.2" height="24.65" shape-rendering="crispEdges"/><rect fill="#181818" x="24.4" y="562.7" width="927.2" height="24.65" shape-rendering="crispEdges"/><rect fill="#181818" x="951.6" y="562.7" width="12.2" height="24.65" shape-rendering="crispEdges"/><rect fill="#0a0a0a" x="963.8" y="562.7" width="12.2" height="24.65" shape-rendering="crispEdges"/>
    <g class="terminal-930691933-matrix">
    <text class="terminal-930691933-r2" x="12.2" y="20" textLength="12.2" clip-path="url(#terminal-930691933-line-0)">┌</text><text class="terminal-930691933-r2" x="24.4" y="20" textLength="927.2" clip-path="url(#terminal-930691933-line-0)">────────────────────────────────────────────────────────────────────────────</text><text class="terminal-930691933-r2" x="951.6" y="20" textLength="12.2" clip-path="url(#terminal-930691933-line-0)">┐</text><text class="terminal-930691933-r1" x="976" y="20" textLength="12.2" clip-path="url(#terminal-930691933-line-0)">
</text><text class="terminal-930691933-r2" x="12.2" y="44.4" textLength="12.2" clip-path="url(#terminal-930691933-line-1)">└</text><text class="terminal-930691933-r2" x="24.4" y="44.4" textLength="927.2" clip-path="url(#terminal-930691933-line-1)">────────────────────────────────────────────────────────────────────────────</text><text class="terminal-930691933-r2" x="951.6" y="44.4" textLength="12.2" clip-path="url(#terminal-930691933-line-1)">┘</text><text class="terminal-930691933-r1" x="976" y="44.4" textLength="12.2" clip-path="url(#terminal-930691933-line-1)">
</text><text class="terminal-930691933-r2" x="12.2" y="68.8" textLength="12.2" clip-path="url(#terminal-930691933-line-2)">┏</text><text class="terminal-930691933-r2" x="24.4" y="68.8" textLength="927.2" clip-path="url(#terminal-930691933-line-2)">━━━━━━━━━━━━━━━━━━━━━━━━━━━━━━━━━━━━━━━━━━━━━━━━━━━━━━━━━━━━━━━━━━━━━━━━━━━━</text><text class="terminal-930691933-r2" x="951.6" y="68.8" textLength="12.2" clip-path="url(#terminal-930691933-line-2)">┓</text><text class="terminal-930691933-r1" x="976" y="68.8" textLength="12.2" clip-path="url(#terminal-930691933-line-2)">
</text><text class="terminal-930691933-r2" x="12.2" y="93.2" textLength="12.2" clip-path="url(#terminal-930691933-line-3)">┗</text><text class="terminal-930691933-r2" x="24.4" y="93.2" textLength="927.2" clip-path="url(#terminal-930691933-line-3)">━━━━━━━━━━━━━━━━━━━━━━━━━━━━━━━━━━━━━━━━━━━━━━━━━━━━━━━━━━━━━━━━━━━━━━━━━━━━</text><text class="terminal-930691933-r2" x="951.6" y="93.2" textLength="12.2" clip-path="url(#terminal-930691933-line-3)">┛</text><text class="terminal-930691933-r1" x="976" y="93.2" textLength="12.2" clip-path="url(#terminal-930691933-line-3)">
</text><text class="terminal-930691933-r1" x="976" y="117.6" textLength="12.2" clip-path="url(#terminal-930691933-line-4)">
</text><text class="terminal-930691933-r3" x="12.2" y="142" textLength="12.2" clip-path="url(#terminal-930691933-line-5)">┌</text><text class="terminal-930691933-r3" x="24.4" y="142" textLength="390.4" clip-path="url(#terminal-930691933-line-5)">────────────────────────────────</text><text class="terminal-930691933-r3" x="414.8" y="142" textLength="12.2" clip-path="url(#terminal-930691933-line-5)">┐</text><text class="terminal-930691933-r3" x="439.2" y="142" textLength="12.2" clip-path="url(#terminal-930691933-line-5)">┌</text><text class="terminal-930691933-r3" x="451.4" y="142" textLength="500.2" clip-path="url(#terminal-930691933-line-5)">─────────────────────────────────────────</text><text class="terminal-930691933-r3" x="951.6" y="142" textLength="12.2" clip-path="url(#terminal-930691933-line-5)">┐</text><text class="terminal-930691933-r1" x="976" y="142" textLength="12.2" clip-path="url(#terminal-930691933-line-5)">
</text><text class="terminal-930691933-r3" x="12.2" y="166.4" textLength="12.2" clip-path="url(#terminal-930691933-line-6)">│</text><text class="terminal-930691933-r4" x="36.6" y="166.4" textLength="207.4" clip-path="url(#terminal-930691933-line-6)">SeedPass&#160;◈&#160;TUI&#160;v2</text><text class="terminal-930691933-r3" x="414.8" y="166.4" textLength="12.2" clip-path="url(#terminal-930691933-line-6)">│</text><text class="terminal-930691933-r3" x="439.2" y="166.4" textLength="12.2" clip-path="url(#terminal-930691933-line-6)">│</text><text class="terminal-930691933-r5" x="463.6" y="166.4" textLength="12.2" clip-path="url(#terminal-930691933-line-6)">┌</text><text class="terminal-930691933-r5" x="475.8" y="166.4" textLength="451.4" clip-path="url(#terminal-930691933-line-6)">─────────────────────────────────────</text><text class="terminal-930691933-r5" x="927.2" y="166.4" textLength="12.2" clip-path="url(#terminal-930691933-line-6)">┐</text><text class="terminal-930691933-r3" x="951.6" y="166.4" textLength="12.2" clip-path="url(#terminal-930691933-line-6)">│</text><text class="terminal-930691933-r1" x="976" y="166.4" textLength="12.2" clip-path="url(#terminal-930691933-line-6)">
</text><text class="terminal-930691933-r3" x="12.2" y="190.8" textLength="12.2" clip-path="url(#terminal-930691933-line-7)">│</text><text class="terminal-930691933-r3" x="414.8" y="190.8" textLength="12.2" clip-path="url(#terminal-930691933-line-7)">│</text><text class="terminal-930691933-r3" x="439.2" y="190.8" textLength="12.2" clip-path="url(#terminal-930691933-line-7)">│</text><text class="terminal-930691933-r5" x="463.6" y="190.8" textLength="12.2" clip-path="url(#terminal-930691933-line-7)">│</text><text class="terminal-930691933-r6" x="488" y="190.8" textLength="378.2" clip-path="url(#terminal-930691933-line-7)">Entry&#160;Grid&#160;&#160;|&#160;&#160;Pg&#160;1/1&#160;&#160;Rows&#160;6/6</text><text class="terminal-930691933-r5" x="927.2" y="190.8" textLength="12.2" clip-path="url(#terminal-930691933-line-7)">│</text><text class="terminal-930691933-r3" x="951.6" y="190.8" textLength="12.2" clip-path="url(#terminal-930691933-line-7)">│</text><text class="terminal-930691933-r1" x="976" y="190.8" textLength="12.2" clip-path="url(#terminal-930691933-line-7)">
</text><text class="terminal-930691933-r3" x="12.2" y="215.2" textLength="12.2" clip-path="url(#terminal-930691933-line-8)">│</text><text class="terminal-930691933-r5" x="36.6" y="215.2" textLength="12.2" clip-path="url(#terminal-930691933-line-8)">┌</text><text class="terminal-930691933-r5" x="48.8" y="215.2" textLength="341.6" clip-path="url(#terminal-930691933-line-8)">────────────────────────────</text><text class="terminal-930691933-r5" x="390.4" y="215.2" textLength="12.2" clip-path="url(#terminal-930691933-line-8)">┐</text><text class="terminal-930691933-r3" x="414.8" y="215.2" textLength="12.2" clip-path="url(#terminal-930691933-line-8)">│</text><text class="terminal-930691933-r3" x="439.2" y="215.2" textLength="12.2" clip-path="url(#terminal-930691933-line-8)">│</text><text class="terminal-930691933-r5" x="463.6" y="215.2" textLength="12.2" clip-path="url(#terminal-930691933-line-8)">└</text><text class="terminal-930691933-r5" x="475.8" y="215.2" textLength="451.4" clip-path="url(#terminal-930691933-line-8)">─────────────────────────────────────</text><text class="terminal-930691933-r5" x="927.2" y="215.2" textLength="12.2" clip-path="url(#terminal-930691933-line-8)">┘</text><text class="terminal-930691933-r3" x="951.6" y="215.2" textLength="12.2" clip-path="url(#terminal-930691933-line-8)">│</text><text class="terminal-930691933-r1" x="976" y="215.2" textLength="12.2" clip-path="url(#terminal-930691933-line-8)">
</text><text class="terminal-930691933-r3" x="12.2" y="239.6" textLength="12.2" clip-path="url(#terminal-930691933-line-9)">│</text><text class="terminal-930691933-r5" x="36.6" y="239.6" textLength="12.2" clip-path="url(#terminal-930691933-line-9)">│</text><text class="terminal-930691933-r5" x="390.4" y="239.6" textLength="12.2" clip-path="url(#terminal-930691933-line-9)">│</text><text class="terminal-930691933-r3" x="414.8" y="239.6" textLength="12.2" clip-path="url(#terminal-930691933-line-9)">│</text><text class="terminal-930691933-r3" x="439.2" y="239.6" textLength="12.2" clip-path="url(#terminal-930691933-line-9)">│</text><text class="terminal-930691933-r3" x="951.6" y="239.6" textLength="12.2" clip-path="url(#terminal-930691933-line-9)">│</text><text class="terminal-930691933-r1" x="976" y="239.6" textLength="12.2" clip-path="url(#terminal-930691933-line-9)">
</text><text class="terminal-930691933-r3" x="12.2" y="264" textLength="12.2" clip-path="url(#terminal-930691933-line-10)">│</text><text class="terminal-930691933-r5" x="36.6" y="264" textLength="12.2" clip-path="url(#terminal-930691933-line-10)">│</text><text class="terminal-930691933-r5" x="390.4" y="264" textLength="12.2" clip-path="url(#terminal-930691933-line-10)">│</text><text class="terminal-930691933-r3" x="414.8" y="264" textLength="12.2" clip-path="url(#terminal-930691933-line-10)">│</text><text class="terminal-930691933-r3" x="439.2" y="264" textLength="12.2" clip-path="url(#terminal-930691933-line-10)">│</text><text class="terminal-930691933-r3" x="463.6" y="264" textLength="12.2" clip-path="url(#terminal-930691933-line-10)">┌</text><text class="terminal-930691933-r3" x="475.8" y="264" textLength="451.4" clip-path="url(#terminal-930691933-line-10)">─────────────────────────────────────</text><text class="terminal-930691933-r3" x="927.2" y="264" textLength="12.2" clip-path="url(#terminal-930691933-line-10)">┐</text><text class="terminal-930691933-r3" x="951.6" y="264" textLength="12.2" clip-path="url(#terminal-930691933-line-10)">│</text><text class="terminal-930691933-r1" x="976" y="264" textLength="12.2" clip-path="url(#terminal-930691933-line-10)">
</text><text class="terminal-930691933-r3" x="12.2" y="288.4" textLength="12.2" clip-path="url(#terminal-930691933-line-11)">└</text><text class="terminal-930691933-r3" x="24.4" y="288.4" textLength="390.4" clip-path="url(#terminal-930691933-line-11)">────────────────────────────────</text><text class="terminal-930691933-r3" x="414.8" y="288.4" textLength="12.2" clip-path="url(#terminal-930691933-line-11)">┘</text><text class="terminal-930691933-r3" x="439.2" y="288.4" textLength="12.2" clip-path="url(#terminal-930691933-line-11)">└</text><text class="terminal-930691933-r3" x="451.4" y="288.4" textLength="500.2" clip-path="url(#terminal-930691933-line-11)">─────────────────────────────────────────</text><text class="terminal-930691933-r3" x="951.6" y="288.4" textLength="12.2" clip-path="url(#terminal-930691933-line-11)">┘</text><text class="terminal-930691933-r1" x="976" y="288.4" textLength="12.2" clip-path="url(#terminal-930691933-line-11)">
</text><text class="terminal-930691933-r1" x="976" y="312.8" textLength="12.2" clip-path="url(#terminal-930691933-line-12)">
</text><text class="terminal-930691933-r7" x="12.2" y="337.2" textLength="12.2" clip-path="url(#terminal-930691933-line-13)">┏</text><text class="terminal-930691933-r7" x="24.4" y="337.2" textLength="927.2" clip-path="url(#terminal-930691933-line-13)">━━━━━━━━━━━━━━━━━━━━━━━━━━━━━━━━━━━━━━━━━━━━━━━━━━━━━━━━━━━━━━━━━━━━━━━━━━━━</text><text class="terminal-930691933-r7" x="951.6" y="337.2" textLength="12.2" clip-path="url(#terminal-930691933-line-13)">┓</text><text class="terminal-930691933-r1" x="976" y="337.2" textLength="12.2" clip-path="url(#terminal-930691933-line-13)">
</text><text class="terminal-930691933-r7" x="12.2" y="361.6" textLength="12.2" clip-path="url(#terminal-930691933-line-14)">┃</text><text class="terminal-930691933-r7" x="951.6" y="361.6" textLength="12.2" clip-path="url(#terminal-930691933-line-14)">┃</text><text class="terminal-930691933-r1" x="976" y="361.6" textLength="12.2" clip-path="url(#terminal-930691933-line-14)">
</text><text class="terminal-930691933-r7" x="12.2" y="386" textLength="12.2" clip-path="url(#terminal-930691933-line-15)">┃</text><text class="terminal-930691933-r5" x="36.6" y="386" textLength="12.2" clip-path="url(#terminal-930691933-line-15)">┌</text><text class="terminal-930691933-r5" x="48.8" y="386" textLength="878.4" clip-path="url(#terminal-930691933-line-15)">────────────────────────────────────────────────────────────────────────</text><text class="terminal-930691933-r5" x="927.2" y="386" textLength="12.2" clip-path="url(#terminal-930691933-line-15)">┐</text><text class="terminal-930691933-r7" x="951.6" y="386" textLength="12.2" clip-path="url(#terminal-930691933-line-15)">┃</text><text class="terminal-930691933-r1" x="976" y="386" textLength="12.2" clip-path="url(#terminal-930691933-line-15)">
</text><text class="terminal-930691933-r7" x="12.2" y="410.4" textLength="12.2" clip-path="url(#terminal-930691933-line-16)">┃</text><text class="terminal-930691933-r5" x="36.6" y="410.4" textLength="12.2" clip-path="url(#terminal-930691933-line-16)">└</text><text class="terminal-930691933-r5" x="48.8" y="410.4" textLength="878.4" clip-path="url(#terminal-930691933-line-16)">────────────────────────────────────────────────────────────────────────</text><text class="terminal-930691933-r5" x="927.2" y="410.4" textLength="12.2" clip-path="url(#terminal-930691933-line-16)">┘</text><text class="terminal-930691933-r7" x="951.6" y="410.4" textLength="12.2" clip-path="url(#terminal-930691933-line-16)">┃</text><text class="terminal-930691933-r1" x="976" y="410.4" textLength="12.2" clip-path="url(#terminal-930691933-line-16)">
</text><text class="terminal-930691933-r7" x="12.2" y="434.8" textLength="12.2" clip-path="url(#terminal-930691933-line-17)">┃</text><text class="terminal-930691933-r7" x="951.6" y="434.8" textLength="12.2" clip-path="url(#terminal-930691933-line-17)">┃</text><text class="terminal-930691933-r1" x="976" y="434.8" textLength="12.2" clip-path="url(#terminal-930691933-line-17)">
</text><text class="terminal-930691933-r7" x="12.2" y="459.2" textLength="12.2" clip-path="url(#terminal-930691933-line-18)">┗</text><text class="terminal-930691933-r7" x="24.4" y="459.2" textLength="927.2" clip-path="url(#terminal-930691933-line-18)">━━━━━━━━━━━━━━━━━━━━━━━━━━━━━━━━━━━━━━━━━━━━━━━━━━━━━━━━━━━━━━━━━━━━━━━━━━━━</text><text class="terminal-930691933-r7" x="951.6" y="459.2" textLength="12.2" clip-path="url(#terminal-930691933-line-18)">┛</text><text class="terminal-930691933-r1" x="976" y="459.2" textLength="12.2" clip-path="url(#terminal-930691933-line-18)">
</text><text class="terminal-930691933-r1" x="976" y="483.6" textLength="12.2" clip-path="url(#terminal-930691933-line-19)">
</text><text class="terminal-930691933-r8" x="12.2" y="508" textLength="12.2" clip-path="url(#terminal-930691933-line-20)">┏</text><text class="terminal-930691933-r8" x="24.4" y="508" textLength="927.2" clip-path="url(#terminal-930691933-line-20)">━━━━━━━━━━━━━━━━━━━━━━━━━━━━━━━━━━━━━━━━━━━━━━━━━━━━━━━━━━━━━━━━━━━━━━━━━━━━</text><text class="terminal-930691933-r8" x="951.6" y="508" textLength="12.2" clip-path="url(#terminal-930691933-line-20)">┓</text><text class="terminal-930691933-r1" x="976" y="508" textLength="12.2" clip-path="url(#terminal-930691933-line-20)">
</text><text class="terminal-930691933-r8" x="12.2" y="532.4" textLength="12.2" clip-path="url(#terminal-930691933-line-21)">┗</text><text class="terminal-930691933-r8" x="24.4" y="532.4" textLength="927.2" clip-path="url(#terminal-930691933-line-21)">━━━━━━━━━━━━━━━━━━━━━━━━━━━━━━━━━━━━━━━━━━━━━━━━━━━━━━━━━━━━━━━━━━━━━━━━━━━━</text><text class="terminal-930691933-r8" x="951.6" y="532.4" textLength="12.2" clip-path="url(#terminal-930691933-line-21)">┛</text><text class="terminal-930691933-r1" x="976" y="532.4" textLength="12.2" clip-path="url(#terminal-930691933-line-21)">
</text><text class="terminal-930691933-r2" x="12.2" y="556.8" textLength="12.2" clip-path="url(#terminal-930691933-line-22)">┏</text><text class="terminal-930691933-r2" x="24.4" y="556.8" textLength="927.2" clip-path="url(#terminal-930691933-line-22)">━━━━━━━━━━━━━━━━━━━━━━━━━━━━━━━━━━━━━━━━━━━━━━━━━━━━━━━━━━━━━━━━━━━━━━━━━━━━</text><text class="terminal-930691933-r2" x="951.6" y="556.8" textLength="12.2" clip-path="url(#terminal-930691933-line-22)">┓</text><text class="terminal-930691933-r1" x="976" y="556.8" textLength="12.2" clip-path="url(#terminal-930691933-line-22)">
</text><text class="terminal-930691933-r2" x="12.2" y="581.2" textLength="12.2" clip-path="url(#terminal-930691933-line-23)">┗</text><text class="terminal-930691933-r2" x="24.4" y="581.2" textLength="927.2" clip-path="url(#terminal-930691933-line-23)">━━━━━━━━━━━━━━━━━━━━━━━━━━━━━━━━━━━━━━━━━━━━━━━━━━━━━━━━━━━━━━━━━━━━━━━━━━━━</text><text class="terminal-930691933-r2" x="951.6" y="581.2" textLength="12.2" clip-path="url(#terminal-930691933-line-23)">┛</text>
    </g>
    </g>
</svg>
